<svg width="105.93" height="160.38" xmlns="http://www.w3.org/2000/svg"><title>background</title><path fill="none" d="M-1 -1H106.93V161.38H-1z"/><g><title>Layer 1</title><path fill="#6a96c1" d="M104.625 139.99a1.38 1.38 0 0 0-2.24.4 1.89 1.89 0 0 0 .29 2.62c4.9 3.83 2 9 2.19 13.6 0 .9-1.41 3.15-3.16 3.81a10.24 10.24 0 0 1-7.23.22c-.84-.31-1.33-.66-2 .1-.55.58-1.37.31-2.06.31h-83c-4.87 0-7.35-2.54-7.35-7.41v-86.1c.27-.33.07-.84.43-1.13.37.15.83.34 1.12 0 1.27-1.41.9-5.46-.53-6.84-1.74-1.7-.78-3.92-1-5.91.13-.1.37-.13.4-.21.13-.34-.27-.29-.4-.45V7.89c0-5.32 1.92-7.43 7.15-7.89h89.39c3.72 0 7.08.55 8.51 4.68.06 4.76.63 9.54-.34 14.28a1.47 1.47 0 0 0 .18.68c.13 2-.64 3-2.76 2.83a3 3 0 0 0-1.38.25c-.42.17-.9.47-.75 1s.55.48 1 .56c1.4.27 3.37-.8 4.1.64.6 1.19 0 3 .06 4.46.15 5.79-.36 11.59.28 17.38-1.32 1.59-.19 3.28-.19 4.91v86.4c-.06.64.6 1.7-.71 1.92z"/><path fill="#dde9f0" d="M.005 53.02c.56-.2 1.17-.69 1.63.11a.93.93 0 0 1-.06.84c-.66.82-1-.15-1.57-.29q-.01-.33 0-.66z"/><path fill="#b1cede" d="M.445 66.41l-.43 1.13v-3.42h.43v2.29z"/><path fill="#fefefe" d="M94.975 88.27v59c0 3.72.46 3.23-3.12 3.23h-36.71c-1.43 0-2.68.1-3.57 1.4s-1.93 1.37-2.89.12-2.41-1.53-4-1.52c-10.56.06-21.12 0-31.67.08-2 0-2.5-.54-2.5-2.53.06-29.19 0-58.39.13-87.58a16.63 16.63 0 0 0-2.78-8.86c-.41-.69-1-1.29-.58-2.16a1.62 1.62 0 0 1 2.09-.68c2 .53 1.15-1 1.15-1.68.05-11.12 0-22.24 0-33.35 0-3.85-.45-3.31 3.3-3.31 21.36 0 42.71 0 64.07-.06 2.26 0 2.84.65 2.74 2.8-.17 3.67 0 7.36-.08 11 0 1.49.47 1.94 1.92 1.9 3.44-.09 6.89.12 10.31-.09 1.92-.12 2.22.53 2.22 2.25q-.08 30.05-.03 60.04z"/><path fill="#fcfcfd" d="M82.495 11.86l12 12c-2.12.65-4.22.32-6.27.33-5.75 0-5.75 0-5.75-5.84.02-2.05.02-4.09.02-6.49z"/><path fill="#f6f9fb" d="M6.735 102.04c.89 0 1.9-.84 2.64.21s-.4 1.38-.74 2c-.49 1 0 2.57-1.29 2.87a23.69 23.69 0 0 1-4.75.24c-.46 0-1 0-1.12-.61s.41-.8.88-.95a2.49 2.49 0 0 1 .92-.24c2.76.3 3.28-1.2 2.85-3.49a.34.34 0 0 1 .61-.03z"/><path fill="#d9e7ee" d="M7.525 95.71a.81.81 0 0 1-.61.87c-.51.11-.68-.26-.72-.67s0-.83.52-.87.69.27.81.67z"/><path fill="#e4edf3" d="M100.105 62.38a.65.65 0 0 1-.68.8c-.39 0-.81 0-.86-.53a.71.71 0 0 1 .68-.77.78.78 0 0 1 .86.5z"/><path fill="#d4e3ec" d="M103.625 155.63c-.47-.09-.6-.44-.59-.85s.17-.81.65-.75a.74.74 0 0 1 .65.82.8.8 0 0 1-.71.78z"/><path fill="#ecf3f7" d="M6.735 102.04h-.6c-.67 0-1.31 0-1.36-.89a.65.65 0 0 1 .34-.53c1.12-.21 1.13.9 1.62 1.42z"/><path fill="#eef4f8" d="M95.255 152.01c-.15.1-.37.39-.61.4-.45 0-.63-.33-.59-.76a.54.54 0 0 1 .58-.56c.4.03.67.3.62.92z"/><path fill="#fcfdfd" d="M87.795 137.68c0 .22.17.59.09.65-.55.38-1.55-.86-1.74.24-.16.89.84 1.65 1.65 1.77 1.7.23 1.43 1.37 1.44 2.46 0 1.5-.62 1.88-1.92 1.13.09-.86-.45-1.09-1.16-1.16a23.52 23.52 0 0 0-2.39-.06h-62.22a13.59 13.59 0 0 0-5.19.63c-1.6-.57-1.25-1.35-.18-2.1 1.6-1.13 1.62-2-.14-3.07s-1.57-2.19.26-3.33c.62-.38 1.75.09 1.88-1.17.06-.56 1.57.58 1.17-.72-.22-.72-1.1-.33-1.7-.35-1.25 0-2.39-.66-2.19-1.84s1.06-2.43 2.73-1.39c-.06.52 0 .95.62 1.09a8.49 8.49 0 0 0 1.91.12h64c.92 0 2.41.68 2.56-1.2.9-.56 1.82-.67 1.86.65 0 1.47.75 3.38-1.41 4a9.42 9.42 0 0 0-2.2.47c1.24.42 2.71-.21 3.17 1.21-1.24 1-2.74.75-4.15.75h-62.16a24.06 24.06 0 0 0-3.34.14 15.29 15.29 0 0 0 3 .16h61.44c1.47.04 3.08-.36 4.31.92zm1.05-38.01c.23 1.6.55 3.21-.08 4.8l-.34.33a6 6 0 0 1-3 .48h-62.92a14.92 14.92 0 0 1-2.38-.14c-1.09-.58-2.71-.08-3.33-1.63-.72-1.34-.25-2.95-1.41-4.35-.65-.78.8-1.29 1.83-.93.45.36.4 1.67 1.56.6a2.64 2.64 0 0 1 3.67 0c1 .84 1.09 0 1.42-.53 2 .49 3 .24 2.15-2.25-.43-1.24.46-2.75-.29-4.13a.84.84 0 0 1 .7-1.25c1.5-.07 3.31-.56 4.42.09 1.5.88 2.32.45 3.67 0a9 9 0 0 1 4.46-.08c2.85.51 6-.65 8.59 1.38a.84.84 0 0 0 1.25-.18c1.36-1.48.51.8 1.1.66.24 1.07-.75 1.67-1 2.57a3.63 3.63 0 0 0 .77 3.76 3 3 0 0 0 3.52.82c-.82-.69-2.16 0-2.44-1.3a1.13 1.13 0 0 1 .51-.48c2.3-1.11 2.3-1.11 1-3.26a1 1 0 0 1-.1-.68c1.76-.58.38-1.31.09-2s-.62-1.16.46-1.36c2-.37 2.85.75 2.25 2.92-.2.71 0 .75 2 .44 1.16 1.24.77 2.7.59 4.12-.19 1.07-1.72.75-1.86 1.9.55-.18.76-1.19 1.58-.77a3.12 3.12 0 0 0 2.73.61c-1.73-.59-1.63-1.9-1.68-3.16-.06-1.55.3-3.19-.79-4.57.1-.46-1.21-1.18-.34-1.07 1.65.19 3.13-.33 4.68-.41 1.33-.07 1.64 1 2.45 1.51 1.08 1.85.41 3.87.55 5.81.1 1.41.42 2.34 2.35 1.84-1.51-.9-2.77-1.82-.82-3.29.29-.22.48-.4.08-.69-2-1.44-.11-1.95.71-2.74-.87-.7-2.11-.09-2.88-.92-.2-1.16.34-1.57 1.46-1.54h5.73c-2.34 1.47-1.4 3.42-1.57 5.09s.7 3.29.12 4.89c-.33.91.5.84.61.79.37-.16 1.15.5 1.13-.65 0-.78-.72-2 .66-2.42.88 1.23 2.21 1.12 3.47 1.13h10a9.15 9.15 0 0 1 2.91.24z"/><path fill="#6a97c1" d="M55.305 52.52c-.11 1.21-.78 1.57-1.9 1.6a5.93 5.93 0 0 1-5.78-5.95c-.08-2.23-1-3.1-3-3.41a15.14 15.14 0 0 1-3-.9 6 6 0 0 1-3.78-4.31c-.23-.79 1.28-3.29-1.63-2.21-.38-1.44-1-2.9-.58-4.37a2.28 2.28 0 0 1 2.67-1.88 9.1 9.1 0 0 1 1.68.62c-.11-4.93-3.24-8.48-5.22-12.59 3.4 2.2 7.39 3.63 8.93 7.9.54 1.5 1.12 3 1.69 4.47.49 1.26 1.14 1.15 1.89.22a.84.84 0 0 0 .13-.2c2.57-6.35 8.25-8.67 14-10.89 1.64-.63 3.22-1.4 4.86-2 .73-.28 1.63-.49 2.15.39s-.07 1.35-.54 1.92c-2.28 2.77-4.61 5.5-6.8 8.34-1.79 2.33-3.26 4.9-5.13 7.16a10.67 10.67 0 0 1-4.28 3.57c-1.26.47-1.17 1-.28 1.79 2.55 2.41 5 4.94 7.58 7.31 1.38 1.26 2.34 2.5.94 4.2-.98 1.23-3.04.83-4.6-.78z"/><path fill="#fbfcfd" d="M16.755 103.51c.72.51 1.77.15 2.4.91-.1.38-.74.87.11 1.09a8.29 8.29 0 0 0 2.15.09h62.8c1.54 0 3.25.39 4.48-1.05l.07-.06c.52 1.45 1.4 2.9-.94 3.77-.84.31-.65 1.37.25 1.57 1.77.38 1.24 1.66 1 2.58-.27 1.2-1.27 1.06-2.31.82-2.45-.55-4.9.26-7.36.23a1.06 1.06 0 0 0-.86 1.58c.59.91-.1 1.29-.4 1.86-.84 1-2 .87-3.12.87h-56.6a12.28 12.28 0 0 1-2.14-.25c0-3 .22-3.07 3.12-2.8 2.12.2 4.26.28 6.39.28h48.44c1.2 0 3.18.39 3.14-1.17 0-1.4-2-.69-3-.69q-25.54-.08-51.07 0a13.81 13.81 0 0 0-4 .31c-1 .3-2.38.61-2.87-.83a2.41 2.41 0 0 1 1.31-3.33l.28-.16c.5-.14 1.1 0 1.59-.64-.71-.43-1.36.29-2 0-2.2-1.52-2.35-2-1.35-4.5l.49-.48z"/><path fill="#6c99c2" d="M87.795 137.68q-16.67 0-33.34-.07h-35.74c-.82 0-2.22.56-2.13-1 .08-1.35 1.35-.83 2.11-.83h70c-.07.71.49 1.76-.9 1.9zm-.48-8.34c.67.12 1.55 0 1.43 1.11-.16 1.47-1.32.88-2 .88q-25 .05-50 0h-18.42c-.64 0-1.56.36-1.69-.76s.88-1.07 1.62-1.21q20.57 0 41.14.07c9.23.01 18.59-.05 27.92-.09z"/><path fill="#6b98c2" d="M16.355 143.33c.2-1.6 1.39-1.41 2.51-1.41h68.07c.67 0 1.71-.47 1.82.87.09 1.14-.77 1-1.43 1.11-9.49 0-19-.07-28.48-.09h-39.49c-1.02.05-2.1.3-3-.48z"/><path fill="#6e9bc3" d="M16.335 117.53c.76-.87 1.78-.55 2.7-.55h56.53c.88 0 1.75-.06 2.63-.09s1.49.13 1.35 1.2-1 .79-1.67.79h-59c-1.09-.02-2.25.25-2.54-1.35z"/><path fill="#6a97c2" d="M78.105 71v3.83c0 .62-.15 1.37.62 1.65s1.17.55.6 1.33c-.44.61-.63 1.7-1.63 1.45-1.46-.36-3.32-.48-2.86-2.87a11.1 11.1 0 0 0 0-1.67c0-.94-.58-1-1.27-1s-1.3.13-1.31 1 0 1.91.06 2.86c.12 1.43-.76 1.45-1.82 1.49-1.22 0-1.41-.52-1.47-1.58-.08-1.49.76-3.31-1.36-4.26-.32-.14-.46-1.6.34-1.84 1.41-.42 1-1.42 1-2.3v-1.67c.13-2 2.07-4.72 3.33-4.65 4 .2 5.61 1.6 5.69 4.88.1 1.12.08 2.21.08 3.35zm-35.9 2.15c-.05 4.75-1.92 6.38-6.1 5.79-.94-.13-1.9-.22-2.84-.38-.66-.11-1.6.31-1.89-.51a1.76 1.76 0 0 1 .8-1.87c1.78-.91 1.34-2.45 1.37-3.87v-5.26c0-.52.2-1.17-.51-1.44s-1.53-.6-.8-1.64c.57-.8 1.14-1.61 2.31-1.13a10.47 10.47 0 0 0 3.05.43c1.09.11 2.58-.67 3.13.91s2 3.47.22 5.27c-.54.54-.54 1 .11 1.28a2 2 0 0 1 1.15 2.42zm17.58.19c-.56 1.28-.19 2.71-.25 4.08 0 1-.1 1.67-1.39 1.67s-1.7-.38-1.67-1.65c.07-3.35 0-6.7 0-10.05 0-.65.27-1.48-.78-1.75-.45-.12-1.62.34-1.08-.86.39-.86.56-2.13 2-2 2.07.16 4.14.23 6.19.51 1.61.22 2.62 5 1.45 6.41-.41.5-1.63.6-1.15 1.52.85 1.61.71 3.61 2.08 5 .4.41 1.8 0 1.15 1.26-.39.72-.77 1.68-1.86 1.64s-2.14-.13-2.56-1.35-.74-2.44-1.13-3.65a.94.94 0 0 0-1-.78zm-6.25-9.54c-.46 2.19-1.53 3.11-3.74 2.37-1-.33-1.87-.13-1.82 1.34 0 1.16.06 2.12 1.62 1.91a3 3 0 0 1 .48 0c.86 0 1.79-.2 1.78 1.23s-.91 1.34-1.78 1.26c-1.45-.14-2.17.2-2.13 1.91s.54 2.39 2.2 2.29a3.46 3.46 0 0 1 1.19.05c.67.2 2.11-.62 1.79 1-.18.94-.3 2.11-2 2.05-6.08-.21-6.08-.12-6.08-6.14v-5.75c.06-3.18 1.58-4.46 4.58-4.2a14.09 14.09 0 0 1 3.91.68z"/><path fill="#6c98c2" d="M19.105 69.79v2.39c0 3.56 0 3.55 3.52 4 .47.05 1.34-.21 1.11.72s-.19 1.94-1.42 2.26c-4.45 1.13-6.47-.44-6.47-5.06v-6c0-1 .37-2.14-1.15-2.5-.82-.19-.3-.69-.12-1.08a2.15 2.15 0 0 1 2.84-1.36 1.93 1.93 0 0 1 1.72 2.34c-.1 1.42-.03 2.86-.03 4.29z"/><path fill="#6b98c2" d="M82.115 71.71v-4.32c0-.54.16-1.27-.44-1.52-.93-.38-1.24-.71-.64-1.72a1.92 1.92 0 0 1 2.54-1c.95.28 1.85.38 1.83 1.73-.05 2.88.11 5.76 0 8.63-.11 2 .51 2.71 2.5 2.66.65 0 2.2-.89 2.12.83-.06 1.37-.75 2.43-2.5 2.11a11.72 11.72 0 0 0-2.39-.08c-2.07.05-2.84-1.19-2.93-3-.08-1.44 0-2.88 0-4.32h-.09z"/><path fill="#6996c2" d="M29.285 71.21v6.46c0 1-.35 1.43-1.39 1.41s-1.69-.11-1.67-1.39c.05-3.27 0-6.54 0-9.81 0-.84.23-1.8-.92-2.2-.44-.15-1.38.09-1.11-.81a2.93 2.93 0 0 1 1.54-2c1.5-.57 3.5 1 3.52 2.63.05 1.88.03 3.79.03 5.71z"/><path fill="#6c99c3" d="M88.845 99.67c-.43.68-1.13.49-1.74.49-4.31 0-8.62-.06-12.93 0-1.57 0-2-.54-1.69-2h14.52c1.02.1 1.94.1 1.84 1.51z"/><path fill="#729ec5" d="M80.535 93.94h-6.68c-.59 0-1.36.2-1.44-.78s.65-1.1 1.41-1.1h13.6c.65 0 1.3 0 1.32 1s-.64.94-1.29.94l-6.92-.06z"/><path fill="#6e9ac3" d="M23.825 98.27c-.16.74 1 1.59.1 2.12s-1.21-.62-1.79-1.11a2.41 2.41 0 0 0-3.24 0c-.57.49-.88 1.59-1.79 1.09s.26-1.4.06-2.14l2-4.77c.28-.67.58-1.33 1.48-1.28s.92.76 1.16 1.32c.71 1.58 1.36 3.18 2.02 4.77z"/><path fill="#709bc4" d="M50.675 98.28a2.4 2.4 0 0 0 2 .51c.49 0 1.31-.79 1.41.44.07.9-.5 1.28-1.29 1.36a4.3 4.3 0 0 1-4.35-6.3 12.34 12.34 0 0 1 1.46-1.83l2.4-.56.45.12c.8.23 1.59.58 1.31 1.58s-1.22-.13-1.76.31c-1.84.95-1.92 2.61-1.63 4.37z"/><path fill="#749fc5" d="M57.565 92.04c.9 0 1.51.28 1.45 1.38s0 2.37 0 3.56c0 1-.29 2.19 1.46 1.86a.75.75 0 0 1 .92.82c0 .6-.39.94-.9.83-1.21-.27-3 1-3.49-1.28a.34.34 0 0 1-.1-.34q.05-.17.11-.17v-4.79c.09-.65.01-1.35.55-1.87z"/><path fill="#fcfdfd" d="M16.275 103.99c0 1.71-.49 3.66 1.92 4.32.23.51-.1.75-.48 1-.59-.51-1.19-1-1.77-1.54-1.57-1.43-1.51-2.69.33-3.78z"/><path fill="#88aece" d="M77.745 85.86a.77.77 0 0 1-.91.79.83.83 0 0 1-.84-.91.79.79 0 0 1 .91-.81.89.89 0 0 1 .84.93z"/><path fill="#85accc" d="M29.095 86.7a.74.74 0 0 1-.8-.91.83.83 0 0 1 .91-.84.81.81 0 0 1 .83.92.88.88 0 0 1-.94.83z"/><path fill="#80a8ca" d="M23.225 86.7c-.7-.11-1-.45-.88-1a.84.84 0 0 1 1-.75.81.81 0 0 1 .62.89.78.78 0 0 1-.74.86z"/><path fill="#86adcc" d="M83.035 86.71c-.77 0-1-.36-1-.92a.83.83 0 0 1 .91-.84.81.81 0 0 1 .82.92.91.91 0 0 1-.73.84z"/><path fill="#79a3c7" d="M20.195 86.67c-.48-.09-.94-.29-.92-.87a.83.83 0 0 1 1-.8.79.79 0 0 1 .79.74c.02.57-.27.88-.87.93z"/><path fill="#82a9cb" d="M88.865 84.95c.52.12.87.39.84.95a.75.75 0 0 1-.93.77.85.85 0 0 1-.85-.91c.03-.55.44-.77.94-.81z"/><path fill="#84accc" d="M56.955 85.66c-.07.64-.34 1-.88 1a.74.74 0 0 1-.91-.79.86.86 0 0 1 .82-.95c.55-.06.8.38.97.74z"/><path fill="#84abcc" d="M68.885 85.77c-.07.5-.3.87-.85.91a.76.76 0 0 1-.9-.8.86.86 0 0 1 .82-.93c.55-.09.83.29.93.82z"/><path fill="#85accc" d="M71.845 85.77a.89.89 0 0 1-.86.91.76.76 0 0 1-.92-.79.85.85 0 0 1 .83-.94c.54-.09.84.29.95.82z"/><path fill="#85abcc" d="M41.175 86.69c-.55 0-.9-.22-.93-.78a.86.86 0 0 1 .81-.95.81.81 0 0 1 .94.79c.04.54-.31.83-.82.94z"/><path fill="#87aecd" d="M50.865 85.79a.74.74 0 0 1-.78.89.86.86 0 0 1-1-.8.79.79 0 0 1 .79-.93c.61-.04.88.31.99.84z"/><path fill="#7ea8c9" d="M35.965 85.72c-.06.73-.38 1-.93 1a.84.84 0 0 1-.83-.92.8.8 0 0 1 .92-.81 1 1 0 0 1 .84.73z"/><path fill="#7ea8ca" d="M62.825 85.86a.78.78 0 0 1-1 .8.85.85 0 0 1-.78-.79.8.8 0 0 1 .87-.91.85.85 0 0 1 .91.9z"/><path fill="#7aa4c8" d="M17.385 86.68c-.67 0-1-.31-1-.88a.78.78 0 0 1 .7-.82.83.83 0 0 1 1 .73c.08.58-.35.8-.7.97z"/><path fill="#80a9cb" d="M38.875 85.66c0 .72-.24 1-.83 1a.76.76 0 0 1-.81-.69.86.86 0 0 1 .72-1c.59-.11.77.39.92.69z"/><path fill="#75a1c6" d="M33.025 85.65c-.07.65-.36 1-.92 1a.85.85 0 0 1-.09-1.7 1 1 0 0 1 1.01.7z"/><path fill="#78a3c7" d="M44.975 85.72a.86.86 0 0 1-.85.92.84.84 0 0 1-.2-1.68c.53-.1.9.21 1.05.76z"/><path fill="#7ba4c8" d="M73.805 84.98c.53 0 .93.2 1 .79a.81.81 0 0 1-.67.85.85.85 0 0 1-1.08-.66c-.16-.54.26-.83.75-.98z"/><path fill="#7aa3c8" d="M47.915 85.71a.88.88 0 0 1-1.76.1.78.78 0 0 1 .71-.81.85.85 0 0 1 1.05.71z"/><path fill="#7da6c9" d="M65.755 85.8c0 .54-.26.88-.83.86a.72.72 0 0 1-.72-.74c0-.51.16-1 .71-1s.8.36.84.88z"/><path fill="#749fc5" d="M58.105 85.91a.87.87 0 0 1 .84-1 .83.83 0 0 1 .91.62.82.82 0 0 1-.69 1.06c-.54.17-.89-.16-1.06-.68zm27.68-.98c.5 0 .94.24 1 .82a.89.89 0 0 1-1.75.2c-.15-.55.23-.86.75-1.02z"/><path fill="#7fa7ca" d="M26.915 85.86c-.06.58-.33.91-.92.82a.7.7 0 0 1-.64-.83.82.82 0 0 1 .94-.82c.48.01.6.4.62.83z"/><path fill="#80a7ca" d="M52.215 85.98a.81.81 0 0 1 .78-1 .82.82 0 0 1 0 1.65.73.73 0 0 1-.78-.65z"/><path fill="#81a8ca" d="M80.625 85.86c0 .53-.28.82-.72.83a.73.73 0 0 1-.83-.85.78.78 0 0 1 1.56 0l-.01.02z"/><path fill="#6e9bc3" d="M88.695 104.53c.5 2.08-.87 1.89-2.2 1.89h-67.26c-.85 0-2.42.78-2.48-.87s1.61-.65 2.41-1.08q14.63 0 29.25.08 20.13-.02 40.28-.02z"/><path fill="#719dc5" d="M32.895 100.3c-2.37 1-2.33-1.86-3.74-2.36-.86.67.35 2.55-1.16 2.45s-.9-1.74-1-2.74a12.37 12.37 0 0 1 0-2.62c.11-1-.55-2.51 1-2.82s3.13-.3 4.19 1a2.27 2.27 0 0 1-.49 3.38c-.6.5-.41.89-.07 1.41.43.76 1.17 1.32 1.27 2.3z"/><path fill="#719cc4" d="M64.345 92.09h3.1c.59 0 1.14.11 1.13.88s-.46.73-1 .78c-.66.07-1.64-.18-1.55.92.07.9 1 .61 1.54.66s1 .15.94.79-.49.69-1 .74c-.66.06-1.53-.21-1.58.92-.05 1.33 1 1 1.67 1 .53.05.92.21.91.84s-.43.73-.93.84c-2.61.57-3.42 0-3.4-2.75 0-1.9.08-3.81.13-5.71l.04.09z"/><path fill="#77a1c7" d="M38.685 97.16c-.45.89.95 3.11-.92 3.13s-.62-2.14-.91-3.3.73-3-1.52-3.37a.29.29 0 0 1-.18-.15c-.19-.38-.26-1 .07-1.09a8.45 8.45 0 0 1 4.68-.09c.51.11.52 1.07.17 1.17-2.08.57-1.2 2.2-1.39 3.7z"/><path fill="#fefefe" d="M50.675 98.28c-1.65-2.37-1.07-4 1.6-4.36l.14.19c.62.83 2.19 1.43 1.79 2.44a3.08 3.08 0 0 1-3.53 1.73z"/><path fill="#6c99c3" d="M44.625 96.37v3.33a.68.68 0 0 1-.74.73.72.72 0 0 1-.77-.72v-6.67a.76.76 0 0 1 .9-.84c.51 0 .64.42.65.83v3.33l-.04.01z"/><path fill="#fefefe" d="M56.995 98.7v.52a.88.88 0 0 0-.17.17c-.4.72-.4 1.86-1.54 1.86-.52 0-.71-.7-.56-1.15.35-1.08 1-1.8 2.27-1.4zm-10.67-4.95c-.2-.18-.44-.3-.48-.46a.41.41 0 0 1 .48-.53.61.61 0 0 1 .39.44c.02.16-.22.33-.39.55z"/><path fill="#6b98c2" d="M52.765 112.65H17.505c-.64 0-.84-.36-.83-.93a.82.82 0 0 1 .86-.92h70.29c.74 0 1 .42.93 1.08s-.42.79-1 .8h-35l.01-.03z"/><g fill="#fefefe"><path d="M17.715 109.27l.48-1c.49-.87 1.18-1.27 2.08-.68.46.3.21.84 0 1.26-.65 1.37-1.65.84-2.56.42zm57.07-39.87c-.14.46.7 1.87-1.13 1.86-2.38 0-1.46-1.83-1.52-3 0-.77-.67-2.16 1-2.16 1.98.02 1.84 1.52 1.65 3.3zm-38.26 4.27c.22-.58-.5-1.89.77-1.74a2.2 2.2 0 0 1 2 2.48c-.07.88.08 1.79-1.31 1.72-1.71-.08-1.41-1.27-1.46-2.46zm.1-3.59c0-1.66-.71-3 .51-3.91.58-.44 1.11.18 1.4.84.75 1.65-.6 2.04-1.91 3.07zm22.84-1.99c.28-.7-.5-1.93 1-2 1.26-.06 1 1 1.13 1.72a1.56 1.56 0 0 1-1.4 1.89c-1.19.16-.47-1.04-.73-1.61z"/></g><path fill="#edf3f7" d="M20.315 94.58c.67 1.25 1.3 1.89.69 2.72a.75.75 0 0 1-1.06 0c-.67-.78.25-1.38.37-2.72z"/><path fill="#f5f9fa" d="M29.715 95.86c-.77 0-.91-.47-.88-1.07s.07-1.18.88-1.06a1 1 0 0 1 1 1.09c-.02.62-.32 1.04-1 1.04z"/></g></svg>