<svg height="162.38" width="106.93" xmlns="http://www.w3.org/2000/svg"><path d="m-1-1h582v402h-582z" fill="none"/><path d="m-1-1h108.93v164.38h-108.93z" fill="none"/><path d="m1.12 16.9c0-3.1.14-6.2 0-9.3a7.16 7.16 0 0 1 2.51-5.92 2.1 2.1 0 0 0 1.56-1c1.68-.06 3.35-.18 5-.18h88.49c2.63 0 4.89.52 6.65 2.56a2.9 2.9 0 0 1 1.35 2.87c-.35 14.47-.05 29-.14 43.43 0 4.33 0 4.33-4.3 4.35a3.8 3.8 0 0 0 -2.61.54c-1 .71.12.92.16 1.37a9.57 9.57 0 0 1 -.91 2.72c-1.27.33-2.81-.9-3.23-2.64a11.32 11.32 0 0 1 -.13-2.63v-22.8c0-1 .33-2.13-.85-2.79-3.41-.49-6.83-.11-10.23-.22s-3.81-.56-3.81-3.91v-10.24c.07-1.14-.65-1.55-1.61-1.7a11 11 0 0 0 -1.68 0h-61.71c-3.14 0-3.14 0-3.14 3.26v132.23c0 3.28 0 3.3 3.31 3.3h76.53a7.21 7.21 0 0 0 2.61-.22c1-.79.61-1.92.61-2.9 0-12.28 0-24.56.05-36.83 0-1.13-.7-2.91 1.52-3 1 .33 1 1.29 1.2 2.12s.65 1.65 1.58 1.32.39-1.22 0-1.75c-.92-1.37-1-3-1.46-4.5.83-11.41.23-22.83.34-34.24 0-1.94 0-3.86 1.68-5.25a2.82 2.82 0 0 1 1.7-.06c1.86 0 1.9 1.31 1.92 2.62.05 4.06 0 8.11 0 12.17v9.31c0 1.82-.16 3.6 1.45 5.05.9.82.53 2.27.85 3.42a38.75 38.75 0 0 1 .1 6.68v46.53a10.07 10.07 0 0 1 -.12 2.63c-.35.13-.73 0-.75-.31-.1-1.67-.65-3.25-.64-5 .05-13.81 0-27.62 0-41.43a8.72 8.72 0 0 1 .41-3.53 2.31 2.31 0 0 0 -1.27-2.48c.69.73 1.31 1.23 1.35 2.07-2.38 3.65-2 7.73-1.74 11.74.07 1.26.28 2.53.28 3.8v29.44c0 1.28 0 2.48 1 3.54s0 2.88 1.23 4a.58.58 0 0 1 .05.64c-1.11 4.14-3.1 5.67-7.39 5.67h-88.75a23.92 23.92 0 0 1 -5.23-.43c-3.48-1.4-4.38-2.85-4.33-6.74v-10.8c0-1.45.36-2.56 2.09-2.55a1.9 1.9 0 0 1 .87.48 2.18 2.18 0 0 1 -.6-1c-.29-2.21 1.11-2.93 3.27-3.34-1.89-.38-3.12-.06-4.11 1.26-.78 1-1.39.54-1.54-.45a10.34 10.34 0 0 1 -.18-2.85 73.06 73.06 0 0 0 .19-9.33v-102.05c0-.93-.28-1.93.38-2.78l.14-2.27c.87-.43 1.29.35 1.85.71.74.47 1.48 1.17 2.32.29a1.43 1.43 0 0 0 -.06-2c-.63-.82-1.36-1.31-2.47-.72-.37.18-.95 1.27-1.61.02z" fill="#c16868"/><path d="m1.12 16.9c1 .94 1.19-.35 1.53-.7a1.37 1.37 0 0 1 2.07-.2c1.65 1.16 2.37 3 1.38 4-1.48 1.45-2.6.24-3.72-.65l-1.13-.87a6.87 6.87 0 0 1 -.75-1.12c-.38-.92.21-.58.62-.46z" fill="#faf5f5"/><path d="m6.247692 1.813846c-.41.59.84 1.31-.12 1.81-.79.41-1-.47-1.44-.79.27-.71.92-.86 1.56-1.02z" fill="#f4e8e8"/><path d="m81.31 13.07c0 3.82.13 7.64.05 11.45 0 1.53.36 2.09 2 2 4.13-.11 8.27 0 12.41 0a4.19 4.19 0 0 1 .23 2.34v23.93c0 4.21.94 8.38.51 12.61-.1.79.26 1.54.2 2.33-.37 11.32.28 22.67-.24 34-.74 15.78-.25 31.55-.46 47.32a2.16 2.16 0 0 1 -.17.93c-.85.63-1.85.4-2.78.4h-75.62a6.08 6.08 0 0 1 -2.6-.25c-1.2-3.8-.32-5.18 3.42-5.53 1.84-.17 3.67-.21 5.51-.21h60.67c1.17 0 2.43.26 3.41-.69.76-.59 1.79-1 1.22-2.34-1.52-1-3.24-.75-4.89-.75h-61.68a16.9 16.9 0 0 1 -4.06-.21c-2-1.71.16-2.1.94-2.93a7.83 7.83 0 0 1 2.35-.22h66.36c1-.09 2.21.6 2.77-.67s-.22-2.05-1.25-2.74c-.72-.49-.81-1.17.08-1.69a2.34 2.34 0 0 0 1.26-1.64c.2-1 .34-2-1.2-1.92a1.82 1.82 0 0 1 -2-1c-.65-1.84-2.08-1.92-3.67-1.92h-61.32c-3.18 0-4.68 1.42-5.13 4.71-.12.85 0 2-1.28 1.89-1.06-.09-1.23-1.12-1.21-2 .07-3.11-1.09-6.11-.75-9.27.19-1.76.7-2.94 2.69-2.9l.88-.05q30.8-.15 61.58 0a3.77 3.77 0 0 0 2.18-.24c.78-2.87 2.73-3.95 5.61-4.14 1.39-.09 3.34 0 3.64-2.23.22-1.16-.94-1.75-1.15-2.74.25-.86 1.88-1.74-.06-2.55a2.68 2.68 0 0 1 -.29-1.63 11 11 0 0 0 .09-2.86 1.45 1.45 0 0 1 .61-1.65c1.26-.77 1.27-1.45-.15-1.92-1.76-.59-1.09-1.16-.23-1.89 2.28-1.94 2-4.13-.67-5.45-1.08-.53-2-1.11-1.86-2.48.22-.84 1.82-1.56.2-2.55a5.84 5.84 0 0 0 -.52-.49c-2.26-.69-4.58-.22-6.85-.27-5.24-.12-10.49-.06-15.73 0a5.79 5.79 0 0 0 -2.77.53 5.34 5.34 0 0 1 -2.34-.18c-2.18-.64-4.4-.27-6.6-.22-3.9-.27-7.81-.17-11.71-.06a2.65 2.65 0 0 1 -.71.05c-1.83-.14-3.68-.44-5.48.28a1.13 1.13 0 0 1 -.64 0c-1-.7-2.06-.34-3.12-.26a3.55 3.55 0 0 1 -.7-.07c-3.61-.18-7.22 0-10.82.18-.83.15-1.36.5-.92 1.46s1.62 1 2.53.89c3.6-.34 7.3.59 10.81-.87a.93.93 0 0 1 .7 0c3.78 1.55 7.64.64 11.48.33 2-.16 4.12.73 6-.52a1.58 1.58 0 0 1 .66.07c1.68.85 3.37 1.57 5.07 0a1.28 1.28 0 0 1 .62-.17 1.48 1.48 0 0 1 .61.24 2.25 2.25 0 0 0 2.23.48c4.65-1 9.27 1.21 13.93 0 1-.24 2.45-.73 3.07.9.21 1.41-.69 2.11-1.76 2.65-.56.28-1.18.43-1.08 1.25a2.44 2.44 0 0 1 -.09.66c-1.37 1.82-1.7 1.85-3.13.24-1.18-1.32-3.68-1.48-4.54-.29a12 12 0 0 1 -.37 3.06c0 .07-.06.17-.12.2-.82.51-.88 2.32-2.16 1.78a3.77 3.77 0 0 1 -2.43-3c0-.32.06.07 0-.24-.23-.85.43-2.21-.78-2.47s-1.34 1-1.65 1.93c-.25.72-.74.79-1.27.26s-.86-.94-1.29-1.4c-1.85-2-3-2.26-5.43-1a16.5 16.5 0 0 0 -3 1.45c-.72.59-1.15.07-1.65-.31-.77-.32-1.28.19-1.85.55s-1.33.62-1.72 0c-1.44-2.1-3.47-1.13-5.3-1.17a3.08 3.08 0 0 1 -.67.1 9 9 0 0 1 -2.66-1c-2.33-.84-3.5-.83-5.64.63-1.42 1-1.14 2.65-1.06 4.08.12 2-.62 2.29-2.23 1.51-1.05-1-1.3-2.46-1.87-3.73s-1.14-1.16-1.74 0c-.48.89-.78 1.9-1.78 2.4-1.22.35-1.55 1.16-1.38 2.37.13.93-.22 1.92-1.24 2-1.2.09-1.61-1-1.62-2 0-3.94-1.09-7.93.6-11.79a1.73 1.73 0 0 0 -.08-1.62c-1.27-2-.71-4.18-.45-6.29.23-1.85 1-2.05 2.7-.89a2.53 2.53 0 0 1 .24.64c.34 2 1.59.54 2.38.57 1 0 1.94-.18 2-1.52s0-2.39.07-3.58c.1-1.57 1.09-2 2.45-2s2.54.4 2.67 2.06a27.2 27.2 0 0 1 -.16 3.34c0 .93 0 1.35 1.17 1.69 1.66.49 3.15.86 4.69-.1a1.16 1.16 0 0 1 1.33 0 6.14 6.14 0 0 0 2.79.56c2.33.18 2.44 0 1.66-2.33a6.35 6.35 0 0 1 -1.36-4.44c.07-1.74.07-3.49 0-5.24-.13-2.91-.88-3.76-3.73-4.3a10.55 10.55 0 0 1 -2.53-.63 18.77 18.77 0 0 0 -9.23-.69 7.3 7.3 0 0 0 -4.68 2.28 1.28 1.28 0 0 1 -1.74.17c-.6-.39-.47-.93-.22-1.48s.46-.94.15-1.36c-1.53-2.08-1-4.46-1-6.73q-.06-20.25 0-40.51c0-1.18-.47-2.62 1.06-3.38h62.82c1.74-.08 2.71.39 2.96 2.11z" fill="#fefefe"/><path d="m95.84 65.71-.1-39.19c.81.7.48 1.64.48 2.47 0 8.38.17 16.77-.1 25.14-.07 2.16 2 2.62 2.15 4.32l.39-.8c.92 1.28 2.21.44 3.33.56.12-.06.27.48.34 0 0-.17-.2-.39-.29-.6 0-1.52.09-2.9 2.08-3.12 1.5-.16 2.28 0 2.26 1.93-.09 12.66 0 25.32-.07 38a4.4 4.4 0 0 1 -.45 2.78c-.46-1.37.14-3.26-2.1-3.79-.62-.15-.33-1.3-.33-2 0-8.15-.06-16.3 0-24.44 0-1.36-.58-1.51-1.56-1.58-.15-.53-.45-.73-1-.44a7.12 7.12 0 0 0 -1.4 5c.1 10.62 0 21.24.1 31.86 0 1.06-1.2 1.79-.53 2.89-.62.92-.68 2.13-1.53 2.93-1-.3-1.38-.08-1.38 1.09.07 13.41.06 26.82.14 40.23 0 .77.07 1.4-.62 1.87a.65.65 0 0 1 0-1l.1-45.5v-34.73a3.77 3.77 0 0 1 .38-2.32c.61-.63-.12-1.02-.29-1.56z" fill="#c16a69"/><path d="m95.76 149.88v1c-27.11 0-54.23 0-81.34.05-2.24 0-2.74-.64-2.74-2.78q.06-67.47-.05-134.9c0-2 .55-2.51 2.53-2.5q32.39.11 64.78 0c1.7 0 2.89.16 2.35 2.29-.71-1.84-2.14-2-3.9-1.95q-31.12.16-62.27.16a2.72 2.72 0 0 0 -1.08 2.29c-.09 1.2-.07 2.4-.07 3.59v127.32a18.21 18.21 0 0 0 0 4.25 7.42 7.42 0 0 0 .66 1.22z" fill="#fcfbfb"/><path d="m106.25 153.25v2c-.36 0-.76 1.21-.91.22-.28-1.87.08-3.83-1.84-5.15-.3-.21-.06-1.22-.06-1.86v-31.42c0-2.13-.7-4.27-.56-6.37.16-2.3.55-4.6.74-6.92.08-.92 2-.34 1.77-1.8.83.79.46 1.81.46 2.72v45.88c0 .84-.34 1.85.4 2.7z" fill="#c16a69"/><path d="m94.54 24.59h-9.91c-.88 0-1.32-.29-1.31-1.24v-10.12z" fill="#fdfcfc"/><path d="m97.63 107.64c.29-1.09-.52-2.76 1.53-2.93.66 1.38.44 3.11 1.71 4.27.53.49.93 1.11.41 1.89a1.67 1.67 0 0 1 -1.9.62c-.82-.16-1.52-.5-1.59-1.48-.11-.76-.16-1.58-.16-2.37z" fill="#fbf6f7"/><path d="m5.57 111.12c-.08.62.12 1.53-1 1.48-.77 0-1-.66-1-1.36s.1-1.55 1-1.55.99.72 1 1.43z" fill="#f7edee"/><path d="m105.23 102.19c-.41-1.17-1.74-.66-1.78-1.75 0-.43.13-.92.66-.47s1.64-.14 1.59 1a5 5 0 0 1 -.47 1.22zm-4.18-49.26a5 5 0 0 0 -1.4 2.4c-.53.24-1.2.43-1.49-.11s.52-.61.8-.91c.58-.61 1.08-1.4 2.09-1.38z" fill="#c16a69"/><path d="m3.63 141.25c.76-.1 1.46 0 1.68.86a.51.51 0 0 1 -.56.6 1.13 1.13 0 0 1 -1.12-1.46z" fill="#f3e4e3"/><path d="m100.95 64.93c.1-.54-.13-1.49.83-1.21s.48 1.06.15 1.65z" fill="#ecd4d4"/><path d="m14.02 9.25a.69.69 0 0 1 -.79-.66.61.61 0 0 1 .44-.71.63.63 0 0 1 .87.5.69.69 0 0 1 -.52.87z" fill="#f1e0e0"/><path d="m4.16 5.4c.11-.42.34-.75.79-.67a.74.74 0 0 1 .58.87c0 .42-.25.75-.74.64a.8.8 0 0 1 -.63-.84z" fill="#edd6d6"/><path d="m8.46 97.68a.64.64 0 0 1 .6-.6c.46-.05.79.12.8.6a.58.58 0 0 1 -.55.64.81.81 0 0 1 -.85-.64z" fill="#f1dfdf"/><path d="m102.530769 59.649231.39.27c.52.38 1.49.38 1.29 1.39a.68.68 0 0 1 -.53.36c-.92 0-1.15-.66-1.2-1.44z" fill="#f2e3e3"/><path d="m13.2 145.08v-131.09c0-1.28-.65-3.18 1.91-2.78v46.93c0 1.11-.42 2.36 1.21 3 .62.25 0 1.31-.41 1.86-.28.35-.93.64-.28 1.05a1.09 1.09 0 0 0 1.47-.27c.3-.36 0-.84.71-1.23 1.3-.7 2.25-1.93 3.91-.86.09.05.59-.46.84-.76s.69-1.03 1.07-.68c2.34 2 5.6-.18 7.88 1.86a2.73 2.73 0 0 1 -.68 2.22 6.53 6.53 0 0 0 -1.2 4.04 4.18 4.18 0 0 1 -.61 2.52c-.31.47-.69 1-.27 1.53 1 1.24.83 2.69 1 4.11.05.63.14 1.37 1 1.3.71-.05.8-.7.89-1.25.14-.87 0-1.76.23-2.62a1.59 1.59 0 0 1 1.76-1.36 1.57 1.57 0 0 1 1.69 1.37c0 .16.06.31.08.47.68 3.67.76 3.72 4.2 2.9 1 2.77.65 3.24-2.43 2.85-1.31-.16-2.68-.08-3.8-1-.53 2-2.06.68-3.1.92-.74.17-1.44.52-2.08-.7s-.63.5-1.25.72a13.21 13.21 0 0 1 -.09-5.08c.14-1.2.27-2.43-1.61-2.49-1.59 0-2.73.16-2.42 2.14a4.63 4.63 0 0 1 0 .72c0 4.06-.6 4.73-4.55 4.79-1.81 0-1.06-1.06-.67-1.92 1.87-.06 2.79-.77 2.69-2.9-.15-3.31 0-3.35 3.15-4.53a2.09 2.09 0 0 0 1.19-1.61c.3-.73.62-1.45-.78-2.05.51.78 1.61 1.41.28 2a4 4 0 0 1 -2.81-.08c-1.18-.54-1.13-1.63-1-2.68.17-1.25 1.08-1.39 2.13-1.36s2.38.25 2.42-.83-1.48-.84-2.34-.94c-2.65-.31-4.05 1-4.32 4.15-.23 2.62 0 5.26-.09 7.89 0 1 .18 2.09-.58 3-.61-.23-.91-1.26-1.81-.73-.71.42-.38 1.14-.4 1.73-.09 2.06-1 4.25 1 6 .14.13-.06.76-.23 1.09-2 4-.48 8.21-.81 12.31 0 .49.32 1.48 1 1.37a1.19 1.19 0 0 0 .81-1.7c-1-2.19 0-2.75 2-2.7.6 1.15-.2 2.13-.45 3.4 2-1.39 3.82-1.64 5.67 0 .2-.75-.33-1.51.32-2.06.93.37 1.84 1 1.34-1-.79-3.08.32-4.69 3.32-5.29s3.09-.62 6.9 1c2.77 1.49 1.9 4.23 2.3 6.6.84-1.82-.22-4 1.36-5.71-1.22-.55-2.65.12-3.66-.88 2.09-.33 4.35-1.87 6 1 .39.69 1.13-.18 1.72-.06 1.29 1.66.26 3.69.93 5.7.81-2.29-.39-4.68 1-6.65 1.29 1.49 2.73 0 3.3-.45 1.47-1.23 3.22-.78 4.72-1.42.41-.17 1.33-.07 1.29.24-.2 1.88 2.41 1.9 2 4.37 1.1-1.45.25-3 1.9-3.42s2.28-.09 2.11 1.33c-.26 2.19.77 3.56 2.39 4.84.47-.58.29-1.85 1.54-1.64.56.46.52 1.12.62 1.75.28 1.7.29 1.7 2.25 1.81-1.32-.82-2.24-1.78-.43-2.95.85-.55.26-.47-.09-.75-1.52-1.2-1-2.09.6-3-1-.25-2.07.07-2.88-.58.52-1.06.7-1.65 2.41-.95 1.39.57 2.8.35 3.77 2.07.69 1.22 1.26-.45 1.9-.8a9.76 9.76 0 0 0 4.67.73c3.41 0 6.83.09 10.25-.24-3.78-.36-7.57-.18-11.35-.26-1.17 0-2.41.24-3.43-.64-.73-1.56-.72-1.77.21-1.72 1.67.09 2.16-.91 2.53-2.18.5-.56 1.25-.82 1.71-1.43a.91.91 0 0 1 .58-.18c.48.17.85.53 1.33.69s1.25.56 1.32-.55a1.92 1.92 0 0 1 .45-.79c.38-.36.7-.82 1.31-.77a10.5 10.5 0 0 0 1.52 1.1 3.18 3.18 0 0 1 .52.3 4.19 4.19 0 0 0 1.18.85c.54.24 1.19.25 1.59.77 0 1.52 1.19 1.88 2.3 2.38.93.42 2.41.49 2 2.13-.38 1.46.95 3.76-1.95 4-.23 0-.42.42-.69.71 2.52.06 2.64.27 2.39 3.91-.76.32-.7-1.08-1.6-.67 0 1.27.65 2.6-.06 3.88-1.1.9-2.42.71-3.68.71h-67.66a4.73 4.73 0 0 0 -1.81.18c-.28.12-.69.2-.15.57.92.89 2 .15 2.93.21a2.61 2.61 0 0 1 .71.35c.81.71 1.8.56 2.75.56h62.5a7.86 7.86 0 0 0 3.43-.81 3.37 3.37 0 0 1 .9-.07c.59.3 1.68-.6 1.82.46s-.94 1.54-1.71 2.07a2 2 0 0 1 -2.28 1.61h-8.39c-20.14-.07-40.28.16-60.42-.12a.87.87 0 0 0 -.63.25c-.16.31-.3.64-.45 1a1.74 1.74 0 0 1 -.82.69c.26.16.57 0 .85.09a5.9 5.9 0 0 0 .71.26c22.65.06 45.3 0 67.94 0a4.38 4.38 0 0 0 2.32-.38l.68-.45a2 2 0 0 1 1.85-.41c1 1.14.06 1.8-.71 2.2a7.09 7.09 0 0 1 -3.34 1c-3-.15-4.54 1.15-5.07 4h-.23c-1-3.17-3.62-2.63-6-2.63h-52.89a32.69 32.69 0 0 0 -3.35.1c-2.84.29-2.84.29-2.8 3-1.43-.18-2.08.39-1.93 1.88.23 2.27-.4 4.59.66 6.84a5.15 5.15 0 0 1 -.08 3.26c-.15.62.12 1.22.78 1.23s.65-.69.54-1.11c-.37-1.48.44-2.6 1.06-3.77a3.64 3.64 0 0 1 3.6-2.14q31.87.1 63.73 0c1.47 0 2.73 0 2.71 2 0 1.32 1 1.34 1.84.84 1.15-.73 1.49.18 1.78.8.8 1.72-.4 3.85-2.71 4.29 2.09.86 3.76 1.91 2.7 4.18-.62 1.32-2 1-3.17.82a.48.48 0 0 1 -.12-.56c.31-.63 1.38-1.09.43-2a12.59 12.59 0 0 0 -3.82-.14h-63a19.91 19.91 0 0 1 -3.1-.16c-1.3-.2-1.27.57-1 1.46.14.18.29.37.45.54a1.49 1.49 0 0 1 .54.86c.24.92-1 1.1-1 1.92.23.82-.44 1.13-.88 1.54-1.73.34.15.68 0 1a2.14 2.14 0 0 0 1.67.53q32.82-.07 65.63 0c1.4 0 2.9-.32 4.13.75-.69 1.58-2.09 1.46-3.47 1.46h-62.82c-2 0-3.9.67-5.9.24-1.15-.24-1.22.75-1.24 1.57a5.57 5.57 0 0 1 -.49 3 1 1 0 0 1 -1-.48c-.18-1.35.49-2.89-.35-4.25z" fill="#fdfcfc"/><path d="m64.23 30.56c-.18 1.58-.4 3.17-.52 4.75-.08 1.09-.56 2.37.33 3.22 2.31 2.19.68 4.29-.07 6.35-.38 1-1.45 1.34-2.63 1.14-1.87-.32-2.79.5-2.93 2.44-.21 2.94-1.27 3.93-4.24 4.55a9.83 9.83 0 0 1 -5.85-.53 3.79 3.79 0 0 1 -2.53-3.94c.09-1.8-.84-2.82-2.57-2.58-1.36.18-2.52.1-3-1.18-.66-1.65-2-3.61-.77-5.18 1.53-1.87 1.12-3.7.92-5.62-.26-2.55-.64-5.09.15-7.6 1.92-6 7.53-9.21 14.2-8.06 5.85 1 9.6 5.87 9.51 12.24z" fill="#c16868"/><path d="m17.03 141.25c-.08-.75.67-.94 1-1.44h68.13c1.48 0 3.56-.66 3.85 1.94-1.25 1-2.74.71-4.15.71h-63.64c-1.53 0-3.24-.42-4.47 1l-1.15-.86a1.26 1.26 0 0 1 .43-1.35z" fill="#fdfafa"/><path d="m19.44 106.25h-.5c-1.83.19-2-.08-1.39-2q26.86 0 53.72-.05c6.23 0 12.47.07 18.7.11l-.09 1.72h.07a9.83 9.83 0 0 1 -4.37.84h-62.67a6.25 6.25 0 0 1 -3.47-.62z" fill="#c26c6c"/><path d="m17.71 143.54c-.32-1.2-.25-2 1.37-2q35.1.06 70.2.05a4 4 0 0 1 .71.13c.07 1-.06 1.91-1.42 1.86-8.14 0-16.27-.08-24.41-.08q-23.23.03-46.45.04z" fill="#c46f6f"/><path d="m17.04 118.68c-1.38-2.89-1.2-3.12 1.82-3.61a22 22 0 0 1 3.57-.22h57.16c1.88 0 3.39.3 2.39 2.79 0 .11.25.37.39.55-.54.71-1.31.42-2 .44-1.12-1.43-2.74-1.1-4.21-1.11h-54.65c-1.32 0-2.77-.24-3.75 1z" fill="#fdfbfc"/><path d="m17.7 118.59c-.6-1.85.51-1.91 1.88-1.91h58.93c1.45 0 2.43.18 1.79 2z" fill="#c36e6e"/><path d="m39.57 77.34a2.49 2.49 0 0 1 -3.36 1.09c-1.6-.61-1.41-1.68-1.41-2.85v-1.44c0-.88-.56-1-1.27-1s-1.21.27-1.2 1.1-.05 1.92 0 2.87c.07 1.29-.54 1.65-1.74 1.62s-1.51-.39-1.59-1.53c-.11-1.56.89-3.5-1.34-4.53-.29-.13-.39-1.53.14-1.71 1.8-.59 1.28-2 1.2-3.11-.2-2.44 1.51-3.93 2.54-5.76a29.66 29.66 0 0 0 3.26.67c2.56.25 3.25 1.92 3.31 4.12 0 1.11.05 2.23 0 3.35-.13 2.5-.25 5.02 1.46 7.11z" fill="#c16969"/><path d="m18.95 84.6c4-.28 8-1.08 12 .06a1.63 1.63 0 0 0 -.25.24 2.37 2.37 0 0 0 .23-.25c1.21-.4 2.5-1.41 3.4.46-.17.12-.4.13-.55.29a2 2 0 0 0 .54-.3c1.8-1.56 3.76-1 5.73-.42a6 6 0 0 1 -.49.4c.26 0 .3-.3.47-.42a34.52 34.52 0 0 1 13-.07.4.4 0 0 1 .35-.15c.13 0 .2 0 .19.07.26.63.51 1.27 1.36 1.3a1.57 1.57 0 0 1 1 .71c.09.36.38.93.25 1.06-.93.87-4.56.09-5.49-1.12a1.65 1.65 0 0 0 .3-.59c-.11.2-.18.41-.29.6-1.74 1.18-3.49 1.14-5.61 1-2.35-.2-4.84.45-7.33.34-1.78-.08-3.61.75-5.17-.78a.72.72 0 0 0 -.64-.09c-4 1.79-8.25.65-12.37 1a1.35 1.35 0 0 1 -1.56-1.42c.48-.54.55-1.27.93-1.92z" fill="#fcf8f9"/><path d="m49.53 63.02c-.45 1.92-1 3.46-3.34 2.51-.46-.19-1.19-.31-1.32.52s-.29 1.47.3 2a5.17 5.17 0 0 0 1.25.68c3.75 1.91 4.35 6.23 1.29 9.28-.66.66-5.72.77-6.33.1s.07-1.2.24-1.74.28-1.52 1.34-1.31a10.38 10.38 0 0 0 1.63.33c.72 0 1.71.57 2-.59a2 2 0 0 0 -.77-2.33c-.46-.31-1-.55-1.46-.81a5 5 0 0 1 -.52-8.76c1.86-1.26 3.79-.21 5.69.12zm23.21 15.45c-.59-.36-2.08.36-1.6-1.27.34-1.17.46-2.62 2.43-1.93.83.29 1.93.62 2.7-.14.44-.44.24-1.21.08-1.83s-.71-.8-1.17-1.11c-1.59-1-4.13-1.1-3.8-4.09.24-2.12.66-4.05 2.34-5.5 1.07-1.07 2.42-.5 3.63-.51 1 0 2.23.25 2.17 1.66s-.6 2.49-2.24 2.57c-.55 0-1.24-.19-1.61.23-1.08 1.22.27 1.56.89 2.15l1.07.55a2.73 2.73 0 0 1 2.14 2.56 8.84 8.84 0 0 1 -.14 3.51c-.85 3.8-2.83 4.7-6.89 3.15z" fill="#c26969"/><path d="m17.55 110.6c-.67-1-.23-1.41.79-1.37 22.4.77 44.81.12 67.21.31 1.53 0 3.18.38 4.45-.94.78.62 2 1 1.44 2.4l-1.41.48c-7.91-.39-15.82-.15-23.72-.17h-44.82c-1.35-.06-2.76.23-3.94-.71z" fill="#fdfbfb"/><path d="m55.33 69.87c0 .61.05 1.41.11 2.2.18 2.23.94 3.8 3.65 3.46.6-.08 2-.39 1.68.89-.21 1-.27 2.59-2.07 2.38-1.42-.17-2.84-.36-4.27-.52a1.5 1.5 0 0 1 -1.3-1.23c-1-3.4-1.7-6.91-.54-10.34 1-2.88 2.75-5 6.74-4.08.58.13 1.77-.11 1.53.92s-.41 2.12-1.73 2.3a2 2 0 0 1 -.94-.11c-2.22-.82-2.91.26-2.87 2.28.02.55.01 1.1.01 1.85z" fill="#c26a6a"/><path d="m53.49 84.59h-.46a10 10 0 0 1 6.3 0c.47.62 1 1.18 1.79.48a3.13 3.13 0 0 1 2.53-1h22.43c.79 0 1.9-.36 1.91 1.09a3.37 3.37 0 0 0 -.61.12c.18.19.43 0 .64.13.26.88 1.21 1.18 1.75 2-.71.49-1.74-.56-2.19.52-.66-.07-1.42.22-1.92-.48a2.08 2.08 0 0 0 -1-.94h-.47a2 2 0 0 0 -1.38-1.43l-1 .95c-1-1-1.1.18-1.51.62a1.27 1.27 0 0 1 -1.5-.36c-.22-.18-.41-.56-.66-.5s-.16.49-.2.76c.13 1.53-.93 1.42-1.92 1.4-1.78-1.19-3.6.22-5.43-.11s-4.06 1-5.94-.87c-.46-.46-2.1.27-2.87.59-1.44.59-2.72-.44-4.08.24-.84.42-.82-.63-.88-1.24 0-.23.19-.47 0-.69-.12.18-.21.39-.32.58l-.61.07a1 1 0 0 1 -.95-.43 11.35 11.35 0 0 1 -1.45-1.5z" fill="#fcf8f9"/><path d="m91.89 62.6c-.3 1.61-.54 3.17-2.86 2.88-1.3-.16-.94 1-.95 1.72-.05 3.82-.05 7.65-.07 11.47-2.3 1.31-3.47.73-3.52-1.78s.06-4.94 0-7.41c-.06-1.56-.1-3.24-2.28-3.58a1.44 1.44 0 0 1 -1.16-1.81c.13-.91.55-2 1.47-1.91 3.11.47 6.29-.61 9.37.42z" fill="#c26a6a"/><path d="m91.89 62.6c-2.54 0-5.09.1-7.62-.1-2.15-.17-2.82.82-2.86 2.69 3.41.53 3.41.53 3.39 4.12v6.2c0 3.26 0 3.26 3.21 3.16.28 2.11-1.4 1.42-2.37 1.58-1.21.2-1.42-.63-1.41-1.64v-8.12c0-2.93-1.43-4.29-4.26-3.76a8.66 8.66 0 0 1 -2.48.19c-1.55-.14-1.61.67-.93 1.78-1.11-.11-2-.43-2-1.79 0-1.08.27-1.58 1.5-1.42 2.37.32 2.38.26 3.23-2.36a10.48 10.48 0 0 0 -5.56-.53c-.36-.78-.43-1.59.74-1.31 2.43.57 4.8-.37 7.24 0 2 .28 4 1.36 6.17.78 1.17-.32 2.32-.73 3.5-.16.25.08.34.44.51.69z" fill="#fcfafa"/><path d="m62.75 64.66c.65-2 1.74-2.83 3.91-1.94 1 .4 1.35.78 1.34 1.84-.06 4.14 0 8.27 0 12.41 0 1.15-.24 1.76-1.56 1.78s-1.54-.68-1.53-1.79v-8.83c0-2.4-.02-2.4-2.16-3.47z" fill="#c26969"/><path d="m88.56 137.4v.48h-69.6l-.48-.47c.89-.9 2.06-.78 3.16-.78h63.76c1.09 0 2.23-.12 3.16.77z" fill="#fdfafa"/><path d="m73.34 91.86c5 0 10-.08 15-.09.67 0 1.54-.18 1.51 1s-.86 1-1.55 1h-13.37c-1.07 0-1.66-.34-1.76-1.42a.92.92 0 0 0 .17-.49z" fill="#c36d6d"/><path d="m24.69 97.09c.11.46.26.91.34 1.37s.74 1.09 0 1.45-1.1 0-1.62-.58a2.22 2.22 0 0 0 -3.74 0c-.51.61-1.07.85-1.63.49s0-1 .11-1.47c.29-.91.62-1.8.93-2.7s.89-2 1.31-3a1.22 1.22 0 0 1 1.25-.88c.67 0 .93.38 1.15 1 .63 1.48 1.28 2.88 1.9 4.32z" fill="#c26a6a"/><path d="m65.11 91.96c1.19-.06 2.38-.13 3.57-.16.46 0 1 0 1.08.63s-.33.76-.86.86c-.68.13-1.79-.46-1.86.84s1 .86 1.73 1c.51.09 1 .18.88.85-.06.51-.44.56-.85.65-.67.14-1.75-.44-1.79.92s1 .9 1.72 1c.49.06 1 .07 1 .73 0 .87-.65.72-1.18.77-3.24.35-3.24.35-3.53-4.36z" fill="#c36b6b"/><path d="m72.74 78.47c4.94.5 7-1.44 6.66-6.18a3.86 3.86 0 0 0 -1.77-3.04c1.62-.82 2.68-.87 2.54 1.49-.1 1.66.21 3.33.19 5a4.77 4.77 0 0 1 -7.4 4.07c-.33-.27.61-1.02-.22-1.34z" fill="#fcfafa"/><path d="m45.81 91.81v6.87c0 .62.07 1.32-.9 1.31s-1-.65-1-1.31q0-3-.07-5.92c.25-1.24 1.17-.97 1.97-.95z" fill="#c57171"/><path d="m61.13 85.1c-.11.71-.3 1.48-1.22 1.23s-.77-1-.57-1.71a1.75 1.75 0 0 1 1.79.48z" fill="#cb8282"/><path d="m18.95 84.6c.63 1.11.31 1.75-1 1.92-.8-1.21-.86-2.04 1-1.92z" fill="#ca8180"/><path d="m89.01 85.45a.8.8 0 0 1 .95-.85.82.82 0 0 1 .84.94.84.84 0 0 1 -.94.86.9.9 0 0 1 -.85-.95z" fill="#c97e7d"/><path d="m56.53 86.46c-.23-.64-.78-1.33.23-1.79a.73.73 0 0 1 1 .31c.38.88-.18 1.3-.91 1.59a.51.51 0 0 0 -.32-.11z" fill="#c97d7d"/><path d="m88.03 85.47c-.44.45-.68 1.39-1.58.67a.8.8 0 0 1 -.18-1.22c.67-.73 1.23-.22 1.74.29a.23.23 0 0 0 .02.26z" fill="#c77878"/><path d="m95.84 65.71c.42.21 1.18-.09 1.22.67 0 .48-.37.78-.82 1a2.48 2.48 0 0 1 -.4-1.67z" fill="#f4e7e7"/><path d="m13.2 145.08c1.44 1.3.82 2.82.48 4.32-.97-1.35-.27-2.88-.48-4.32z" fill="#fefefe"/><path d="m18.96 131.17c-.7-.17-1.52-.25-1.37-1.28s1.08-.74 1.72-.75h68.59c.7 0 1.91-.56 2 .72s-1.06 1.14-1.9 1.28a3.69 3.69 0 0 1 -2.11.23h-64.9a4 4 0 0 1 -2.03-.2z" fill="#c46e6e"/><path d="m17.55 110.6c1 0 1.91-.13 2.86-.13h67.33c.88 0 2-.44 2.28 1a.57.57 0 0 0 0 .45c-.39.82-1.14.75-1.86.75h-69.53a1.3 1.3 0 0 1 -1.1-.32h.08c-.39-.23-.38-.54-.16-.88z" fill="#c36e6e"/><path d="m88.56 137.4c-1 0-1.91-.11-2.86-.11h-64.36c-1 0-1.91.08-2.86.13h-.48c-1-1.26-.89-2 .28-2.37a4.55 4.55 0 0 1 1.43 0h66.07c1.41 0 2.86-.19 4.18.57.09 1-.24 1.71-1.4 1.78z" fill="#c46f6f"/><path d="m19.44 106.25c7.19 0 14.39-.08 21.58-.09l48.93-.06a6.18 6.18 0 0 1 -4.52 1.58q-31.25-.06-62.49 0c-1.37-.03-2.77.11-3.5-1.43z" fill="#fdfbfb"/><path d="m25.12 68.94c.32 1.83.1 3.18-2.31 2.71-1.65-.32-2.07.55-1.93 2 .08.79 0 1.59 0 2.38 0 3-.28 3.18-3.32 2.26v-10.52a6.8 6.8 0 0 1 .46-2.8c.85-2 2.08-3.1 4.41-2.49 1.28.33 2.62.45 4 .67-.42 2.13-1.48 3.15-3.68 2.66-.83-.18-1.9-.8-1.95 1 0 1.48.28 2.31 1.95 2.07.63-.09 1.27-.07 1.91-.1q.45-.4.46.16z" fill="#c26b6b"/><path d="m89.96 135.58a20.14 20.14 0 0 0 -2.13-.22h-68c-1.2 0-3.22-.45-1.85 2-.91-.26-1.07-.7-1-2 .07-.85.3-1.33 1.27-1.3 23.19.9 46.38.34 69.57.38.52.03 2.45-1.01 2.14 1.14z" fill="#fdfafa"/><path d="m17.54 112.35h70.65a2.34 2.34 0 0 0 1.8-.46c-.13 1.2-1.05 1-1.82 1h-68.93c-.61.03-1.31.16-1.7-.54z" fill="#fdfbfc"/><path d="m33.95 99.84c-2.35.86-2.41-1.58-3.58-2.35-.53.09-.3.49-.36.75-.17.66.45 1.78-.94 1.73s-.86-1.11-.9-1.81a18.06 18.06 0 0 1 0-3.34c.13-1-.75-2.56.7-2.9s3.25-.59 4.4 1c.92 1.24.48 2.3-.43 3.42-1.32 1.57 1.27 2.05 1.11 3.5z" fill="#c26b6b"/><path d="m18.96 131.17c6.62 0 13.23-.09 19.85-.09q24.64 0 49.27.07c-.7.79-1.64.47-2.48.47h-64.15c-.82.01-1.82.32-2.49-.45z" fill="#fefefe"/><path d="m81.84 97.99h6.71c.61 0 1.36-.12 1.32.89 0 .85-.58 1-1.3 1h-13.94c-.7 0-1.29-.12-1.32-1s.65-.93 1.31-.94z" fill="#c36d6d"/><path d="m53.63 93.37c-1.84-.18-2.77 1-2.76 2.68s1.09 2.56 2.88 2.44c.48 0 1.27-.79 1.35.48.06 1-.71 1.24-1.38 1.27a4.34 4.34 0 0 1 -4-6.73 4 4 0 0 1 4.15-1.78c.71.07 1.24.29 1.21 1.13-.08 1.17-.78.71-1.45.51z" fill="#c26969"/><path d="m36.24 91.81h4.29c.39 0 .86 0 .88.56 0 .28-.16.8-.27.81-2.27.15-1.36 1.88-1.51 3-.1.78 0 1.59 0 2.38 0 .6.18 1.36-.81 1.4s-1-.76-1-1.48v-1.43c0-1.61.55-3.43-1.52-4.35-.11-.05 0-.6 0-.91z" fill="#c36d6c"/><path d="m58.29 95.91v-3.12c0-.5.08-1 .76-1s1.07.24 1.07.95v3.12c0 1.26-.5 2.9 1.81 2.69a.61.61 0 0 1 .54 1c-.89.92-2.1.29-3.17.42-.89.11-1.05-.47-1-1.2v-2.88z" fill="#c36d6d"/><path d="m25.12 68.94a.79.79 0 0 1 -.4-.16c-.13-1.08-1.46-.4-1.87-1.45.76 0 1.2-1 2.11-.46s.54 1.38.16 2.07z" fill="#fefefe"/><path d="m17.55 104.25c-.14 1.08 0 1.94 1.39 2-1 1.9-1.91 0-2.87 0a.91.91 0 0 0 0-1.44z" fill="#fdfbfb"/><path d="m16.88 72.25a7.51 7.51 0 0 1 -.15 3.7c-.84-1.45-.98-2.46.15-3.7z" fill="#fefefe"/><path d="m82.87 85.1c.51-.36 1.07-.87 1.65-.25s.09 1.16-.28 1.68a1.33 1.33 0 0 1 -1.37-1.43z" fill="#cb8181"/><path d="m80.48 86.48c-.49-.72-.88-1.54.31-1.83 1-.24 1.08.63 1.06 1.39l-.5.46a.55.55 0 0 1 -.43.27.63.63 0 0 1 -.44-.29z" fill="#c77878"/><path d="m78 86.57c-.56-.33-1.2-.64-.79-1.45a1 1 0 0 1 .75-.45c.84 0 1 .64.95 1.35a.65.65 0 0 1 -.45.43.85.85 0 0 0 -.46.12z" fill="#c57373"/><path d="m17.03 141.25-.48 1.44-1.29-2.06c.94-.38 1.2.5 1.77.62z" fill="#fefefe"/><path d="m80.86 86.58.49-.07c.48 2.51-1 1.24-1.91 1-.14-1.26 1.09-.4 1.42-.93z" fill="#fcf8f9"/><path d="m80.86 86.58-1.42.91c-.67 0-1-.41-1-1l.45-.43 1.58.47a.58.58 0 0 1 .39.05zm-63.41 24.9.16.88c-.59-.06-1.06.61-1.72.28a1.67 1.67 0 0 1 1.56-1.16zm-1.35-2.92c-.14-.1-.45-.24-.59-.48s.14-.45.37-.38a1.37 1.37 0 0 1 .76.45c.17.28-.12.39-.54.41zm68.62-22.02c.34-.12.67-.46 1-.1s0 .7-.08 1a.86.86 0 0 1 -.92-.9zm-68.64 18.22q1 .72 0 1.44-1.45-.72 0-1.44zm17.39-29.22a2.92 2.92 0 0 1 -.31-.69.42.42 0 0 1 .51-.52.61.61 0 0 1 .38.46c0 .16-.24.32-.58.75z" fill="#fefefe"/><path d="m42.4 38.25c.06-2.75 1.58-4.43 4-4.37 2.72.02 4.23 1.54 4.23 4.37 0 1.69-3.36 4.79-5.1 4.69s-3.19-2.17-3.13-4.69zm19.23.29c0 2.53-1.56 4.45-3.45 4.36s-4.74-3.19-4.73-5c0-2.65 1.46-4 4.22-4.06 2.38-.02 4.04 1.95 3.96 4.7z" fill="#fdfbfb"/><path d="m54.57 45.61c-.1 1-.57 2-1.54 1.48-1.18-.67-3.92 1.46-3.51-1.62a6.41 6.41 0 0 1 2.62-4.46c.26-.18 2.49 3.89 2.43 4.6z" fill="#fbf7f8"/><path d="m32.19 68.07c.57-.69-.79-2.17 1-2.31s1.69 1.27 1.55 2.4c-.12.9.85 2.42-1.11 2.5-2.16.09-1-1.66-1.44-2.59z" fill="#fcfbfb"/><path d="m25.18 85.53c-.1.54-.41.9-1 .84a.88.88 0 1 1 .13-1.75.79.79 0 0 1 .87.91z" fill="#c77777"/><path d="m20.4 85.52a.78.78 0 0 1 .83-.9.87.87 0 0 1 1 .8.86.86 0 0 1 -.85.94c-.57.06-.87-.31-.98-.84z" fill="#c77877"/><path d="m34.29 85.1c-.1.76-.34 1.47-1.29 1.22a.84.84 0 0 1 -.51-1.33c.57-.84 1.22-.27 1.81.11z" fill="#ca7f7f"/><path d="m40 84.66c.12.81.24 1.66-1 1.69a.76.76 0 0 1 -.75-.76c.06-1.2.93-1 1.72-.91z" fill="#c87a7a"/><path d="m27.31 86.46c-.68-.17-1-.5-1-1a.87.87 0 0 1 1-.82.78.78 0 0 1 .78 1c-.04.47-.46.61-.78.82z" fill="#cb8282"/><path d="m53.49 84.59c1.16-.16 1.62.37 1.48 1.5-.47.21-.91.57-1.44.1s-.36-1.06-.04-1.6z" fill="#ca7f7f"/><path d="m47.26 85.42a.79.79 0 0 1 .94-.81.82.82 0 0 1 .84.93.84.84 0 0 1 -.94.84.88.88 0 0 1 -.84-.96z" fill="#c97d7e"/><path d="m50.68 86.48c-.37-.62-.88-1.27.1-1.77a.78.78 0 0 1 1.14.52c.29 1-.52 1.14-1.25 1.23z" fill="#c67574"/><path d="m36.29 86.44c-.63-.17-1-.41-1-1a.84.84 0 0 1 .93-.81.82.82 0 0 1 .82.92c.02.57-.41.7-.75.89z" fill="#c57373"/><path d="m42.09 86.41a.89.89 0 0 1 -.77-1 .8.8 0 0 1 .93-.8.76.76 0 0 1 .73 1 .88.88 0 0 1 -.89.8zm3.08-.01a.94.94 0 0 1 -.83-1 .75.75 0 0 1 .89-.82.78.78 0 0 1 .82.91.87.87 0 0 1 -.88.91z" fill="#cb8282"/><path d="m30.9 84.64c.2.73.32 1.47-.64 1.7-.4.09-.76-.3-.78-.71-.05-1 .66-1.08 1.44-1z" fill="#c47171"/><path d="m74.13 85.42c0-.58.33-.88.91-.81a.86.86 0 0 1 .86.93.83.83 0 0 1 -.93.85.89.89 0 0 1 -.84-.97z" fill="#ca7e7f"/><path d="m68.07 85.52a.91.91 0 0 1 .86-.93.75.75 0 0 1 .91.81.89.89 0 0 1 -.82 1c-.55.05-.83-.34-.95-.88z" fill="#ca8080"/><path d="m66.11 86.43c-.64-.18-1-.44-1-1a.88.88 0 0 1 1-.8.76.76 0 0 1 .81.91c-.05.57-.51.71-.81.89z" fill="#c77879"/><path d="m63 86.4c-.51-.14-.87-.42-.84-1a.8.8 0 0 1 .95-.8.83.83 0 0 1 .83.93.89.89 0 0 1 -.94.87z" fill="#c87a7a"/><path d="m71.17 85.36a.77.77 0 0 1 1-.72.76.76 0 0 1 .63.86c0 .54-.3.92-.87.87s-.75-.49-.76-1.01z" fill="#c77878"/><path d="m21.42 94.31c.77 1.26 1.36 1.89.61 2.65a.88.88 0 0 1 -.87 0c-.76-.82.19-1.38.26-2.65z" fill="#f7eded"/><path d="m31.88 94.35a1.16 1.16 0 0 1 -1.18 1.21c-.71.07-.71-.48-.7-.94s-.22-1.37.82-1.3a1.05 1.05 0 0 1 1.06 1.03z" fill="#f8f1f1"/></svg>