<svg width="106.93" height="158" xmlns="http://www.w3.org/2000/svg"><title>background</title><path fill="none" d="M-1 -1H107.93V159H-1z"/><g><title>Layer 1</title><path fill="#e1b7b7" d="M.014 1.69A1.8 1.8 0 0 1 2.104.05h101c.7 0 1.44-.22 2.09.26a2.61 2.61 0 0 1-1.61.18h-99.8c-.49 0-1 .18-1.23 0h103.51c.94.33 1.09 1.16 1.22 2a8.53 8.53 0 0 1 0 1.32V114.38a2.7 2.7 0 0 1-.17 1.61c-.56-.67-.7-3.49-.41-6.53-.07 1.54-.07 3.07-.07 4.61 0 .55.1 1.18-.78 1.1-1.26-.75-2-3.07-1.66-5a13.74 13.74 0 0 1 .69-2.21 5.49 5.49 0 0 0-.6-5.37 3.25 3.25 0 0 1-.4-3.41 5.46 5.46 0 0 0-.43-5.23 4.27 4.27 0 0 1-.44-3.8 6.74 6.74 0 0 0-.25-5 5.34 5.34 0 0 1-.26-4 4.88 4.88 0 0 0-.85-4.39 8.65 8.65 0 0 1-1.43-3.15 5.64 5.64 0 0 0-3-3.74 4.07 4.07 0 0 1-2.19-4.67c.25-1.17-.76-1.92-.81-3a8.73 8.73 0 0 1-.15-1.93c.12-1.58.15-3.21 1.61-4.29a19.51 19.51 0 0 1 3.12-.14 5.87 5.87 0 0 0 4.74-2.24 2.3 2.3 0 0 0 .74-2.66 14.23 14.23 0 0 0-3.8-6.33 39.25 39.25 0 0 0-5.08-4.66c-.66-.52-1.56-.9-1.62-1.94a1.77 1.77 0 0 1 .28-.77c.78-1 .7-1.75-.66-2.17-.61-.19-.86-.82-1.07-1.4-.38-1-.66-2.1-1-3.15a1.77 1.77 0 0 1 .41-2 3.29 3.29 0 0 0 .88-3.49c-.94-4.45-.38-3.77-4.94-4.31-1-.12-2.09 0-3.14-.05a2.68 2.68 0 0 0-3.15 2.13c-.25.72.15.9.68 1 1.32.21 1.69 1.1 1.66 2.27-.05 1.76.23 3.52-.2 5.26-.49.64-.88.09-1.24-.14-1.6-1-3.26-2-4.9-2.94-.26-.16-.53-.31-.8-.45l-.63-.3c-1.15-.66-2.64-.73-3.47-2-.19-.77.12-1.17.9-1.19a13.32 13.32 0 0 1 1.64.15 3 3 0 0 0 3.29-2.32c.16-.66-.24-.75-.7-.83-1.84-.33-3.68-.64-5.54-.86a1.85 1.85 0 0 0-1.89 1c-.6.9-.91 2-1.92 2.63-2 0-3.84-.9-5.79-1.22-.86-.31-1.78-.4-2.62-.79a3.86 3.86 0 0 0-5.26-.71 12.09 12.09 0 0 1-2.77-.23 1.85 1.85 0 0 1-1.14-.92c-.16-.07.42-.47-.25-.4-3.06.34-6.13.09-9.19.15-.62 0-1.12-.47-1.83-.33.35.19.81 0 .91.48a4.21 4.21 0 0 1-.71 2.5c-1.08.91-2.5.94-3.74 1.45a.88.88 0 0 1-.47-.1 1.58 1.58 0 0 1-.32-1.08c-.05-1.61-.93-2.27-3.16-2.37-.79 0-2.37 1.41-2.54 2.29-.13.66.38.72.77.86.92.31 1.59.78 1.43 1.9a1.83 1.83 0 0 1-.73.64c-1.2.54-2.19 1.52-3.56 1.71-2-.06-2.1-.15-2.21-2.15a34.3 34.3 0 0 1 0-3.79c.08-1.35-.49-1.93-1.81-1.9a16.34 16.34 0 0 1-1.81 0c-.6-.05.05.36-.16.47-.47 1.8-.2 3.63-.29 5.44-.08 1.62-.48 2.06-1.9 2.1s-2.23-.53-2.36-2.1c-.08-1 0-2-.05-3a2.59 2.59 0 0 0-2.82-2.16 2.82 2.82 0 0 0-2.11 2 .78.78 0 0 0 .38.85c1.24.74 1.24 1.94 1.24 3.19v9.6a1.93 1.93 0 0 0 2.91 1.78c.52-.25.47-.69.45-1.13a35 35 0 0 1 0-4c.11-1.63.83-2.1 2.7-2.14 1.64 0 1.52 1.09 1.55 2.13 0 1.43 0 2.87.07 4.3a2.63 2.63 0 0 0 1.32 2.98 17.9 17.9 0 0 0 7.37 5.93 7.71 7.71 0 0 1 1.87 1c-.18 2 1.12 3.68 1.22 5.62a7.25 7.25 0 0 1 .26 3.83 4.48 4.48 0 0 0-.47 5.28c-.51 1.11-1.63 1.41-2.58 1.91-1.71.89-3.45 1.7-5.22 2.47-.34.15-.75.25-.89.81.83.52 1.87.45 2.75.86 1.11.49 1.07 1.06 0 1.52-2.27 1-4.46 2.19-6.76 3.13-1.44.59-3 .08-4.41.51a9.53 9.53 0 0 0-4.93 2.92 19.36 19.36 0 0 0-2.07 3.44c-.24.82-.08 1.69-.3 2.52-.49 1.78 0 3.52.29 5.24.46 2.72.93 5.44 1.38 8.16.23 1.33.38 2.68.68 4 .44 2.26.74 4.54 1.21 6.8.15.69.2 1.44.92 1.84a122.37 122.37 0 0 0 12.36 3.65c3.82.86 7.62 1.78 11.43 2.69 4.44 1.1 8.89 2.1 13.36 3.1a13.06 13.06 0 0 1 1.74.52 8.62 8.62 0 0 1 3.45 5 3.48 3.48 0 0 1-1.19 2.55c-7.58 3-15.12 6.2-22.75 9.12a10.09 10.09 0 0 0-1.64.78 45.28 45.28 0 0 0-16.28 11.87c-2.41 2.65-4.58 5.51-6.83 8.29a5 5 0 0 1-1.4 1.38 1.88 1.88 0 0 1-.69.15h-2.6c-.93 0-1.57-.34-1.66-1.35a4.4 4.4 0 0 0 .13-1.8V3.51a4 4 0 0 0-.14-1.82z"/><path fill="#774242" d="M107.514 116.7c.35.44.2 1 .2 1.44v36.76c0 .47.19 1-.23 1.41a1.12 1.12 0 0 1-.36-.48c-.3-4.85 0-9.7-.14-14.55a18 18 0 0 0-.11-3.77c-1.73-.78-3.59-.37-5.38-.61-5.25-.71-10.55-1-15.81-1.69a5.9 5.9 0 0 0-1 0c-1.56.06-2 .6-1.3 2 1.93 3.85 3.69 7.79 5.67 11.61.33.64.69 1.26 1 1.9a5 5 0 0 1-2.65 6.69h-46.87c-.8.07-1-.27-.58-.94a13.12 13.12 0 0 1 1.93-2.24c2.93-2.65 5.65-5.52 8.32-8.43a5.28 5.28 0 0 0 1.4-1.15c3.86-3.87 7.75-7.73 11.56-11.65a8.84 8.84 0 0 1 3-2.25c12.08-4.76 24.07-9.74 36.17-14.47a8.53 8.53 0 0 1 3.07-.67c.84.15 1.4.77 2.11 1.09z"/><path fill="#5e3434" d="M87.904 157.2a2.76 2.76 0 0 1 .27-.58c2.68-3.36 2.58-4 .49-7.76s-4-8-6-12c-.65-1.35-.08-2.21 1.42-2.1 3.88.29 7.75.78 11.63 1.07 3.34.25 6.63 1 10 .85a1.29 1.29 0 0 1 1.4.7 4.07 4.07 0 0 1 .16 2c.08 5.52-.12 11 .1 16.57l.1.45c0 .46-.37.67-.66.94a4.68 4.68 0 0 1-2.12.15h-15.21c-.52-.1-1.08.12-1.58-.29z"/><path fill="#c26b6c" d="M87.904 157.2h18.92c-.4.59-1 .32-1.52.32H5.974c-.57 0-1.22.28-1.7-.3l.41-.32c4-.45 8.09-.14 12.13-.2 4.3.13 8.6 0 12.9.07a2.06 2.06 0 0 0 2.23-1.51 64.4 64.4 0 0 1 9-15.95 73.88 73.88 0 0 1 10.92-11.48c.37-.32.8-.9 1.39-.25-.8 3.2-1.21 6.41-4.35 8.64-6.51 4.61-10.41 11.09-12.21 18.84-.36 1.54-.23 1.64 1.41 1.72.59 0 1.23-.1 1.72.39l48.08.03z"/><path fill="#dfb1b1" d="M.014 1.69c.51.51.3 1.15.3 1.73v150.74c0 .58.21 1.23-.29 1.74v-1.33V2.68c-.04-.33-.02-.66-.01-.99z"/><path fill="#ddaeae" d="M106.134.35v.32H1.754a3 3 0 0 1 2-.31H105.234l.9-.01z"/><path fill="#c26c6c" d="M105.404 114.8v1.08c-5.68 1.43-10.9 4.05-16.32 6.18-7.39 2.9-14.73 5.94-22.14 8.79-2.52 1-4 3-5.8 4.76-3.41 3.31-6.72 6.73-10.07 10.09-.2.2-.37.63-.79.27s-.13-.73 0-1.1c2.3-7.44 6-14.17 10.24-20.67a5.68 5.68 0 0 1 2.74-1.07c7.73-1.8 15.37-3.92 23.1-5.72a2.5 2.5 0 0 0 1.88-1.22c.89-1.84 2.21-3.43 3.05-5.29s1.95-3.45 2.68-5.31a12.85 12.85 0 0 0 .51-8.73 2.69 2.69 0 0 1-.06-2.09c1.89-2.83 4-5.49 6.06-8.22a5.16 5.16 0 0 0 1.2-3.48c-.06-1.32 0-2.64 0-4 0-.29.1-1.14-.67-.44-.26 2 .31 4.1-.37 6.09q-3.09 4.12-6.2 8.23c-.34.45-.66.9-1.33.69-1-.66-2-1.27-2-2.66.79-6 1.52-12 2.44-18 .38-2.49-.35-4.69-1.17-6.92-.33-.9-1.15-1.11-2-1.26-1.92-.15-3.87-.23-5.44-1.59-2 .53-3.93-.55-5.92-.54a1 1 0 0 1-.62-.22c-1.8-1.58-4-1.4-6.13-1.31-6.08.23-12.14 0-18.21-.33a126.12 126.12 0 0 0-19.34.89c-.76.08-1.43.66-2.24.37-.86-.72-2.06-1.35-.63-2.64.24-.22-.1-.47-.19-.71-.46-1.14 0-1.65 1.18-1.65a2.28 2.28 0 0 1 1.56-.79 139.55 139.55 0 0 1 18.1-2 59.39 59.39 0 0 1 9.58.55 135 135 0 0 0 14.55.57 1.84 1.84 0 0 0 1.89-.79c.29-.5.82-1 1.35-.79 1.62.61 3.59.2 4.94 1.55a1.88 1.88 0 0 0 2.11.39c.92-.25 2-.67 2.73.37.21.72-.38.92-.8 1.26a3 3 0 0 0-1 3.53q.85 1.92 2.43.53c.39-.34.61-1 1.32-.75.58 1.82 1.21 2.17 3 1.64.34.54.32 1.25.93 1.68a1 1 0 0 1 .27 1.06c-.7 2.25-.16 3.4 1.9 4.53a5.66 5.66 0 0 1 3.12 4.22 5 5 0 0 0 1.05 2.34c1.13 1.57 1.79 3.32 1 5.26a4 4 0 0 0 .2 3.32 6.87 6.87 0 0 1 .24 5.89 2.87 2.87 0 0 0 .36 2.83 5.85 5.85 0 0 1 .5 6.24 1.9 1.9 0 0 0 .23 2.26 5.6 5.6 0 0 1 .88 6.18 7.54 7.54 0 0 0 .12 6.65z"/><path fill="#b06262" d="M103.814 53.76c-.84 2-2.68 2.4-4.54 2.6a29.47 29.47 0 0 1-3.43 0 3.09 3.09 0 0 1-2.23-.81c-2.53-2.68-5.78-4.22-9.13-5.54a77.44 77.44 0 0 0-13.77-4.16c-2.93-.56-5.92-.63-8.88-.9a85.36 85.36 0 0 0-16.34.4 40.4 40.4 0 0 0-11.76 2.6c-1 .42-1.55-.07-2.23-.49-3.7-1.5-7.21-3.27-9.3-6.94-.38-1.07.21-1.58 1.1-1.91a2.83 2.83 0 0 0 2.67-3.08 1.16 1.16 0 0 1 0-2 29.26 29.26 0 0 1 4.58-2.92c.89-.54 1 .39 1 .95.12 1.6 0 3.2.05 4.8a2 2 0 0 0 3.11 1.83c.6-.31.61-.86.61-1.42v-5.79c0-1.93.3-2.33 2.26-2.86 1.17-.31 2.35-.63 3.53-.87.75-.15 1.53-.35 2.16.35.57 1.33.24 2.73.32 4.1.12 2-.23 4.08.24 6.1a2.22 2.22 0 0 0 2.61.33c.86-.34.45-1.27.46-1.94v-7.13c0-2 .54-2.53 2.54-2.68a29.23 29.23 0 0 1 4 0c1.84.11 2.29.63 2.37 2.47.1 2.37-.21 4.74.16 7.1a3.92 3.92 0 0 0 4.15 2.08 11 11 0 0 1 2.31 0 1.25 1.25 0 0 0 1.42-.84c.75-1.64.67-1.82-1.13-2a7.93 7.93 0 0 1-2.08-.53 1.51 1.51 0 0 1-1-1.19 30.33 30.33 0 0 1 0-5.25 1 1 0 0 1 1.23-1 48.4 48.4 0 0 1 6.9 1.39 1.36 1.36 0 0 1 .7.67c.57 1.55.26 3.16.3 4.75.09 3 1 3.94 4 4a21.71 21.71 0 0 1 2.64.11 1.33 1.33 0 0 0 1.51-.75c.29-.59.87-1.23.61-1.81s-1.09-.2-1.67-.24a7.18 7.18 0 0 1-2.73-.58c-1.24-.78-1.13-2-.79-3.09s1.52-1 2.41-.88a19.84 19.84 0 0 1 7.82 2.93 1.93 1.93 0 0 1 .78 1.73c.23 3 .23 3 3.19 2.9.1 0 .23 0 .29-.12 1.09-1.61 1.09-1.61 2.72-.5l.39.26c6.2 3.85 11.91 8.17 13.87 15.77z"/><path fill="#9c5757" d="M94.844 94.88a1.44 1.44 0 0 0 0 1.4c1.61 4.46.38 8.53-1.79 12.45-.45.81-1 1.58-1.48 2.37-.66 1.06-1.77 1.14-2.84 1.29a.81.81 0 0 1-1-.75c.42-1.58 1.17-3.08.73-4.82a4.25 4.25 0 0 0-2.76-3.24 6.66 6.66 0 0 0-2.08-.54c-5.12-.12-9.54 1.47-12.9 5.49a4.63 4.63 0 0 0-1 4.49c.16.56.44 1.18-.2 1.67-2.24.57-4.39-.24-6.53-.56-10.09-1.5-20.19-2.95-30.26-4.6-3.7-.6-7.45-.89-11.12-1.66a10 10 0 0 0-3.29.19 40 40 0 0 1-5.75.5.94.94 0 0 1-.94-.91c-.4-2.71-.89-5.4-1.34-8.1-.45-1.09 0-1.63 1.08-1.92a7.09 7.09 0 0 1 5 .21c2.87 1.26 5.76 2.33 8.26 4.42a6.21 6.21 0 0 0 7.12 1 7.23 7.23 0 0 1 6.2-.47 5 5 0 0 0 4.45-.38 17.69 17.69 0 0 1 7.65-1.94 3.17 3.17 0 0 0 2.71-1.6 4.34 4.34 0 0 1 4.46-2.17c2.91.19 5.83.41 8.76.41a5.17 5.17 0 0 0 4.52-1.86 3.43 3.43 0 0 1 1.15-.94 4 4 0 0 1 1.34-.25c3.38-.73 6.92-.47 10.51-1.54-.81-.88-1.46-.46-2-.4-1.62.18-3.24.62-4.82-.19 0-1 .84-1.06 1.46-1.32a16.32 16.32 0 0 1 11.47-.43 9.41 9.41 0 0 0 2 1c-.1 1.24 1.36 1.36 1.67 2.32a11.68 11.68 0 0 1 1.56 1.38z"/><path fill="#c26c6c" d="M89.854 90.55a29.53 29.53 0 0 0-7-.65 14.6 14.6 0 0 0-6.3 2c-1.18 1.35-2.86.86-4.32 1.15-6.65.53-13.32.87-20 1.41-9.12.75-18.3 1-27.33 2.65a5.86 5.86 0 0 1-3.38-.42c-1.74-.7-3.52-1.32-5.22-2.1a5.68 5.68 0 0 0-5.51.41 10.55 10.55 0 0 1-1 .52l-.28.07a83.94 83.94 0 0 1-1.6-8.83c-.26-1.59-.8-3.21 0-4.83a.88.88 0 0 1 .23.24c.41.6-.13 1.71.58 1.93s1.48-.59 2.19-1a16.1 16.1 0 0 0 5.68-4.45c.35-.48.81-1.09 1.48-.73s.27 1 .15 1.5c-.7 3-.12 4.56 2.46 6.29 2.24 1.5 4.62 2.81 6.79 4.43 1.09.81 1.76.55 2.27-.66.43-1 1-2 1.46-3 .34-.71.15-1.16-.62-1.36a25.83 25.83 0 0 1-2.54-.74c-1.25-.47-1.35-1-.26-1.8 1.58-1.11 3.22-2.13 4.87-3.12a2 2 0 0 0 1.16-2.26 5.5 5.5 0 0 1 .18-3.26 1.16 1.16 0 0 1 .45-.32 78 78 0 0 1 10.54-.11 1.63 1.63 0 0 1 .51.14c.76.55.32 1.06-.1 1.51a22.77 22.77 0 0 1-2 2.18c-2.23 1.88-3.44 4.42-4.71 6.93-.68 1.34-.59 1.53.94 1.83 2.8.56 5.72.72 8.22 2.33a.71.71 0 0 0 1.13-.23 1 1 0 0 1 1.75-.31c1 .85 2-.15 3 0a3.78 3.78 0 0 1 .43 2.38c0 1.64.11 1.7 1.72 1.28a1.74 1.74 0 0 0 1.11-.52c-.86-1.31-2.62-1.75-3.33-3.22 1.18-2.28 2.28-2.6 4.16-1a6.7 6.7 0 0 0 3.74 1.58c2.63.27 5.28.36 7.91.67a3.28 3.28 0 0 0 1.94-.45c3-1.58 6.1-3.13 9-4.92 2.23-1.38 3.55-3.74 5.22-5.71.55-.64.22-1-.55-1a8.5 8.5 0 0 0-2.83.87c-.86.36-1.68.87-2.68.53a2.45 2.45 0 0 1-.37-1.57 6.6 6.6 0 0 0-1.88-3.94c-.2-.73.41-.81.83-.93 1.29-.37 1-.95.31-1.67a9.68 9.68 0 0 1-1.3-1.66c-.3-.46-.58-1 0-1.44 2.67-1.46 5.41-2.37 8.5-1.35a5.28 5.28 0 0 0 3.54-.37c.5-.19 1-.58 1.55-.39a9.36 9.36 0 0 1 2.08 6.75c-.66 5.62-1.51 11.22-2.18 16.85a2.81 2.81 0 0 1-.79 1.89z"/><path fill="#774242" d="M12.524 108.56c2-.84 4.16-.68 6.24-1.06 3-.56 6 .43 8.92.8 5.65.71 11.27 1.65 16.9 2.51 6.06.93 12.11 2 18.19 2.81a40.66 40.66 0 0 0 6.85.83.66.66 0 0 1 1 .06c2.65 2.67 6 3.05 9.31 2.13 2.78-.77 5.48-2.11 7.1-4.82a.66.66 0 0 1 .84-.35c.05.6.39.7.9.53l2.76-.9c-.64 2.23-2.3 3.91-3.26 6-.26.55-1 .6-1.6.74q-12 3-24 5.95a5.77 5.77 0 0 0-2 .71c-1.35-.7-2.85-.6-4.29-.87-.58-.11-1.21 0-1.68-.5-.4-2-2-3.13-3-4.68-1.79-1.08-3.87-1.12-5.83-1.58-3.14-.74-6.29-1.44-9.46-2a202.59 202.59 0 0 1-23.89-6.31zm40.54 19.16c-1.77.68-2.88 2.22-4.17 3.45a65.1 65.1 0 0 0-16.43 24.13 2.59 2.59 0 0 1-3 2c-4.08-.16-8.18-.07-12.26-.09a1 1 0 0 1-.29-.91 29.13 29.13 0 0 0 .19-5.45 4.91 4.91 0 0 1 2.39-4.4c3.59-2.47 7.11-5 10.64-7.57a10.77 10.77 0 0 0 .89-.74c.48-.43.54-.7-.14-1.08s-1.87-.45-1.75-1.73c3.66-1.76 7.5-3.11 11.26-4.63 4.43-1.79 8.88-3.53 13.32-5.3.26 1.36.14 1.79-.65 2.32z"/><path fill="#5e3434" d="M32.494 62.06c2.78-1.39 5.85-1.17 8.81-1.44a91.51 91.51 0 0 1 14.84-.21c6.12.43 12.22.34 18.34.22 1.38 0 3-.12 4 1.43.05.09.21.21.25.19 1.67-.88 3 1.3 4.73.5a4.62 4.62 0 0 1 1.8 0c.35 1.21-.72 1.2-1.33 1.4-2.84.9-5.69 1.76-8.61 2.39a96.42 96.42 0 0 1-13.73 2.07 3.16 3.16 0 0 1-.53.11 14 14 0 0 0-2.62.53c-3-.24-5.91.49-8.88.24a40.26 40.26 0 0 0-7.1.22 3.14 3.14 0 0 1-.55-.11 11.55 11.55 0 0 0-3.33-.11 73 73 0 0 1-9.26-.36c-1-.09-1.84-.68-2.83-.75s-1.83-.33-2.73-.57-.9-.76-.15-1.19c.95-.54 1.95-1 2.94-1.47a43.77 43.77 0 0 0 5.94-3.09z"/><path fill="#5e3434" d="M94.564 62.35c-.11.47.05 1.19-.9.8-1.14-.46-2.83-.35-2.17-2.41a8.84 8.84 0 0 0-1.93-4.36c-1-1.07-2.17-.42-3.12 0-.72.35-1 .29-1.49-.28-.74-.86-1.53-1.7-2.92-1.21-.42.15-.91-.23-1.33-.53-.87-.64-1.78-.4-1.93.56-.17 1.13-1 1-1.51 1-4.49-.07-9-.09-13.46-.43-3.3-.25-6.6-.76-9.91-.74a102.28 102.28 0 0 0-17.17 1.66c-1.29.23-2.58.43-3.86.65l-.46-4.28c-.32-3.11-.16-3.36 2.73-4.23a65.84 65.84 0 0 1 17.3-2.55 83.45 83.45 0 0 1 18 1 63.26 63.26 0 0 1 18.82 6.61c.53.29 1 .63 1.54 1 2.07 1.42 3.7 3.11 3.67 5.85l.1 1.89zm-41.5 65.37l.66-2.32 1-2.31c1.66-.22 3.26.44 4.91.34.67 0 1 .42 1.06 1-1.4 2.43-2.7 4.93-4.21 7.29-2.28 3.57-3.61 7.53-5.12 11.43-.36.92-.7 1.85-1 2.78a43.11 43.11 0 0 1-6.42 6.9c-1.48 1.36-2.8 2.86-4.14 4.34h-.16c-4.12.14-4.18.12-3-3.77 2.23-7.58 6.34-13.84 13-18.25a3.76 3.76 0 0 0 1.63-2.18c.5-1.74 1.13-3.48 1.79-5.25z"/><path fill="#c26c6c" d="M71.624 94.56a6.28 6.28 0 0 1-6.06 3.05c-3-.17-6-.41-9.06-.45-1.26 0-2.36.18-2.9 1.35-1 2.13-2.87 2.56-4.85 2.61a11 11 0 0 0-5.82 1.56c-2.21 1.44-4.32 1-6.43.27a4.18 4.18 0 0 0-3.6.35c-3.45 2-6.68 1.19-9.38-1.25s-6-3.11-9.13-4.36c-1.18-.47-2.57.27-3.82.64-.47.14-.24.78-.31 1.2a12 12 0 0 1-.68-4l.1-.07a3.82 3.82 0 0 0 2.58-.19 4.48 4.48 0 0 1 3.85.1c.6.28 1.29.38 1.86.71 3.57 2.05 7.3 2 11.23 1.26 6-1.16 12.18-1.22 18.29-1.7 7-.55 14.1-.92 21.13-1.55 1-.05 2.08-.31 3 .47z"/><path fill="#9c5757" d="M34.134 74.3a16.43 16.43 0 0 0 .27 3.61c.27.82-.24 1.28-.94 1.7-1.93 1.14-3.81 2.35-5.71 3.54a5.23 5.23 0 0 0-.59.56c1.48.43 2.76.85 4.07 1.15.77.18 1.11.4.7 1.2-.8 1.57-1.6 3.15-2.36 4.74-.29.6-.65.7-1.17.36-3.09-2-6.34-3.81-9.21-6.1-1.51-1.21-2.61-3.17-1.47-5.43a8.12 8.12 0 0 0 .42-1.36c-.46-.39-.72 0-.87.19-1.84 3-4.95 4.29-7.78 6-.85.5-1.62.51-1.55-.86v-1.66c.21-.86-.27-1.82.35-2.63 1.32.31 2.52 1.12 4 .86s2.75-1.09 2.73-2-1.23-1.73-2.76-2c-.65-.11-1.32.28-1.93-.16a8.9 8.9 0 0 1 5-3 2.64 2.64 0 0 1 2.84.78 2.38 2.38 0 0 0 2.45.47c1.36-.44 2.8-.59 4.16-1a3 3 0 0 1 1.36-.13 39.13 39.13 0 0 0 5.89.44c.72-.08 1.61-.17 2.1.73z"/><path fill="#fefefe" d="M26.824 35.61c-.3 1.25-1.26 2.1-1.91 3.14a.8.8 0 0 1-1.37.06c-.89-.3-2 0-2.64-1-.77-1.69-.15-3.46-.34-5.19-.07-.6.24-1.46-.93-1.19-.89.2-2.32-.58-2.35 1.21s0 3.31.08 5c0 .78 0 1.17-1 1.2-3.46.09-3.46.14-3.46-3.34v-9.61c0-1-.27-1.73-1.33-1.93-.84-.16-1-.53-.47-1.22a4.6 4.6 0 0 0 .26-.42c1.55-2.38 2.78-2.67 5.28-1.29.54.3.57.76.57 1.27v4c0 1.52 1 1.22 1.95 1.29s1.42-.24 1.37-1.29c-.07-1.49 0-3 0-4.47 0-.61-.08-1.25.66-1.54a4.08 4.08 0 0 1 2.86-.26c.84.09 1.12.75 1.11 1.56 0 2.57 0 5.13.15 7.69a6.79 6.79 0 0 1-.11 1.74c-.44 1.17.15 2.34 0 3.52 0 .87 1.2.61 1.62 1.07z"/><path fill="#5e3434" d="M29.154 135.33a4.72 4.72 0 0 0 2.25 1.42c.88.14 1.32.55.32 1.35-2.65 2.13-5.43 4.07-8.25 6a56.56 56.56 0 0 0-5.23 4 3.18 3.18 0 0 0-.71 2.45 34.15 34.15 0 0 1-.35 6.74H5.864c-.42 0-.89.1-1.22-.3 3.49-3.87 6.44-8.21 10.15-11.91a43.52 43.52 0 0 1 14.36-9.75z"/><path fill="#fefefe" d="M83.184 31.61v-5.8c0-1.11-.34-1.67-1.52-1.59s-1.5-.26-.89-1.53c1-2 2.07-3 4.5-2.48a32.46 32.46 0 0 0 5.75.41 1.13 1.13 0 0 1 1.16.95 22.24 22.24 0 0 1 1 4.84 2.25 2.25 0 0 1-1 2.28 1.65 1.65 0 0 0-.5.42c-.49.74 1.15 5.44 2 5.76 1.87.69 1.87.7.77 2.42-.21.32-.43.64-.64 1-.4 1-1.21.94-2 .72a23.28 23.28 0 0 1-2.23-.82 16.84 16.84 0 0 1-1.67-3.5 12.42 12.42 0 0 0-.2-1.46 2.63 2.63 0 0 1 0 1.35 15.67 15.67 0 0 1-.66 4.1c-1.26 0-2.81.51-3.68-.18s-.23-2.36-.34-3.59c-.08-.91-.58-1.8-.24-2.75a1.3 1.3 0 0 1 .39-.55z"/><path fill="#c16b6b" d="M94.474 60.41c-.62-2.94-2.58-4.84-5.08-6.22a62.18 62.18 0 0 0-21.38-7.1 90.2 90.2 0 0 0-17.19-.54 62.83 62.83 0 0 0-15.31 2.37c-2.93.89-2.93.88-3.08 3.86-.49-1.1-.09-2.48-1.38-3.39-.74-.52.93-1.12.43-1.94 2.22.51 4.06-.88 6.11-1.25 3-.54 6-1.06 9.08-1.48s5.82-.11 8.73-.49a34.78 34.78 0 0 1 8.06.3 70.35 70.35 0 0 1 9 1.19 84.27 84.27 0 0 1 9.71 2.89 43.59 43.59 0 0 1 6.77 2.93c1.78 1.06 3.63 2 5 3.66a4.93 4.93 0 0 0 1.94 1.14 6.11 6.11 0 0 0-1.41 4.07z"/><path fill="#fefdfd" d="M73.284 34.46c1.64.56 3.36.28 5.09.44a15 15 0 0 1-1.21 3.26.85.85 0 0 1-1.15.61 14.13 14.13 0 0 0-4.09-.26c-2.36-.08-3.52-1.19-3.57-3.54 0-1.81 0-3.62-.06-5.43a5.34 5.34 0 0 1-.46-2.35c.08-1.09-.3-2.25.44-3.24 2.23-4.34 2.23-4.34 7.01-3.44.7.13 1.4.28 2.11.36 2 .23 1.88.26 1.06 2-1 2-2.34 2.52-4.39 2-.52-.14-1.53-.65-1.46.71s.68 1.73 1.88 1.58c.59-.07 1.15.26 1.75.1l.43.38a3 3 0 0 1 .39 1.97c0 1-.39 1.58-1.51 1.39a4.12 4.12 0 0 0-1.31 0c-.59.1-1.55-.41-1.68.47s-.48 1.94.28 2.79c.08.14.3.14.45.2z"/><path fill="#fefefe" d="M43.114 38.45l-.06-10.89a2.5 2.5 0 0 1-.44-1.6.94.94 0 0 0-1-1.21c-.44 0-.88 0-1.32-.07-1.52-.19-1.72-.66-.92-2a6.83 6.83 0 0 1 .74-2.32 1 1 0 0 1 .73-.35c3.09-.05 6.18-.07 9.28 0a1 1 0 0 1 .59.29c.33.22.8.23 1 .66-.2 2.61-.7 3.27-3.07 3.86a1.29 1.29 0 0 0-1 1.08 20.41 20.41 0 0 0-.37 5.39v6.26c0 .58.07 1.17-.75 1.13a10.46 10.46 0 0 1-3.41-.23z"/><path fill="#fdfdfd" d="M61.014 34.47a13.37 13.37 0 0 0 4 .4 14.31 14.31 0 0 1-1 3.38.63.63 0 0 1-.88.49 7 7 0 0 0-3.1-.21 4 4 0 0 1-4.27-2c-.5-1.27-.13-2.59-.19-3.89-.11-2.24.18-4.51-.36-6.73a2.23 2.23 0 0 0-.54-1.33c-1.67-1.52-1.65-1.83.05-3.29a1.51 1.51 0 0 1 2.06-1 22.26 22.26 0 0 0 2.52.66c.81.14.58.6.44 1.07a9.58 9.58 0 0 1 .28 5.3c-.3 2.13-.06 4.25-.16 6.38-.05.79.71.56 1.15.77z"/><path fill="#fefefe" d="M31.404 25.61c-.09-1.15-.87-1.54-1.85-1.68s-1.26-.55-.59-1.4a12.92 12.92 0 0 0 1.13-1.61 1.49 1.49 0 0 1 2-.8l.31.1c3.05.72 3.05.72 3 3.71a5.54 5.54 0 0 1 .44 4 56.33 56.33 0 0 0-.26 9c0 1.39-.4 1.76-1.76 1.71-2.59-.1-2.67 0-2.57-2.65.11-2.81-.3-5.58-.33-8.37a3.12 3.12 0 0 1 .48-2.01z"/><path fill="#c16b6b" d="M89.564 38.1a11.26 11.26 0 0 1 2.36.45 1.8 1.8 0 0 0 1.9-.34c3.63 2.86 7.33 5.65 9.69 9.78a8.5 8.5 0 0 1 1.29 4.53c0 .69-.2 1.2-1 1.24a3 3 0 0 1-1.4-2.41 6.94 6.94 0 0 0-1.81-3.74c-3.03-3.95-6.93-6.84-11.03-9.51z"/><path fill="#b26363" d="M54.724 21.24a1.13 1.13 0 0 1-.34.88c-.65.84-1.31 1.68.56 1.82 1 .07.76.91.76 1.54q0 5.51.06 11c-.37 0-.65-.12-.57-.59.41-2.36 0-4.74.2-7.1.09-1.36-.45-1.94-1.79-1.91s-3 0-4.48 0c-1.1 0-1.82.46-1.73 1.83.19 3-.19 6.07.2 9.1.07.57-.14.95-.63.93-1.28 0-2.62.45-3.84-.32 4 .19 4 .19 4-3.78v-9.23c0-.75.08-1.38 1-1.19 1.86.37 2.69-.53 3-2.23a1.77 1.77 0 0 1 .64-1.11c.96.14 2.01-.18 2.96.36z"/><path fill="#c16b6b" d="M31.404 25.61c0 3.75.08 7.5 0 11.25 0 1.25.26 1.75 1.62 1.67 2.8-.15 2.36.32 2.38-2.36V23.92a1 1 0 0 1 .29-.08.81.81 0 0 1 .3.38c.69 2.23.69 2.24 3 1.51a14.89 14.89 0 0 1 2.4-.47c.61-.08 1.22-.09 1.52.61v1.68c-2.29 0-4.39 1-6.6 1.42-.77.16-.64.93-.65 1.53v6.8c0 1.1-.25 1.59-1.47 1.55-3.85-.11-3.13.42-3.19-3.12v-4.89c-1.46.86-2.9 1.62-4.24 2.52-1.62 1.09-1.59 1.14-.1 2.27-2.25-.49-2.6-1.29-2-4.52 2.18-.26 3.88-1.55 5.58-2.74.76-.54.16-1.67.42-2.49.28-.27.53-.27.74-.27z"/><path fill="#b06262" d="M68.274 23.94v3.26c-2.65.08-5.14-.76-7.7-1.24a.85.85 0 0 1-.71-1c0-.87-.34-1.93.13-2.57.61-.83 1.55.3 2.38.12 2.03.17 3.91 1.1 5.9 1.43z"/><path fill="#5e3434" d="M10.294 76.01a4.24 4.24 0 0 1 4.31.65c1.28.9 1.25 2.14 0 3.08a5.12 5.12 0 0 1-6.31-.46 9.89 9.89 0 0 1 2-3.27z"/><path fill="#fdfbfb" d="M79.314 8.71a3.9 3.9 0 0 1 4-1.22 3.1 3.1 0 0 1 2.17 3.85 3.14 3.14 0 0 1-3.89 2.1 17.21 17.21 0 0 1-2-.84 5.24 5.24 0 0 1-.4-.36 4.59 4.59 0 0 1-.36-2.87 1 1 0 0 1 .48-.66zm-63.4 1.74c-.38-1.57 1.29-3 3.07-3.12a3.14 3.14 0 1 1-3.07 3.12z"/><path fill="#c16b6b" d="M62.404 22.54c-.21.06-.47.24-.62.17-1.79-.85-1.73.22-1.78 1.52s.6 1.38 1.4 1.52a37.75 37.75 0 0 1 6.84 1.45v2.33c-1.25-1.23-3-.72-4.45-1.28a5.14 5.14 0 0 0-.81-.09c-3-.62-3-.63-3 2.38a18.75 18.75 0 0 1 0 2.3 1.46 1.46 0 0 0 1 1.63c-.95.2-1.37 0-1.34-1.15.08-3.79.06-7.58.07-11.37a5.05 5.05 0 0 1 2.69.59z"/><path fill="#fdfcfc" d="M31.754 13.61c-.53-.18-1.35.37-1.57-.61.35-1.35 0-2.73.16-4.09 0-.53-.22-1.1.22-1.57.69.56 1.48.11 2.22.23 1.59.27 2.24 1.37 1.5 2.8-.29.56-.6 1 0 1.59.39.4 1.24 1.08.41 1.52s-1.89.53-2.22-.83c-.9-.18-.18.84-.72.96z"/><path fill="#fcf9f9" d="M59.644 13.55c-1-.12-2-.1-2.56-1.32 0 1-.43 1.5-1.32 1.3s-.45-.93-.44-1.48a16.26 16.26 0 0 0 0-3c-.2-1.16.07-1.63 1.29-1.49a20.48 20.48 0 0 0 2.13 0c1.29.28 1.22 1.43 1.06 2.21a3.74 3.74 0 0 0 .26 3c.15.34 0 .68-.42.78z"/><path fill="#c26c6c" d="M24.854 73.61c-1.6.41-3.2.79-4.78 1.23a2 2 0 0 1-2.08-.6 3.24 3.24 0 0 0-2.73-1.28c.18-.11.38-.32.55-.3 3.37.45 6.1-1.26 8.94-2.62.83-.4 1.69-.77 2.58-1.17l-.83-.5a5.4 5.4 0 0 1 2.68.27c.11.92-.68 1-1.22 1.25-1.49.75-3.15 1.18-4.46 2.26.24.8 1.48.46 1.35 1.46z"/><path fill="#fdfbfc" d="M77.894 12.31c-.09.37.65 1-.1 1.07s-2 .23-2.28-1.24c-.23.83-.5 1.45-1.39 1.28s-.48-1-.52-1.46c-.09-1.15 0-2.32-.12-3.46-.13-.92.31-1.09 1-1.07s1.64.14 2.45.21c1.46.62 1.25 1.86.83 2.89a1.77 1.77 0 0 0 .13 1.78z"/><path fill="#c16b6b" d="M73.284 34.46c-.52.07-1 .15-1-.64a18.49 18.49 0 0 0 0-2c-.06-.83.34-1 1.08-1 3.11-.11 3.11-.14 3.29-3.25a.58.58 0 0 1 .6.29c0 1.19.67 1.73 1.75 2.05a11.41 11.41 0 0 1 4.18 1.92c0 1.81.08 3.62 0 5.42 0 .91.23 1.31 1.19 1.23s1.86 0 2.79-.05q.15.12.11.24t-.09.13h-.33c-1.21 0-2.67.34-3.56-.21-1-.65-.43-2.25-.38-3.4.06-1.56-1.26-1.34-2-1.76a14.63 14.63 0 0 0-6.25-2.23c-.65 0-1.67-.42-1.93.38s-.51 2.09.55 2.88z"/><path fill="#fdfbfb" d="M27.784 13.26c-2.7 1-4.1-.05-4-2.85V8.27c0-.47 0-.94.72-.76.47.12.94.19.78 1a10.17 10.17 0 0 0-.08 2.29 1 1 0 0 0 .85 1.08c.63.09.83-.51.92-1a4.65 4.65 0 0 0 .08-2c-.28-1.27.35-1.53 1.35-1.56.61 1.29-.1 2.71.38 4l-.32 1.29c-.06.42-.39.49-.68.65z"/><path fill="#fcfafa" d="M40.674 9.12c1.52.82 3 1.3 2.17 3.18a2.45 2.45 0 0 1-3.73.75.74.74 0 0 1-.21-.89.8.8 0 0 1 .76-.52c.42 0 .78.47 1.32.11 0-.62-.57-.7-1-.82-1.07-.33-1-1.24-1-2a1.65 1.65 0 0 1 1.29-1.53 2.47 2.47 0 0 1 2.2.4c.5.34.23.84-.2 1a7.17 7.17 0 0 1-1.6.32z"/><path fill="#fcfbfb" d="M53.844 9.29a.54.54 0 0 1-.71 0 1.16 1.16 0 0 0-1.63.15 1.37 1.37 0 0 0-.34 1.66 1.25 1.25 0 0 0 1.49.74c.5-.12 1-.36 1.09.45a1 1 0 0 1-.81 1.24 3 3 0 0 1-3.23-1.11 3.13 3.13 0 0 1 .15-4 2.94 2.94 0 0 1 3.43-.81c1.01.36.34 1.15.56 1.68z"/><path fill="#b06262" d="M30.814 25.88c.75 2 .51 2.85-1.38 3.78a23.86 23.86 0 0 0-3.46 1.9c-.62.45-1 .31-1.17-.45l.13-1.5c.42-1.25 1.6-1.54 2.62-2l3.26-1.73z"/><path fill="#b16262" d="M43.054 25.87c-1.25-.66-2.41.17-3.62.21 0 0-.1 0-.15.07-4 1.42-3.47.66-3.5-2.31a9.35 9.35 0 0 1 3.62-1.23c-.63 1.63.33 1.67 1.53 1.64s2.64-.51 2.12 1.62z"/><path fill="#fdfbfc" d="M61.034 7.61c.82 0 1.65-.08 2.47 0 .39 0 1-.49 1.15.41s-.31 1-1 .94c-.21 0-.44 0-.55.28s.32.38.57.37c.53 0 .83.09.79.7s-.16.85-.79.72c-.37-.07-.68.07-.66.5s.33.4.61.4c.64 0 1.07.18 1 .94-.11 1-.82.51-1.24.42-.82-.17-1.93.59-2.44-.68a5.49 5.49 0 0 1 .09-5z"/><path fill="#fcf9fa" d="M46.124 9.15c.43.66.95.37 1.32.55a.91.91 0 0 1 .5 1c0 .38-.34.49-.74.4s-1-.05-1 .53.6.34.94.35c1.19 0 .7 1 .47 1.25-.73.7-1.72 0-2.61.23-.46.14-.59-.52-.59-1a18.18 18.18 0 0 0 0-2.47c-.26-1.75.12-2.76 2.19-2.5.55.07 1.19-.11 1.31.55s-.37 1-1 1a3.72 3.72 0 0 0-.79.11z"/><path fill="#fdfcfc" d="M91.614 7.33a4.3 4.3 0 0 0 2.23.27c.43 0 1-.34 1 .54 0 .65-.35.84-.92.84a3.75 3.75 0 0 0-.72.16c.42.75 1.09.39 1.59.54a.86.86 0 0 1 .25 1.17c-.4.53-.46.76 0 1.34.63.74.17 1.41-.85 1.44-2.89.1-3 .1-2.85-2.83.12-1.19-.56-2.36.27-3.47z"/><path fill="#fcfbfb" d="M15.464 7.61c-.38.63-.62 1.12-.94 1.55a4.93 4.93 0 0 0-1.26 3.62c.07.55-.27.8-.81.76s-.76-.23-.63-.73c.43-1.61-.58-2.69-1.35-3.88-.23-.37-.77-.81-.3-1.3s1.16-.17 1.5.12c.64.55 1 .94 1.74.05.4-.47 1.23-.19 2.05-.19z"/><path fill="#fcf9f9" d="M86.894 10.35v-2c0-.67.13-.83.83-.81s.89.15.84.81 0 1.44 0 2.15 0 1.59 1.17 1.45c.54-.06.64.25.55.72s-.06.75-.58.85c-2.18.41-2.78-.09-2.79-2.36q-.02-.39-.02-.81z"/><path fill="#fdfbfb" d="M67.494 7.61a13.72 13.72 0 0 1 1.49 0c.7.08.87.84.5 1-1.62.85-1 2.3-1.12 3.52-.07.52.45 1.32-.62 1.35s-.74-.74-.79-1.31c-.1-1.3.34-2.71-1.23-3.61-.59-.34-.32-1 .46-1.08a11.87 11.87 0 0 1 1.31 0v.13z"/><path fill="#e0b5b5" d="M91.614 7.33c0 1.71 0 3.41-.08 5.12 0 .65.07 1.08.89.9.32-.07.71.09 1 0 .52-.25 1.39.78 1.59-.4s-.63-.93-1.29-1a.42.42 0 0 1-.44-.39c0-.34.22-.56.51-.5 1.34.29 1.08-.62 1.06-1.36.5-.62.23-1.46.56-2.44a9.21 9.21 0 0 1 .29 6c-.38 1.64-2.57.34-3.89.77a.81.81 0 0 1-1.05-.74c0-.43.46-.9.44-1.35-.05-1.18.35-2.39-.34-3.53-.54-.85.34-.8.75-1.08z"/><path fill="#dfb2b2" d="M27.544 27.61l-2.62 2c0-2.42-.14-4.85 0-7.26.07-1.57-.41-2.27-2-2a11.2 11.2 0 0 1-1.65 0c0-.05-.06-.13 0-.15.91-1.14 2.1-.4 3.15-.39a1.09 1.09 0 0 1 1.22 1.22c-.06 1.42 0 2.85 0 4.27s-.07 2.6 1.9 2.31zm33.49-20q0 2.48-.05 5a1.31 1.31 0 0 0-.66.87c-.16.5-.42.37-.67 0a.63.63 0 0 0 0-.87c-.62-.77-1.07-1.45-.3-2.55.51-.72.07-1.78-.62-2.5a1.93 1.93 0 0 1 2.3.05z"/><path fill="#deaeae" d="M50.734 20.25h-10.59c-.65-.87-.73.65-1.28.28-.18-.94 0-1.39 1.18-1.22a64 64 0 0 0 10.36.19c.52 0 1.27-.47 1.42.21.25.99-.97-.21-1.09.54z"/><path fill="#a15a5a" d="M36.454 114.79c1.56-.26 3 .46 4.45.71 3.11.52 6.18 1.28 9.27 1.88a2 2 0 0 1 1.57 1c-5.13-1.05-10.24-2.16-15.29-3.59z"/><path fill="#b26363" d="M83.184 31.85c-1.7-.63-3.38-1.35-5.12-1.85-1.4-.4-1.39-1.09-.81-2.12a21.45 21.45 0 0 1 5.93 3.73.3.3 0 0 1 0 .24z"/><path fill="#e0b3b3" d="M77.894 12.31c-.66-.47-1.13-.85-.5-1.82a2.22 2.22 0 0 0-.47-2.83c.72-.37 1.48-1 1.64.53 0 .2.49.34.75.52l-.09.61c-.09 1-.55 2.07.34 3q0 .16.08.31c-1.15.35-.86-1-1.53-1.31-.44.29.46.8-.22.99z"/><path fill="#bb6969" d="M76.234 27.21a4.34 4.34 0 0 1-3.44.21c-.87-.2-.55-1.2-.18-1.9l3.62 1.69z"/><path fill="#c16b6c" d="M20.904 37.86a6.14 6.14 0 0 1 2.64 1 2 2 0 0 0-1.35 1.69c-1.01-.64-2.28-1.12-1.29-2.69z"/><g fill="#e1b7b7"><path d="M30.574 7.32c-.38 1.87.3 3.82-.38 5.67.21-1.88-.5-3.83.38-5.67zm-1.75 4.02c-.62-1.29 0-2.7-.38-4 .86 1.27.2 2.67.38 4zm-1.04 1.92l.68-.66c.61 1.08-.36.53-.68.66zm3.97.35c.2-1.16.2-1.16.71-1-.4.23-.21.86-.71 1z"/></g><path fill="#8c4d4d" d="M89.854 90.55c.5-4 1.1-7.93 1.48-11.91.29-3 1.45-6 .8-9.09a32.37 32.37 0 0 0-1.62-4.49c-.23-.17-.48-.33-.28-.67 1.57-.09 2.27.61 3 2.12 1.72 3.78.62 7.48.22 11.21s-1 7.71-1.55 11.57c-.09.65-.22 1.3-.33 1.94-.75.14-1.6.62-1.72-.68z"/><path fill="#8d4e4e" d="M94.844 94.88a1.61 1.61 0 0 1-1.65-1.33c1.48-1.09 2.27-2.74 3.39-4.12s2.38-3 3.56-4.51a.69.69 0 0 0 .51-.75 46.19 46.19 0 0 0-.14-6.19c1-.62 1.65-.57 1.65.83v5.45s-1.7 2.88-2.59 4.29c-1.42 2.22-3.17 4.23-4.73 6.33z"/><path fill="#ab5f5f" d="M90.234 64.39l.28.67a5.6 5.6 0 0 1-5.23 1.12 7.76 7.76 0 0 0-6.61.74 5.67 5.67 0 0 1-1.73.44.4.4 0 0 1-.4.12c-.5-.39-1.25-.56-1.22-1.41 2.85-.8 5.7-1.58 8.53-2.42.5-.15 1.3-.05 1.36-.93 1.35 1.53 3.26 1.38 5.02 1.67z"/><path fill="#b16262" d="M89.564 56.38c1.72 1 2.29 2.23 1.93 4.36a4.88 4.88 0 0 0-.58.56c-.63.84-1.24 1.82-2.49 1.08s-1.28-2.56-1-3.72c.32-1.33 1.4-1.56 2.14-2.28z"/><path fill="#814747" d="M100.504 77.98c.68 2.28.23 4.6.23 6.89 0 .36-.37.26-.59 0 .74-2.26.13-4.59.36-6.89z"/><path fill="#593131" d="M80.244 58.33h-6.33v-.2h6.28l.05.2z"/><path fill="#c16b6b" d="M87.224 38.82v-.36c.21-1.43-.37-2.92.32-4.32.38-.17.49.19.7.36a9.27 9.27 0 0 1 1.37 3.64l-1.81-1.08c-.54.55.07 1.34-.58 1.76z"/><path fill="#8c4e4e" d="M71.624 94.56c-6 .25-12.07.73-18.1 1.27-1.92.17-3.85.21-5.77.34a195.61 195.61 0 0 0-22.62 2.3 6.68 6.68 0 0 1-3.9-.42 46.72 46.72 0 0 1-4.73-1.94 4.92 4.92 0 0 0-5.15.09c-1 .53-1.38.16-1.7-.69a5.64 5.64 0 0 1 5.75-1.78c2.49 1 5 2 7.52 3 1.1.42 2.19-.08 3.23-.25a141.62 141.62 0 0 1 14.7-1.6c6.84-.4 13.67-1.07 20.5-1.58 3.66-.27 7.34-.44 11-.66a1.87 1.87 0 0 1 .65 1.93l-1.38-.01z"/><path fill="#643838" d="M87.894 111.47c-1.6 2.87-4.31 4.29-7.21 5.42a9.14 9.14 0 0 1-6.37.06 17.19 17.19 0 0 1-3.64-1.42c-.51-.3 0-1.42-1-1.08-1.59-3.74 0-6.36 3-8.46 3.61-2.55 7.53-4.14 12-3.17 4.17.92 5.68 5.09 3.22 8.65z"/><path fill="#653838" d="M72.974 94.54a4.47 4.47 0 0 1-.65-1.93 22.19 22.19 0 0 0 4.27-.71 19.91 19.91 0 0 0 6.06-.51c.56-.15 1.14-.28 1.22.57.06.62.07 1.14-.8 1.33-2.53.56-5.13.44-7.67.92-.8.15-1.61.22-2.43.33z"/><path fill="#9c5757" d="M76.614 67.35h.34a6.55 6.55 0 0 0 1.81 2.64c1.33 1.47 1.27 1.74-.63 2.3-.31.09-.66 0-.86.37-.1 1-1.09.9-1.68 1.28s-1.3.56-1.91.94a16.64 16.64 0 0 0-3.57 1.42c-2.29.78-3.89 2.55-6 4.05 2.34.24 4.42.93 6.54.08 1.8.29 3.28-.69 4.88-1.21a12.34 12.34 0 0 0 2.48-.83c.5-.16 1-.53 1.54-.1 1.49-.55 3-1.11 4.48-1.64a2.66 2.66 0 0 1 1.1-.27c.53.06 1.24.14 1.51.49s-.37.81-.64 1.18c-2.55 3.56-5.47 6.69-9.68 8.36a10.79 10.79 0 0 0-2.59 1.45c-2.89 2.22-6.13 1.46-9.32 1.25-.54 0-1.09-.18-1.63-.18-2 0-4-.31-5.39-1.87-1-1.12-1.8-1.19-2.74 0-.26.32-.78.41-1 .87-1.18.93-2.35 1.44-3.62.11-.51-.53-.68.12-.74.4-.27 1.17-.91 1-1.63.49-2.43-1.63-5.28-1.78-8-2.29s-2.45-.38-1.34-2.78a31.09 31.09 0 0 1 6.74-8.88c.27-.26.63-.48.61-.93.25-.15.45 0 .65.11.33.32.76.67 1.16.32 1.51-1.33 3.4-1.13 5.18-1.37a2.4 2.4 0 0 1 1.37.31c1.36 1.14 1.42 1.65.47 3.66 1.11-1.47 2.53-2.65 3.58-4.17.36-.42.61-1 1.27-1 3.91-.07 7.6-1.26 11.3-2.35 2.07-.63 3.98-1.51 5.96-2.21z"/><path fill="#aa5f5f" d="M24.854 73.61l-.35-.34c-.52-.49-1.73 0-1.77-.9s1.2-.92 1.83-1.37c1.41-1 3.32-1.11 4.63-2.37 3.2.12 6.39.48 9.59.36 1.08.4 2.26-.14 3.34.32 1.28 1.48 2.8 2.69 3.28 4.66h-11.26c-1.32-1.33-2.95-1.23-4.62-1-1.23.14-2.42.77-3.71.37l-.96.27z"/><path fill="#9c5757" d="M10.274 89.5v-2.14a1.7 1.7 0 0 1 1-1.74c.29-.15.6-.29.87-.47 3-1.95 3-2 5.57.42a5.16 5.16 0 0 1 .47.46c.56.66 1.87.78 1.87 1.68a25.13 25.13 0 0 1-.67 4.52c-.09.48-.47.65-1 .56a23.15 23.15 0 0 0-7.2 0c-.73.11-.87-.23-.87-.81-.04-.83-.04-1.66-.04-2.48z"/><path fill="#fcfbfb" d="M73.684 74.61c1-1.09 2.47-1.16 3.58-2 1.84.71 1.92 2.46 2.3 4a6.83 6.83 0 0 1 0 1.64c-1.41.33-2.6 1.38-4.14 1.31.64-2.04-.29-3.58-1.74-4.95z"/><path fill="#774242" d="M45.404 73.97c-1-1.6-2.62-2.79-3.35-4.61a35.7 35.7 0 0 1 7.35-.31c-.17.87-.91.63-1.45.71a14.6 14.6 0 0 0-2.61.17c.68 1 1.46 1.86 2.1 2.79.25.39.88.76.55 1.24-.45.65-1.23.57-1.94.37l-.36-.31-.29-.05z"/><path fill="#9d5757" d="M53.714 87.92l3.69 2.69c.71.51.56.75-.21 1.05-3.29 1.31-3.52 1.18-3.52-2.27V87.9l.04.02z"/><path fill="#844949" d="M25.864 73.33c1.25.12 2.31-.57 3.47-.84 1.48-.35 2.82.11 4.21.22.8.06.53.81.65 1.3a2.42 2.42 0 0 0-.06.29c-1.3-.6-2.68-.24-4-.3a15.65 15.65 0 0 1-4.27-.67z"/><path fill="#7f4646" d="M76.614 67.35c-.48 1.23-1.77 1.09-2.69 1.46a52.94 52.94 0 0 1-13.72 3.54c-.35 0-.79.31-.84-.35.39-1.13-.77-1.91-.67-3 .6-.86 1.5-.66 2.34-.66.11.1.19.25.36.22s0-.16 0-.25c1.65-.67 3.43-.25 5.15-.68 2.86-.71 5.86-1.02 8.79-1.57.4.45 1.07.68 1.28 1.29z"/><path fill="#aa5f5f" d="M58.694 69.02c.25 1 2.15 1.6.67 3l-1 1a23.14 23.14 0 0 1-4.34.66l-1.32-.33a40.83 40.83 0 0 1-5.63-.35c-.64-1.25-1.87-2.09-2.44-3.5 1.61-.44 3.27.24 4.79-.43a73.66 73.66 0 0 0 7.52-.35 2.6 2.6 0 0 1 1.75.3z"/><path fill="#774242" d="M42.104 69.36c-1.11-.15-2.27.24-3.34-.32 1.12.1 2.28-.43 3.34.32z"/><path fill="#ac605f" d="M61.334 68.32c.25.11.71-.16.75.3 0 .16-.32.49-.5.5-.5 0-.53-.39-.55-.77l.3-.03z"/><path fill="#935151" d="M52.194 51.1c-.83 0-1.66.06-2.48 0a3.7 3.7 0 0 0-3.39 1.21c-.69.78-1.6 1.62-2.61.16a1.28 1.28 0 0 0-1.53-.23c-.93.33-1.91.55-2.81.93a1 1 0 0 1-1.45-.61.88.88 0 0 1 .61-1.3q2.49-.85 5-1.64c.17-.05.52 0 .59.13.95 1.69 1.74.46 2.32-.23 1-1.24 2.4-.76 3.53-.63 1.71.2 3.4.19 5.1.25a9.93 9.93 0 0 1 1.46.22.87.87 0 0 1 .84 1c-.05.69-.5.76-1 .76h-4.18v-.02z"/><path fill="#5e3434" d="M24.604 76.61h.66c1.73.13 3.3 1.16 3.22 2.27-.12 1.69-1.44 2.13-2.83 2.51a5.39 5.39 0 0 1-3.2-.38c-.88-.29-1.82-1-1.8-1.94a2.55 2.55 0 0 1 1.7-2 4.61 4.61 0 0 1 2.25-.46z"/><path fill="#e1b7b7" d="M87.494 26.01c.2-.53-.28-1.38.59-1.34s.38.88.55 1.35a.73.73 0 0 1-.65 1.06c-.82-.01-.16-.8-.49-1.07z"/><path fill="#e9cbcb" d="M88.234 34.5l-.7-.36V32.5a3.7 3.7 0 0 1 .7 2z"/><path fill="#e2b9b9" d="M83.634 10.93c0 .51-.49 1-1.27 1a1.3 1.3 0 0 1-1.42-1.43 1.28 1.28 0 0 1 1.36-1.48c.9 0 1.3.59 1.33 1.91z"/><path fill="#e1b7b7" d="M79.564 12.29c-1.17-.87-.63-1.93-.34-3a6.47 6.47 0 0 0 .34 3z"/><path fill="#e2b9b9" d="M19.314 8.98a1.28 1.28 0 0 1 1.2 1.4 1.41 1.41 0 0 1-1.41 1.51 1.37 1.37 0 0 1-1.47-1.44 1.43 1.43 0 0 1 1.68-1.47z"/><path fill="#e8c8c8" d="M32.404 9.9c-.23 0-.49 0-.43-.33a.72.72 0 0 1 .43-.46c.22-.09.42.06.42.33a.41.41 0 0 1-.42.46z"/><path fill="#dcaaaa" d="M57.194 9.86c-.06-.21-.16-.36-.12-.47s.2-.18.31-.27c.06.12.18.26.16.36s-.2.22-.35.38z"/><path fill="#e2b9b9" d="M75.504 9.1c.25 0 .39.11.34.29a.54.54 0 0 1-.28.34c-.2.07-.29-.11-.26-.28a1.17 1.17 0 0 1 .2-.35z"/><path fill="#9c5757" d="M72.624 114.46a3 3 0 0 1-1.43-4c2-4.17 10.52-7.36 14.08-5.36a3 3 0 0 1 1.75 3.47 6.94 6.94 0 0 1-3.78 4.91c-3.46 1.2-6.93 2.19-10.62.98z"/><path fill="#764141" d="M72.624 114.46a41.43 41.43 0 0 0 10.62-1 12.12 12.12 0 0 1-7.85 2c-1.06-.06-2.09.01-2.77-1z"/><path fill="#5f3434" d="M73.684 74.61c2.45 1.37 2.85 2.51 1.75 5-1.53.64-2.95 1.88-4.8 1-1.47-.85-1.76-2.9-.65-4.61a6.7 6.7 0 0 1 3.7-1.39z"/><path fill="#fcfbfb" d="M69.984 75.99a5.48 5.48 0 0 0 .65 4.61c-.31.69-1 .64-1.53.66a21.18 21.18 0 0 1-5.92-.8c2.47-1.5 4.08-3.79 6.8-4.47z"/><path fill="#c16b6b" d="M54.044 73.61c1.33-1 2.83-.85 4.34-.66-1.06 2-3 3.36-4.48 5.62-.03-1.96 2.06-3.41.14-4.96z"/><path fill="#8b4d4d" d="M47.094 72.98c1.93-.71 3.77-.06 5.63.35-.54.57-1.25.33-1.88.31a3.54 3.54 0 0 0-2.71 1c-.87.87-1.5.74-2-.29a3.84 3.84 0 0 1 1.69-.4c.1-.64-.64-.56-.73-.97z"/></g></svg>