<svg width="106.93" height="157" xmlns="http://www.w3.org/2000/svg"><title>background</title><path fill="none" d="M-1 -1H107.93V158H-1z"/><g><title>Layer 1</title><path fill="#e1b7b7" d="M106.68.526a4.8 4.8 0 0 1 .67 2.66c0 13.74.15 27.49-.12 41.23-.07 3.72.18 7.42.13 11.13 0 2.66-.74 5.32 0 8a1.14 1.14 0 0 1-.54 1.33c-.92.7-.52 1.91-.25 2.89a15.66 15.66 0 0 1 0 7.54 20.17 20.17 0 0 0 0 7.83c.26 1.35 1.05 2.66-.08 4 0 0-.08.11-.07.15 1.12 2.38-.72 4.66-.22 7a1.14 1.14 0 0 0 .14.45c1.05 1.38 1.05 1.38-.76 1.77a3 3 0 0 0-2.33 2.79c0 .65.51.58.94.64 2.22.33 2.95 1.47 2.28 3.65a4.36 4.36 0 0 0 0 2.7 4.87 4.87 0 0 1-.21 3.82 3.08 3.08 0 0 0 .12 2.84 2.78 2.78 0 0 1-1 3.8c-.86.63-1.25.44-1.45-.56a2.29 2.29 0 0 0-.48-1 1 1 0 0 0-1.47-.06c-.44.35-.33.76 0 1.14a3.5 3.5 0 0 1 .54.62c1 1.94 1 1.94 3 1.88-.07 1.61-1.6 3.11-.44 4.78a11.25 11.25 0 0 1 1.94 4.19 5.24 5.24 0 0 1 .27 1.07q0 13.52-.06 27c-.58.31-1.08 0-1.53-.27-5.53-3.21-11.24-6.08-16.74-9.35-1.46-1.13-3.28-1.64-4.78-2.7-.44-.27-.91-.5-1.38-.73-.72-.38-1.37-.88-2.12-1.21l-.39-.2c-1.06-.48-1.93-1.33-3.11-1.57a2 2 0 0 1-.41-.14 5.18 5.18 0 0 0-1.21-.48c-2.13-1.13-4.18-2.39-6.24-3.64-2.75-2.24-4.63-4.89-4.22-8.67a19 19 0 0 1 2.7-3.3c5-5.26 9.89-10.59 14.8-15.91 1.82-2 3.79-3.82 5.49-5.91 1.22-1.5 1.13-1.81-.51-3a1.52 1.52 0 0 1-.65-1.72 4.74 4.74 0 0 0-.48-2.72c-.22-.49-.5-1.09-1.16-1s-.54.73-.69 1.19c-.31 1 0 2.12-.94 2.87a56.65 56.65 0 0 1-8.91-2.27c-1.25-.36-1.29-1-.15-2 2.66-2.21 5.48-4.22 8.2-6.35a10.93 10.93 0 0 1 3.37-2.31c1.25.05 1.27 1.18 1.7 1.95.23.41.31 1.08.91 1s.7-.75.83-1.27a2.88 2.88 0 0 0 .09-1.14 5.77 5.77 0 0 1 1-4.89c.89-1.14.32-2.74-.4-4a5.54 5.54 0 0 0-1.74-2 7.86 7.86 0 0 1-1.09-1.45c-1.27-1.31-2.87-2.2-4.19-3.44-.41-.39-1.21-.76-.52-1.56a30 30 0 0 1 6.2 0 13.27 13.27 0 0 0 6.17-.47c.5-.16 1.22-.25 1.14-1s-.76-.69-1.3-.76c-2.66-.35-5.33-.54-8-1.11-1.78-.54-1.93-.82-.55-2.17s1.36-3.13 0-4.69c-.4-.47-1.13-.82-.61-1.64.94-.73 2.14-.8 3.21-1.21 4.24-1.63 7.36-4.32 7.76-9.06a34.49 34.49 0 0 0-.55-11.57 7.59 7.59 0 0 1-.21-1.13 5 5 0 0 0-1.43-3.69c-.52-1.13-1.53-1.94-2-3.09-.06-.38.06-.77 0-1.15-.2-1.39.34-2.09 1.79-2a1.48 1.48 0 0 0 1.35-.48c.46-.63 1-1.37.7-2.11s-1.15-.41-1.76-.41h-6.92a2.1 2.1 0 0 0-2.31 1.42c-1 .53-1.75-.1-2.55-.52a7.63 7.63 0 0 0-6.94-.8c-2.26-.23-4.49.22-6.73.29a.41.41 0 0 1-.16 0c-2.16-1-4.16-1.32-5.48 1.29-.7.1-1.4.38-2.08 0a1.57 1.57 0 0 0-1.84-1.7.89.89 0 0 1-.32 0c-3.33-1.16-5.23.77-6.93 3.18a3.19 3.19 0 0 0-.58 2.32c.06.55.31 1.24-.55 1.48-.75-.6-1.39-.09-2.06.21a14.4 14.4 0 0 1-1.73.81c-1.25-.55-2.43-1.25-3.65-1.87-.74-.37-1.25-.91-1-1.84s1.09-1.08 2-1c2.06.24 2.27.07 3-1.82.35-.89 0-1.22-.79-1.34-1.19-.18-2.39-.38-3.59-.48s-3.23 1.39-3.73 3.09a13 13 0 0 0-.24 4.73 1.77 1.77 0 0 0 1.06 1.37 5.78 5.78 0 0 1 1.79 1.14.78.78 0 0 1-.45 1c-2 1-3.82 2.49-5.83 3.59-1.2-.23-1.15-1.2-1.17-2.06-.05-2.59 0-5.17 0-7.76 0-3.19-.77-4.09-3.85-4.71a2.92 2.92 0 0 0-.32-.06c-1.06-.09-2.25-.91-3.16-.05a6.56 6.56 0 0 0-2.24 4.29c-.06.71 0 1.43-.07 2.14a2.66 2.66 0 0 1-1.2 2.21c-.89.6-1.1 2-.28 2.54 1.72 1.1 1.55 2.75 1.46 4.36 0 1.33.57 1.72 1.8 1.69s1.57-.53 1.55-1.62a16.58 16.58 0 0 1 .07-2.64c.12-.84.48-1.51 1.44-1.49s1.3.72 1.38 1.55c.11 1.26 0 2.53.09 3.79-.07 1-.92 1.32-1.58 1.75a140.11 140.11 0 0 0-13.26 10 24.58 24.58 0 0 0-1.78 1.71c-1.64 1.68-1.58 3.38.26 4.9 2 1.66 4.53 1.82 7 2.21a50 50 0 0 1 5.19.63c.18 1-.29 2.13.67 2.95a9.36 9.36 0 0 1 .17 2.28 6.06 6.06 0 0 1-.55 3.47 7.63 7.63 0 0 0-2 3.75c.16 3.07-1.45 5.56-2.75 8.13-.7 1.38-1.06 2.63.3 3.86.75.68.41 1.53 0 2.28-.76 1.4-1.57 2.77-2.38 4.14s-.88 2.35.28 3.4a1.6 1.6 0 0 1 .23 2.23c-.62 1-1.28 2-1.9 3.08a2.23 2.23 0 0 0-.16 2.48 2.27 2.27 0 0 1-.19 2.61c-.81 1.31-1.67 2.58-2.47 3.89-.71 1.16-.92 2.22.15 3.26a1.33 1.33 0 0 1 .38 1.5 24.35 24.35 0 0 1-2.48 3.57c-3.49 4.24-8.46 6.16-13.24 8.36a1 1 0 0 1-1.09 0v-3V3.096A7.22 7.22 0 0 1 .71.516a4.15 4.15 0 0 1 2.36-.55H104.9c.61.09 1.33-.21 1.78.56z"/><path fill="#8c4e4e" d="M.42 123.086c5.12-2.21 10.32-4.3 14.13-8.66a1.47 1.47 0 0 1 2.17.08c10 8.18 18.71 17.42 25.4 28.5a108.26 108.26 0 0 1 6.94 12.89c.12 1.22-.79.94-1.44.95H25.45c-1-.28-.9-1.18-1.05-1.88-.93-4.13-2-8.24-3-12.35-.44-1.79-.72-2-2.5-1.63-3.33.72-6.71 1.18-10.07 1.73-2.64.43-2.89.75-2.39 3.33.57 2.91 1.42 5.77 2 8.68.14.71.49 1.52-.34 2.1-1.1 0-2.21-.05-3.3 0a1.56 1.56 0 0 1-1.87-1.39c-1.39-6.43-3.24-12.78-2.8-19.5.28-4.21-.14-8.45.18-12.67l.11-.18z"/><path fill="#c97d7d" d="M48.55 155.376c-2.07-3.78-4-7.67-6.28-11.32a126.32 126.32 0 0 0-11-15.12c-4.51-5.21-9.81-9.54-14.85-14.18a1.75 1.75 0 0 0-1.91-.34l2.36-3.29c.77-.25 1.22.29 1.71.71a143.77 143.77 0 0 0 12.84 9.58 27.36 27.36 0 0 0 3.11 1.73c3.89 2.18 7.7 4.53 11.7 6.52 2.11 1.05 4.22 2.11 6.38 3.06a70.83 70.83 0 0 1 7.16 3.33 1.61 1.61 0 0 1 .67 1.87c-1.36 6.13-2.6 12.28-4.28 18.34a1.19 1.19 0 0 1-.28.4l-6.58.09c-.34-.43-.31-1.02-.75-1.38z"/><path fill="#c16b6b" d="M65.44 126.696c-.24 3.68 1.47 6.39 4.25 8.57 1.94 3.82 3.65 7.75 5.59 11.57 1.21 2.94 2.74 5.72 4.13 8.57.7 1.44 2.13.66 3.26.79 2.89 0 5.79-.07 8.68 0 .61-.05 1.21 0 1.82 0 .82-.07 1.64 0 2.46 0 3-.11 6 0 9 0a2.06 2.06 0 0 1 1.79.58c-.33.43-.81.27-1.22.27h-30c-.41 0-.89.17-1.21-.29.85-.76 1.87-.35 2.78-.41-1.63-2.45-3.66-4.66-4.91-7.06.64 1.69 1.5 3.62 2.17 5.63.2.6.56 1.24 0 1.84-3.41.14-6.83.65-10.24 0l.16-.2a6.17 6.17 0 0 1 2.92-.28c.89 0 1.47-.28 1.63-1.24.41-2.44.77-4.89 1.12-7.34a2.15 2.15 0 0 0-.3-1.59c-1.79-2.43-3.3-5.07-5.43-7.23a2.14 2.14 0 0 1-.81-1.27 1.34 1.34 0 0 1 .22-.47c1-2.4.6-5 1.09-7.44.21-1 0-2.21.88-3.07l.17.07z"/><path fill="#5e3434" d="M106.39 156.746l-10.85-.1c-.86-.41-1.16-1.28-1.64-2-1.52-2.28-3-4.56-4.59-6.81a3.94 3.94 0 0 1-.79-1.61c-.07-.51.14-.76.65-.39l18.12 10c-.06.54-.4.78-.9.91z"/><path fill="#fcfbfb" d="M106.68.526a4.12 4.12 0 0 0-2.1-.29H3.47a13.82 13.82 0 0 0-2.76.36c.61-.88 1.54-.71 2.4-.71h102.87v-.32H1.76v-.34h103.47c.81-.01 2.11-.41 1.45 1.3z"/><path fill="#c26c6c" d="M48.55 155.376c.65.24.69.8.7 1.37-.44.51-1 .27-1.54.27H4.85a10.58 10.58 0 0 1-3.83-.32c-.08-1-.36-2-.44-3.43 0 1.17.49 2-.23 2.8-.48-.3-.32-.78-.32-1.19v-30.36c0-.41-.17-.9.3-1.2 0 4.34.21 8.68 0 13-.31 5.59 1.41 10.79 2.53 16.12a1.27 1.27 0 0 0 .06.15c.45 1.28 0 3.09 1.05 3.84s2.87.19 4.34.27a2.77 2.77 0 0 1 2-.54h12.82a2.85 2.85 0 0 1 2 .53h22.34c1.04.03 1.63-.14 1.08-1.31zm7.29 1.29c.18-3 1.3-5.74 1.87-8.64.64-3.27 1.48-6.5 2.2-9.75.15-.7.5-1.52-.45-2a3.14 3.14 0 0 1 3.66 1.26c-1.25 3.79-1.89 7.71-2.89 11.53-.69 2.53-.93 5.19-2.09 7.59l-2.3.01z"/><path fill="#c97d7d" d="M58.14 156.656c.39-3.76 1.7-7.32 2.42-11 .46-2.35 1.05-4.68 1.53-7 .13-.62.31-1 1-1.07.21.33.71.46.66 1a1.63 1.63 0 0 1 .27 1.54c-.69 3.36-1.21 6.75-2.18 10-.51 1.61-.78 3.27-1.14 4.92-.14.63-.18 1.32-.89 1.64l-1.67-.03z"/><path fill="#c26b6b" d="M59.81 156.666c.71-2.15.79-4.45 1.63-6.57.16 0 .37-.06.44.09.94 2.06 2 4.09 1.94 6.46l-.1.1c-1.31.05-2.62.38-3.91-.08z"/><path fill="#6b3c3c" d="M.36 156.056v-3.56h.22c.27 1.18.54 2.37.83 3.55.08.36.09.65-.38.68l-.67-.67z"/><path fill="#e4bdbd" d="M106.95 98.646a.8.8 0 0 1-1.59 0 .85.85 0 0 1 .89-.94c.56-.01.53.62.7.94z"/><path fill="#5e3434" d="M96.37 32.556a33.29 33.29 0 0 1 1.08 12.86 10.32 10.32 0 0 1-5.83 8.58 26.06 26.06 0 0 1-5.7 2.07 1 1 0 0 1-.77.14 2.64 2.64 0 0 1 .27-3.75c1.16-.26 1.44-1 1.21-2.1a10 10 0 0 0-6.16-7.4c-6.6-2.89-13.3-2.79-20.09-.72a52.61 52.61 0 0 0-20.44 11.25 6.78 6.78 0 0 1-1.49 1 1.47 1.47 0 0 0-1.11 1.12c-.64.9-1.4 1.22-2.34.42a1.49 1.49 0 0 0-1.77-.12c-.34.18-.81.35-1.11.18-1.64-.93-2 .11-2.44 1.37s-1.13 1.29-2.26.56a38 38 0 0 1-9.92-1.25 6.8 6.8 0 0 1-3.48-2.37c-1.22-1.6-1.16-3 .26-4.33a132.76 132.76 0 0 1 16.75-13 3.35 3.35 0 0 0 .35-.32c0-.3.19-.39.44-.41a6.56 6.56 0 0 1 1.86.53 1.44 1.44 0 0 0 2.12-.76c.41-.58 1-1.11.6-1.94-.3-.63.26-.72.6-.93l5.42-3.31c1-.52 1.7.1 2.24.78a2.34 2.34 0 0 1 .19 2.51c-.37.8-1.16.68-1.88.65-1 0-1.93-.61-2.87 0-.78.87-.79 2.08-1.38 3a61.78 61.78 0 0 1-6.86 4.79c-5 3.41-10.1 6.79-15.15 10.19a3.62 3.62 0 0 0-.52.41c-.27.26-.68.53-.35 1s.71.16 1 0c1.68-1 3.33-2.13 5-3.24 4.46-3 8.94-6 13.42-9l4.5-3a5.11 5.11 0 0 1 3.22-1h.92a7.88 7.88 0 0 0 1.09 0c.69-.13 1-.67 1.38-1.19.89-.87 1.09-2.11 1.67-3.15 1.65-1.31 2.92-1.44 3.87-.4a3.94 3.94 0 0 1 .34.92c.81 3.14.81 3.2 4 3.45 1.16.09 2.35.73 3.52 0 .41-.81 1.56-1.47.48-2.55a17.17 17.17 0 0 0-1.79-.19c-2.74-.36-3.29-1-3.36-3.78.07-1 .73-1.39 1.54-1.71 2.28-.93 4.59-1.77 6.88-2.68 1.83-.72 2.35-.31 2.38 1.7v7.55c0 .68-.25 1.6.62 1.86s1.83.52 2.53-.43c.32-3 .06-6.09.15-9.13a6.6 6.6 0 0 1 .28-2.57c.87-1.15 2.13-1 3.32-.93.81 0 .9.66 1 1.28.12.86-.18 1.77.32 2.58.88 1 2.15 1.28 3.24 1.9a5.13 5.13 0 0 1 1.51 1 2.46 2.46 0 0 1 .34 2.63c-.37.91-1.23.74-2 .68l-.32-.05c-2.6-.38-2.68-.32-3.37 2.49a29 29 0 0 0 4.67.66c1.34.15 2.86-1.15 3.49-2.8a9.61 9.61 0 0 0 .32-5 2.32 2.32 0 0 0-1.4-1.71 27.37 27.37 0 0 1-2.62-1.37c-.67-.44-1.24-1-.66-1.89a1.84 1.84 0 0 1 1.42-.31 30.52 30.52 0 0 1 8.49 2.45 2.6 2.6 0 0 1 1.25 1.27 44.74 44.74 0 0 1 .1 8.34c0 .41-.31.87.27 1.13 1.14-.12 2.38.52 3.37-.5.4-2-.14-4 .33-5.95.12-.26.29-.49.6-.48a5.52 5.52 0 0 1 3.22 2.42z"/><path fill="#c26c6c" d="M31.4 121.706a66.22 66.22 0 0 1-8.17-5.65c-2.11-1.66-4.25-3.28-6.37-4.92 0-.46.14-.85-.38-1.26-1.26-1-1.19-2.21-.35-3.49s1.82-2.87 2.74-4.3c.43-.68.71-1.26.05-2a2.15 2.15 0 0 1 .06-2.75c.73-1.1 1.42-2.21 2.13-3.33.4-.63.48-1.13-.29-1.65-1.36-.91-1.29-2.18-.56-3.46.84-1.48 1.74-2.92 2.58-4.4.47-.83.82-1.61-.31-2.37s-1-1.79-.48-2.82a23.66 23.66 0 0 1 1.63-3.23c1.2-1.8 1.35-3.86 1.7-5.89.47.34.4.85.47 1.33.21 1.52.59 1.7 2.06 1.13 1-.41 1.91-1.33 3.16-1.14a3 3 0 0 1 .39 2.05 11.65 11.65 0 0 0 21.45 6.33c1.54-2.27 3-4.64 5.21-6.33a24.82 24.82 0 0 1 5.19-3.3c3.05.44 6 1.56 9 2a22.4 22.4 0 0 1 4.38.72c.63.85-.19.82-.62 1s-1.33.15-1.44.88.55 1.33 1.18 1.63a5.75 5.75 0 0 0 4.29.64c.91-.28 1-.79.36-1.44a4.85 4.85 0 0 0-2.14-1.18c-.44-.13-1.12-.2-1-.84.08-.48.69-.44 1.12-.51a4.17 4.17 0 0 1 .5 0q2.76-.06 5.52 0a10.25 10.25 0 0 0 3.35-.49l.94 1.32c-.27.56-.81.89-1.17 1.37s-.52.75-.29 1.21.77.52 1.29.49a3.08 3.08 0 0 0 1.92-1.15c1.47 2.29 1.41 3.8-.31 5.85a1.69 1.69 0 0 0-.24 1.68 6.6 6.6 0 0 1-.16 4c-.19.48-.47.94-1 .93s-.76-.44-1-.9c-.52-.88-.3-2.21-1.57-2.64-.54-1.45.15-2.17 1.5-2.51a105.64 105.64 0 0 0-14.32 1.53c.44 1.12.87 2.28-.24 3.38a.85.85 0 0 1-.52-.93c.06-1.34-.61-1.74-1.82-1.51-2.64.09-5 1.27-7.4 2.09a68 68 0 0 0-12.72 6.16 4.92 4.92 0 0 1-1.48.71c-2.29-.5-4.66-.67-6.9-1.27a13.16 13.16 0 0 0-13.91 4.07c-4.13 4.48-4.39 9.75-2.12 15.2.49 1.19.81 2.53 1.91 3.41 1 1.65 2.82 2.63 3.43 4.54a12.23 12.23 0 0 0-.23 2.01z"/><path fill="#b06262" d="M28.04 115.426c-1.8-1.51-2.38-3.69-3-5.78-1.62-5.71-.36-10.85 4.15-14.75a13.61 13.61 0 0 1 13.49-2.92c2.1.63 4.4.61 6.52 1.33a88.17 88.17 0 0 0 16.92 4.11 6.64 6.64 0 0 0 2.62-.17c1.36-.19 2.75-.08 4.11-.37.5.62.54 1.14-.42 1.19a11.6 11.6 0 0 1-2.11.05c4.32-.8 8.69 0 13-.61a13 13 0 0 1 4.51 1.07c1.88.93 2.09 1.52.82 3-1.71 2-3.5 3.93-5.3 5.85q-7.51 8.07-15.05 16.11c-1 1-1.93 2.09-2.9 3.14l-.08-.09a39.07 39.07 0 0 1-20.79-1 44.21 44.21 0 0 1-10-4.67 28.35 28.35 0 0 1-5.65-4.76 3.48 3.48 0 0 0-.84-.73z"/><path fill="#c26c6c" d="M85.23 56.006l.71.06c.05.15.06.35.16.45 2.69 2.58 2.61 4.49-.33 6.91l1.15.44c-.88.85-1.83.46-2.76.15-.5-.17-.9-.53-.71-1.12s.75-.62 1.13-.57c-.64-.29-1.46.15-2.26.15-5.16 0-10.33.21-15.48-.07-9.33-.52-18.66-.11-28-.27a14.47 14.47 0 0 0-3.39.48c-1.53.34-3.14-.13-4.76 0-.91.07-2-1.23-2.9-2-1.55-.64-1.09-1.6-.4-2.59 1.3.49 1.83-.06 2.12-1.34.4-1.8.58-1.83 2.31-1a1.17 1.17 0 0 0 1.23-.1c.91-.86 1.61-.63 2.33.22 1 1.13 1.31-.23 1.93-.51a2.24 2.24 0 0 1 .75-.9 62.31 62.31 0 0 1 12.93-8.94c5.67-2.74 11.54-5 17.84-5.16 5.73-.17 11.41.74 15.8 5.08a9.38 9.38 0 0 1 2.6 5.56c.17 1.2-.18 2-1.6 1.71-.77-.24-.9-.92-1-1.56a8.29 8.29 0 0 0-5.7-6.47 26 26 0 0 0-15.85-.86 51.37 51.37 0 0 0-21.59 11.28 5.83 5.83 0 0 0-1.75 1.91c1.32.51 2.67.19 4 .22 1.9 0 3.8.07 5.7 0 11-.45 21.91-.64 32.87-.68a20.15 20.15 0 0 0 2.92-.48z"/><path fill="#8c4e4e" d="M68.74 97.556c-1 .73-2.14.45-3.16.3-5-.76-9.87-2.08-14.76-3.32-.59-.21-1.44-.33-1.59-1.21a75.92 75.92 0 0 1 20.57-9.13c.34-.1.64-.14.87.19-1.07 1.5-.11 2.75.52 4 .14.29.33.62.72.53s.34-.38.43-.64c.15-.46.22-1 .68-1.25a3.48 3.48 0 0 0-.27-3.58 75.27 75.27 0 0 1 16.74-1.69c-1.33 1-3.48.76-3.3 2.92q-5.7 4.4-11.41 8.8c-.3.23-.79.34-.75.77.06.59.69.46 1.05.57 2.82.84 5.65 1.62 8.47 2.42q.15.1.11.21t-.08.12a1.2 1.2 0 0 1-1.21.66c-4.09 0-8.18 0-12.28-.32h2.08s1.08-.29.49-1c-1.07-.56-.94-1.76-1.39-2.65-.15-.29-.22-.69-.58-.72s-.57.42-.71.76c-.44 1.09-.08 2.47-1.24 3.26z"/><path fill="#5e3434" d="M27.78 60.626a2.83 2.83 0 0 1 2.58 1.39c.52.91 1.4.77 1.8-.1.51-1.1 1-.88 1.42-.11.6 1 1.28 1 2 .23a1.73 1.73 0 0 1 1.51-.42c8.91 0 17.82-.18 26.72.12 7.14.24 14.28 0 21.42.26a1.15 1.15 0 0 1-.11.29c-.37.49-1.5.08-1.42.83s1.17.49 1.77.76a3.69 3.69 0 0 0 1.46 0l7.34.94c.38 0 .77.07 1.14.15.79.17 1.77.19 1.78 1.32s-.93 1.11-1.63 1.33a14.16 14.16 0 0 1-5 .59c-2.63-.15-5.26-.2-7.89-.29a1.86 1.86 0 0 1-1.69.45c-2-.26-4-.16-5.92-.41-10.31-1.3-20.57-2.44-30.83-3.84a17.22 17.22 0 0 0-3.12-.14c-4.06-.36-8.14-.13-12.21-.27a2 2 0 0 1-1.12-.49v-2.59z"/><path fill="#b06262" d="M28.77 63.326c4.18 0 8.36-.3 12.53.26 5.28 1 10.3 2.92 15.43 4.47a39.66 39.66 0 0 1 5.34 1.62c.41.19 1 .15 1 .85l-4.59 3.3a34 34 0 0 1-5.89.49c-.34 0-.67.07-1 0a3.4 3.4 0 0 0-3.73.49 2.81 2.81 0 0 0-2.19-1.74 23.29 23.29 0 0 1-5.22-1.94 6.55 6.55 0 0 1-1.36-.89 1.89 1.89 0 0 0-2.38-.28c-1.43-.42-2.5.49-3.69 1-.61.26-1.1 1-1.91.53-1.07.53-2.13 1.07-3.2 1.58-1.7.8-2.42.35-2.44-1.51v-1.46a4.57 4.57 0 0 1 2-3.58 6.37 6.37 0 0 1 4.3-2.8c-1.09.1-2.2.9-3-.39z"/><path fill="#8c4e4e" d="M63.11 70.516c-3.88-1.19-7.76-2.39-11.61-3.64-3.4-1.1-6.88-1.93-10.19-3.3a26.55 26.55 0 0 1 6.12.46c4.12.49 8.24 1 12.35 1.54 5 .63 10.07 1.31 15.12 1.86 2.56.28 5.14.31 7.71.46 1.05 1.52 2.78 2.25 4.07 3.49a5 5 0 0 1 1.16 1.14c-.21 1.07-1.08.95-1.81 1h-7.4c-.51-.39-1.17.08-1.68-.3-4.72-.26-9.29-1.52-13.84-2.71z"/><g fill="#fefefe"><path d="M31.64 36.566l-.3.23c-.64-1.25-.19-2.58-.29-3.87-.06-.73-.13-1.35-1.07-1.3s-.91.62-.91 1.28v3.46c0 .86-.31 1.11-1.15 1.16-3.18.17-3.16.2-3.19-2.92 0-1.29.46-2.72-1.6-3.23-.77-.19-.22-1.69-.32-2.58-.08-.66.34-.87.91-.85.74 0 .91-.42.92-1.05a11.59 11.59 0 0 0 .08-1.8c-.37-2.46 1.26-4.09 2.4-5.92a.89.89 0 0 1 1-.41 36.35 36.35 0 0 1 5.11 1.09c1.52.56 2 2.12 2.06 3.63.08 3 0 6 0 9.06 0 .7-.26 1.66 1 1.65 2 .93-.14 1.35-.25 2-1.35 1.13-2.9.35-4.4.37zm7.96-2.8c0-.56 0-1 .78-.79a17.62 17.62 0 0 0 2.1.32c.69.08 1.67.65 2-.24s.41-2.33-1.15-2.75c-.31-.08-.61-.22-.91-.33-3.59-1.29-4.06-2.33-3.3-6.76.27-1.89 1.64-2.89 2.81-4.07a1.87 1.87 0 0 1 1.71-.21c1.38.3 2.8.44 4.2.66.31 0 .86 0 .84.32-.06 1.23-.94 2.18-1.31 3.32-.22.67-.86.51-1.41.4s-1.07-.21-1.61-.29-.92-.02-1.12.63-.18 1 .44 1.36c1.32.72 2.81 1.16 3.91 2.27 1.27.54.93 1.74 1.12 2.72a5.59 5.59 0 0 1-.47 2.56 5.64 5.64 0 0 1-1.78 3.29c-.45.37-1 .64-1.24 1.23a1.37 1.37 0 0 1-1.31.07 4.57 4.57 0 0 0-2.61-.82c-1.31.15-2-.32-1.72-1.76.13-.37-.09-.75.03-1.13zm37.77-9.44a.94.94 0 0 0 .62 1.31 5.67 5.67 0 0 1 1.32.67c1 .8 2.88.52 3.09 2.44.29 2.53.55 5-1.23 7.18a3.49 3.49 0 0 1-4.11 1.4 26.38 26.38 0 0 0-4.3-.55c.08-.35.13-.66.23-1 1-3 1-2.95 4.19-2.48.51.07 1.47.66 1.61-.35.12-.85.56-2-.78-2.53-1.5-.65-2.92-1.48-4.37-2.23a30.54 30.54 0 0 1-.08-5.86 4.3 4.3 0 0 1 2.43-2.62 1.66 1.66 0 0 1 1.91-.75c1.53.34 3.1.46 4.66.68.52.07.69.29.29.73a5.89 5.89 0 0 1-.74 2.16c-.46 1.33-1.52 1.32-2.64 1.16-.79-.08-1.63-.36-2.1.64zm-65.78-1.34a18.73 18.73 0 0 1 2.41-3.88.91.91 0 0 1 1-.3 52.79 52.79 0 0 0 6.65.9c.79.11.93.45.57 1.1-.48.86-1 1.71-1.46 2.57a1 1 0 0 1-1.4.51 8.67 8.67 0 0 0-2.13-.26c-.88-.09-1.35.21-1.37 1.16s.18 1.52 1.25 1.46a9.33 9.33 0 0 0 1.31 0c1.71-.35 2.3.14 2.14 2-.12 1.41-.54 1.72-1.84 1.68-2.85-.07-2.85 0-2.85 2.86v.66c0 4.05 0 4.05-4 4.05-.35-3.43 0-6.87-.17-10.3a18.86 18.86 0 0 0-.11-4.21z"/></g><path fill="#703e3e" d="M74.95 146.846c-2.11-3.53-3.52-7.41-5.45-11a.41.41 0 0 1 .19-.56l6.24 3.7a3.15 3.15 0 0 0 1 .54 17.37 17.37 0 0 0 3.59 1.7c.78.43 1.36 1.22 2.34 1.27l1.3.66c2.44 2.05 3.7 5 5.55 7.49 1 1.36 1.83 2.86 2.82 4.24.37.51.83 1.06.5 1.79h-1.59a7.22 7.22 0 0 1-2.52-3c-.9-2.21-2.89-3-4.91-3.77-.61-.83-1.77-.5-2.48-1.14 0-.72.75-.54 1-.92 0-.23-.19-.24-.35-.25-2-.17-3.92.34-5.91 0a1.61 1.61 0 0 1-1.32-.75z"/><path fill="#fefefe" d="M60.17 36.946c0 .93-.7.64-1.18.59-1.78-.2-3.55-.47-5.32-.63a1.23 1.23 0 0 1-1.2-1.07c-.33-1.2-.66-2.4-1-3.6-.23-.93-.86-1.74-.73-2.77s-.29-2 .52-2.83c.11-.24.32-.48.31-.72a6.66 6.66 0 0 1 4.13-6.77c1.92-.66 4.08.08 6 .67.62.19-.21 1-.31 1.53-.77 2.42-1 2.57-3.3 2.41s-2.48 0-2.5 2.28v1.65c.19.89-.6 1.71-.16 2.61.34 2.9.42 3 3.3 3.15a3.24 3.24 0 0 1 2 .45 9.43 9.43 0 0 0-.56 3.05z"/><path fill="#fdfcfc" d="M92.84 30.256v6.87a9.45 9.45 0 0 1-3.4.2c-.85 0-.89-.64-.89-1.28v-6.27c.05-1.6-.31-3.17-.18-4.77.08-1-.44-1.54-1.48-1.54a6.21 6.21 0 0 1-2-.15c-.94-.76-.47-1.35.24-1.9-.06-1.59.62-2.19 2.28-2.12 2.91.13 5.83.09 8.74 0 .92 0 1 .28.92 1-.25 2.06-1.1 2.92-3.14 3-.72 0-1.2.1-.9 1a3.42 3.42 0 0 1-.28 1.92 3.15 3.15 0 0 1 .53 2 3.08 3.08 0 0 1-.44 2.04z"/><path fill="#fefefe" d="M69.75 24.636l-.06 12.52a.74.74 0 0 1-.28.16c-3.83.36-3.79.36-3.85-3.46-.05-3.38.34-6.78-.45-10.11-.34-.55-1-.63-1.47-.92-.7-.41-.91-.89-.12-1.44 1.54-3.44 1.73-2.93 5.62-1.42 1.61.24.83 1.51 1 2.36a3.43 3.43 0 0 1-.39 2.31z"/><path fill="#b06262" d="M93.09 156.666c-2.47-4.18-5.22-8.17-8-12.15-.31-.44-.59-.91-.89-1.36a36.84 36.84 0 0 1 4.94 2.68c-.86.13-.25.52-.1.75 2 3.12 4.07 6.22 6.11 9.34a7.49 7.49 0 0 1 .37.73l-2.43.01z"/><path fill="#5f3535" d="M63.53 21.326c-.47.57-.52 1 .34 1.21.51.13 1.09.08 1.52.47.39.72-.14 1-.65 1.2q-4.6 1.45-9 3.34a.74.74 0 0 1-.48 0 5.56 5.56 0 0 1-.07-.65c0-4.48.44-3.87 3.74-3.49.9.1 1.31-.07 1.58-.83a2.42 2.42 0 0 1 1-1.27c.62.31 1.33-.85 2.02.02z"/><path fill="#fdfbfb" d="M84.33 13.436c-2 0-3.24-1.14-3.21-2.94a3 3 0 0 1 3.16-3c2.19 0 3.26 1 3.25 3s-.88 2.95-3.2 2.94z"/><path fill="#fdfbfc" d="M21.6 7.466c1.93 0 3 1.16 2.9 3.15a2.83 2.83 0 0 1-3.17 2.94 2.89 2.89 0 0 1-3.1-3.18c0-1.77 1.36-2.95 3.37-2.91z"/><path fill="#fdfbfb" d="M37.54 13.376c-.81 0-1.31.14-1.65 0-.76-.39-1.33-.67-2.19 0-.52.4-1.28.06-1.13-.93a12.68 12.68 0 0 0 0-3.93c0-.28-.07-.72.17-.72a11.77 11.77 0 0 1 3.37.2c.93.27 1 1.65.63 2.12-.95 1.27-.14 2.05.8 3.26zm24.53-.05c-1.06.12-2.11.21-2.83-1.38-.06 1.28-.57 1.57-1.38 1.42-1.12-.2-.35-1-.38-1.42-.08-1.14 0-2.3 0-3.45 0-.78.26-1.15 1.08-.88a1.9 1.9 0 0 0 .48.09c2.62.15 3.07.87 2.06 3.34.2.84 1.49 1.18.97 2.28zm13.57-2.72a2.44 2.44 0 0 1 0-.49c.16-.76-.48-1.93.45-2.2s2.27-.72 3.12.16a2 2 0 0 1 .07 2.82c-.42.47 0 .79.18 1.17s1 .68.52 1.19a1.32 1.32 0 0 1-1.56 0c-.6-.41-.93-.78-1.57 0-.27.34-1.21.23-1.21-.72v-2 .07z"/><path fill="#fcf9f9" d="M31.06 10.076c0 2.86-.52 3.39-3 3.39a1.85 1.85 0 0 1-2.07-1.85c-.14-1.13.15-2.28-.11-3.43-.12-.55.44-.69.91-.66s.89.32.75 1a4.53 4.53 0 0 0 .11 2.75c.15.35.32.76.81.68s.58-.46.59-.87v-2c0-.68 0-1.32 1-1.33s1 .66 1 1.34c.01.32.01.65.01.98z"/><path fill="#fdfbfb" d="M43.16 9.326c.08.12.13.27.21.29 1.37.42 2.3 1.16 1.77 2.75s-1.91.96-3.1 1.03a.89.89 0 0 1-1-.69 1.11 1.11 0 0 1 .39-1c.36-.36.7-.13 1 .11s.57.35.9 0c-.07-.65-.68-.55-1.08-.74a1.61 1.61 0 0 1-1.02-1.7c.06-.72.2-1.42 1-1.71a3 3 0 0 1 2.38 0 .62.62 0 0 1 .25.86c-.12.28-.2.67-.63.63s-.73-.19-1.07.17z"/><path fill="#fbf8f8" d="M94.1 7.476c.93.59 2 .06 3 .38.38 1.37.26 1.49-.91 1.42a1 1 0 0 1 1.23 1.21c0 1-.7 1.2-1.58 1.06.84.13 1.91.14 1.28 1.5-.89.62-1.89.28-2.84.34-.44 0-.77-.18-.74-.65.11-1.75-.38-3.54.3-5.27.06-.14.16-.14.26.01z"/><path fill="#fdfcfc" d="M48.45 9.446c.49.29 1.47-.12 1.48 1s-1.2.43-1.51 1c0 .12 0 .27.1.3.59.27 1.78-.34 1.64 1s-1.21.52-1.86.65c-1.35.28-1.92-.3-1.72-1.67a10.63 10.63 0 0 0 0-1.47c0-2.39 0-2.37 2.25-2.52.64 0 1.29-.18 1.34.69s-.67.65-1.18.69c-.21 0-.44-.03-.54.33z"/><path fill="#c26c6c" d="M83.6 97.586v-.34a10.83 10.83 0 0 0 .67-3.3c.08-.54.2-1.11.84-1.29s1.14.24 1.46.79a4.78 4.78 0 0 1 .81 3.73 1.21 1.21 0 0 0 .52 1.39c-1.5-.13-3.02-.03-4.3-.98z"/><path fill="#fcfbfb" d="M51.5 10.436c.13-2.21 1.75-3.49 3.7-2.9.56.17 1 .41.82 1.16-.18.59-.47.76-1.09.51-.81-.31-1.34.21-1.79.82s-.08.87.16 1.21c.4.55.91 1 1.67.62.41-.19.82-.45 1 .23a1 1 0 0 1-.63 1.31 2.77 2.77 0 0 1-3.84-2.96z"/><path fill="#fdfbfb" d="M63.71 7.486c.47.4 1 .2 1.57.27s1.33-.3 1.39.66-.92.47-1.35.84c.44.39 1.37.13 1.38 1.08 0 1.27-1.33.41-1.7 1.18.27.41.77.17 1.12.32a.85.85 0 0 1 .57.89.59.59 0 0 1-.75.64c-.95-.17-2.11.59-2.82-.63a23.53 23.53 0 0 1-.18-4.41c-.02-.48.16-.9.77-.84z"/><path fill="#fcfafa" d="M13.57 7.696c.81 1 1.77.56 2.88.06.52-.23 1.42 0 .65 1.05s-1.8 2.35-1.42 4c.16.68-.46.58-.88.58s-1-.11-.79-.72c.54-1.57-.52-2.59-1.2-3.73s-.58-1.18.76-1.24z"/><path fill="#653838" d="M69.75 22.326c-.42-.73.56-1.83-.61-2.36a14 14 0 0 1 6.86-.24l-2 2.27a4.38 4.38 0 0 1-4.25.33z"/><path fill="#fcfafa" d="M69.7 7.776h1.31c.71.07.87.83.52 1-1.42.76-.69 2-.87 3-.12.68 0 1.58-1 1.52s-.77-.88-.88-1.51c-.18-1 .55-2.27-.86-3-.36-.2-.19-1 .51-1 .39-.05.8-.01 1.27-.01z"/><path fill="#fbf7f8" d="M88.85 10.506v-2c0-.89.73-.89 1.27-.92.7 0 .46.53.44 1v2s.2 1.46 1.17 1.42c.64 0 .72.35.71.83s-.35.62-.78.62a10.15 10.15 0 0 0-1.31 0c-1.12.15-1.64-.26-1.5-1.44a12.06 12.06 0 0 0 0-1.47v-.04z"/><path fill="#633737" d="M51.23 26.626l-.11 2.95c-.89.47-1.55 1.93-2.85.67-.22-.88 0-1.9-.72-2.64.72-1.13 2-1.36 3.1-1.83s.43.55.58.85z"/><path fill="#e1b7b7" d="M63.71 7.486c-.82.38-.23 1.05-.31 1.58-.17 1.22.29 2.48-.27 3.67-.5-.05.3 2.17-1.06.61.06-.93-1.31-1.23-1-2.28.34 0 1 .82.85-.36-.06-.48-.1-1-.13-1.44-.07-1.66.38-2.15 2-2.15a8.23 8.23 0 0 1 2.92.36l-3 .01z"/><path fill="#b06262" d="M90.52 75.756a2.25 2.25 0 0 1-3.22 1.4 1.08 1.08 0 0 1-.43-1.66 3.15 3.15 0 0 1 1.91-1.66c.65.58 1.54.93 1.74 1.92z"/><path fill="#fcf8f8" d="M100.07 103.406c.06-.47-.09-1 .49-1.14s.75.22.9.68.25.86.81.89c.4 0 1.15-.54 1 .38a1.72 1.72 0 0 1-1.3 1.63c-.58.1-1.26.14-1.51-.6a17.59 17.59 0 0 1-.39-1.84z"/><path fill="#fcfaf9" d="M95.23 102.496c.86.3 1.74.57 1.85 1.64a1.08 1.08 0 0 1-1.24 1.21c-.85-.08-1.92-.43-2.06-1.33a1.55 1.55 0 0 1 1.45-1.52z"/><path fill="#7c4545" d="M92.84 30.256v-2c.79-.25 1.27.58 2 .56 1.24.94 1.28 2.38 1.53 3.72-.81-1.3-2.51-1.28-3.53-2.28z"/><path fill="#deb1b1" d="M97.08 13.046c.16-1.31-.88-1.24-1.88-1.4.8-.4 1.89 0 1.86-1.24s-1-.82-1.84-1.11c1-.24 2.15-.07 1.85-1.44.08-.32.15-.68.59-.64s.43.31.43.6a7.53 7.53 0 0 1-.06 1.64 4.81 4.81 0 0 0 0 3.46c.06.12.19.43-.16.5.03-.74-.79.35-.79-.37z"/><path fill="#fdfbfb" d="M98.65 112.786c-.21.75-.18 1.68-1.28 1.61s-1.14-.87-1-1.55-.33-1.68 1-1.7 1.05.93 1.28 1.64z"/><path fill="#623636" d="M85.16 21.396l-.59 1.57c-1.2 1-2.08.78-2.66-.66a5 5 0 0 1 .94-1.92c.75.4 1.73.25 2.31 1.01z"/><path fill="#c06b6b" d="M28.77 63.326c1 .64 2.2 0 3.46.44a18.27 18.27 0 0 0-4.83 2.8c-.08-1.14 1-2.14.4-3.33l.97.09z"/><path fill="#faf5f6" d="M102.7 109.326c0 .54.09 1.23-.64 1.12-1-.15-1.13-1.34-1.77-2-.27-.26.39-.89.9-.89 1.11.03 1.44.84 1.51 1.77z"/><path fill="#e3baba" d="M11.59 22.986c.51.5.29 1.14.29 1.71v12.81c-.53-.49-.32-1.13-.32-1.71.02-4.27.03-8.54.03-12.81z"/><path fill="#fbf7f7" d="M100.85 110.136c0 .38-.14.59-.37.6-.77 0-1.21-.61-1.8-.94-.4-.23-.28-.79-.2-1.23a.43.43 0 0 1 .63-.33c.81.47.8 1.65 1.74 1.9zm1.55 3.19c-.11.36.18 1.09-.49 1-.89-.18-.95-1.11-1-1.84 0-.4.17-1 .7-.88.82.15.74.98.79 1.72z"/><path fill="#703e3e" d="M94.85 28.836c-.87.55-1.37-.24-2-.56l-.07-2c1.17.44 1.45 1.65 2.07 2.56z"/><path fill="#975454" d="M80.57 141.206a3.78 3.78 0 0 1-3.59-1.7c1.52-.12 2.45 1 3.59 1.7z"/><path fill="#faf5f5" d="M97.69 117.516c.45 0 .73.27.71.71 0 .59-.43.83-1 .83s-.91-.21-.83-.74.66-.65 1.12-.8z"/><path fill="#fbf7f7" d="M94.45 115.856c0 .46-.07.88-.68.86s-.63-.48-.64-.91-.06-.95.56-1 .75.52.76 1.05z"/><path fill="#faf5f5" d="M99.09 93.026c0-.5.18-.91.64-.9.67 0 .7.56.7 1.07s-.13.78-.65.7-.65-.51-.69-.87z"/><path fill="#975454" d="M82.92 142.486c-1.28.5-1.76-.47-2.34-1.27a5.11 5.11 0 0 1 2.34 1.27z"/><path fill="#f9f2f2" d="M95.73 108.446c-.07.35-.26.6-.63.57a.51.51 0 0 1-.5-.65.61.61 0 0 1 .72-.48.47.47 0 0 1 .41.56z"/><path fill="#f8f0ef" d="M105.4 102.256c.39 0 .57.17.56.48a.6.6 0 0 1-.56.66c-.33 0-.45-.28-.5-.53-.1-.43.21-.54.5-.61z"/><path fill="#f9f2f2" d="M95.17 97.826c-.48.05-.64-.17-.68-.45s0-.69.47-.7.45.24.47.55a.69.69 0 0 1-.26.6z"/><path fill="#f8efef" d="M100.07 97.676c.25.05.3.31.3.6s-.15.56-.47.55-.52-.36-.47-.71.2-.5.64-.44z"/><path fill="#faf3f4" d="M91.43 114.926a.52.52 0 0 1-.56.47c-.36 0-.67-.1-.62-.55s.33-.39.62-.39a.5.5 0 0 1 .56.47z"/><path fill="#f8f1f1" d="M95.23 95.396a.55.55 0 0 1-.51.51c-.35.05-.66-.06-.72-.43s.2-.47.49-.5a.62.62 0 0 1 .74.42z"/><path fill="#deb1b1" d="M94.1 7.476h-.3c.82-.69 1.73-.14 2.61 0H94.1z"/><path fill="#975454" d="M76.98 139.506c-.63.37-.93.1-1-.54a.92.92 0 0 1 1 .54z"/><path fill="#b06262" d="M25.14 156.686H8.29c-.29-3-1.32-5.84-1.9-8.78-.22-1.12-.48-2.24-.72-3.35-.28-1.3.51-1.8 1.59-2 3.27-.59 6.54-1.14 9.81-1.72q1.29-.23 2.56-.54c1-.25 1.84.07 2.07 1.07 1.18 5 2.29 10 3.42 15a1.86 1.86 0 0 1 .02.32z"/><path fill="#8c4e4e" d="M28.04 115.426c1.41.44 2.3 1.61 3.36 2.51a40.47 40.47 0 0 0 12.08 6.79c5.44 2.11 11.07 2.41 16.79 2.27a19.75 19.75 0 0 0 3.88-.55c.43-.1.85-.28 1.21.16a35.53 35.53 0 0 0-.93 6.27c-.14 1.25-.25 2.5-.36 3.75a.88.88 0 0 1-1 .9 9 9 0 0 0-3.66-1.27c-2.38-1-4.78-2-7.14-3.14a135.16 135.16 0 0 1-18-9.75 9.39 9.39 0 0 1-3-3.65c-.65-1.7-2.38-2.65-3.23-4.29z"/><path fill="#b26363" d="M31.4 119.716a19.71 19.71 0 0 1 3 3.65c-1.2-.18-2-1.07-3-1.67a1.24 1.24 0 0 1 0-1.98z"/><path fill="#5e3434" d="M63.81 156.636c-.92-2.14-1.28-4.48-2.38-6.55.82-3.85 1.78-7.67 2.32-11.57.93 0 1.23.81 1.67 1.41 1.3 1.76 2.53 3.58 3.87 5.3a3.62 3.62 0 0 1 .71 2.94c-.39 2.53-.9 5-1.25 7.58-.11.82-.44 1-1.16 1-1.26-.1-2.52-.09-3.78-.11z"/><path fill="#864a4a" d="M84.23 149.756a6.31 6.31 0 0 1 5.43 4.47c.35 1 1.63 1.31 1.84 2.43h-9.27a5 5 0 0 1-1.86-2 38.72 38.72 0 0 0-2.39-3.52 3.33 3.33 0 0 1-.73-2c-.08-1.34.31-1.72 1.59-1.36a35.56 35.56 0 0 1 5.39 1.98z"/><path fill="#744141" d="M84.23 149.756a25.64 25.64 0 0 1-5.67-1.79c-.66-.31-.9 0-.93.64a3.83 3.83 0 0 0 .87 2.54c1.29 1.8 2.49 3.68 3.72 5.52-1.85.34-3.1 0-3.81-2.12-.91-2.65-2.65-5-3.46-7.69.06-.25.16-.72.41-.54.79.58 2.71 1.31 3.64 1a9.06 9.06 0 0 1 2.92-.21c.57 0 1.51-.4 1.56.62s-1 .45-1.59.84c.81.43 2.07-.09 2.34 1.19z"/><path fill="#744140" d="M73.96 156.736c-.39-3-2.06-5.49-2.58-8.51l6.19 8.5h-3.61v.01z"/><path fill="#774242" d="M38.98 56.976a45.67 45.67 0 0 1 14.35-10.22 45.34 45.34 0 0 1 13.42-4.11 23 23 0 0 1 14.57 2.74 7.49 7.49 0 0 1 3.59 5.43 11.93 11.93 0 0 0 .67 1.83 3 3 0 0 0-.37 3.35 2.7 2.7 0 0 1-2.45 1h-6.43c-7.41 0-14.82.5-22.24.38-1.63 0-3.26.39-4.92.23-2.81-.28-5.64 0-8.45-.13-.6-.03-1.33.25-1.74-.5z"/><path fill="#784243" d="M43 37.496c-2.42-.17-4.09 1.45-5.77 2.65-4.33 3.06-8.82 5.86-13.18 8.86-2.29 1.58-4.63 3.08-6.93 4.64-.63.43-1.23.84-1.83 0s0-1.25.65-1.67q6.7-4.49 13.38-9c3-2.05 6-4.14 9.07-6.21 1.6-.31 3.21-.51 4.61.73z"/><path fill="#784242" d="M55.23 27.586a10.61 10.61 0 0 1 3.41-1.68 34.53 34.53 0 0 1 6-2 .9.9 0 0 0 .79-.89c.57.41.26 1 .27 1.51 0 3.62.11 7.25 0 10.87-.06 1.59.5 2 1.93 1.82.7-.09 1.42-.07 2.13-.1-1.22.76-2.54.36-3.81.27-.74-.05-.49-.88-.49-1.38 0-3-.07-5.94 0-8.91 0-1.15-.34-1.5-1.36-1.11-2.64 1-5.26 2.06-7.89 3.08-.57.22-.65.69-.68 1.2a5.83 5.83 0 0 1-.3-2.68z"/><path fill="#794343" d="M81.91 22.326a2 2 0 0 0 2.66.66c1 0 2 .13 2.94.06s1.3.27 1.29 1.28c-.06 3.72 0 7.43-.06 11.15 0 1.39.25 2.05 1.76 1.8a20.22 20.22 0 0 1 2.28-.13c-1.37.86-2.88.22-4.31.39-.36-1.94 0-3.9-.12-5.85-.09-1.35.21-2.71-.16-4.05a8.32 8.32 0 0 0-4.13-2c-2.24-.41-4.34-1.52-6.7-1.27-.18-1.1.15-1.44 1.33-1.16s2.54.87 3.22-.88z"/><path fill="#784342" d="M69.75 22.326l4.21-.33a23.29 23.29 0 0 0-.32 6.27c-.67-.87-.29-1.88-.3-2.81s-.12-1.35-1.21-1.19a13 13 0 0 0-2.37.38l-.01-2.32z"/><path fill="#7c4545" d="M48.3 30.246c1.19.81 1.79-.92 2.85-.67a11.82 11.82 0 0 1 .32 2.65c-1.29-.85-2.13.47-3.2.66l.03-2.64z"/><path fill="#faf4f4" d="M43 37.496l-4.64-.68a10.74 10.74 0 0 1 1.25-3c.26 1.7.71 3.11 3 2.56a1.58 1.58 0 0 1 1.36 1.15l-.97-.03z"/><path fill="#f8f1f1" d="M31.64 36.566c1.45-.69 3 .09 4.47-.34-.39 1.39-1.16 1.84-2.52 1.12-.61-.32-1.36-.31-1.95-.78z"/><path fill="#532d2d" d="M88.23 27.606c.62 1.24.23 2.56.27 3.84.07 2 0 4 0 6.06a.79.79 0 0 1-.66-1c.81-2.97.11-5.95.39-8.9z"/><path fill="#f8f2f2" d="M60.17 36.946c-.43-1.14-.69-2.24.6-3 .62-.23.87 0 .59.58a9.25 9.25 0 0 1-1.19 2.42z"/><path fill="#faf4f4" d="M45.23 37.406c-.56-1.39.68-1 1.24-1.23a3.23 3.23 0 0 1-1.24 1.23z"/><path fill="#854a49" d="M38.05 54.386a1 1 0 0 1-.75.9c-.3-.75.13-.9.75-.9z"/><path fill="#8c4e4e" d="M52.23 73.826a20.06 20.06 0 0 0 4.59-.28 1.53 1.53 0 0 1 1.69.28c-2.41 1.76-3.84 4.34-5.49 6.72-4.86 7-15.8 6.71-20.15-.62a13.74 13.74 0 0 1-1.74-8.41c1.34-.66 2.67-1.34 4-2 .57-.26 1.24-.57 1.59.36a.84.84 0 0 1 .23.76 8.64 8.64 0 0 0 2.35 7.87 6.3 6.3 0 0 0 6.46 2.58c3.11-.89 5.41-2.66 6-6.09a2.92 2.92 0 0 1 .47-1.17z"/><path fill="#b06262" d="M76.94 73.176c.57 0 1.19-.21 1.68.3h-1.25c.88.76 1.9.49 2.58 1.12s1.82.94 1.53 2.07-1.51 1-2.23 1c-1.59-.06-3.27-.2-4.48-1.55-.44-.5-1-1-.68-1.7a1.8 1.8 0 0 1 1.64-.91c.42-.05.89.1 1.21-.33z"/><path fill="#e0b5b5" d="M73.03 87.046c-.1.53-.23 1.06-.29 1.6s0 1-.72 1.07a1.06 1.06 0 0 1-1.1-.79 15.37 15.37 0 0 0-1-2.22c-.73-1.15-.45-1.87.76-2.33 2.26-.57 2.26-.57 2.35 2.67z"/><path fill="#8c4e4e" d="M39.84 100.566a26.59 26.59 0 0 1 19.32 8.46 8.4 8.4 0 0 1 .88 10.75 10.74 10.74 0 0 1-6.63 3.92 19.13 19.13 0 0 1-10-.4c-6.47-2.06-12.12-5.3-14-12.51a8.21 8.21 0 0 1 7.82-10.22c.85-.03 1.73 0 2.61 0z"/><path fill="#e0b3b4" d="M68.74 97.556c.3-1.27.61-2.54.92-3.81.12-.51.4-1 .94-1s.8.47 1 .94c.38 1.08.75 2.17 1.12 3.25-.05.84-.69.67-1.2.68-.95 0-1.87-.04-2.78-.06z"/><path fill="#5e3434" d="M63.77 59.326c1.48 0 3-.09 4.44 0 5.21.2 10.41-.47 15.62-.31.81 0 1.28-.46 1.91-.88.45 1 1.14 1.84.28 3-.28-1.1-.92-1.39-2-1.39-6.75 0-13.5-.08-20.24-.14-.12-.06-.16-.12-.12-.17s.07-.11.11-.11z"/><path fill="#5b3232" d="M38.98 56.976c1.13.63 2.37.24 3.55.34 2.22.18 4.46-.35 6.66.28h-9.78c-.29.04-1.65.45-.43-.62z"/><path fill="#7d4545" d="M63.77 59.326a1.15 1.15 0 0 0 0 .26h-2.63q-.19-.09-.12-.19c0-.06.08-.09.12-.09l2.63.02z"/><path fill="#a05859" d="M61.14 59.326a1.21 1.21 0 0 0 0 .28h-2.27v-.28h2.27z"/><path fill="#fdfcfc" d="M39.02 78.886c-1.68-1.93-3-4-2.7-6.73.09-.75.26-1.49.4-2.23.5-1.05 1.16-1.28 2-.38.47.49 1.28.59 1.55 1.33a3.17 3.17 0 0 1-.25 1.45 3.88 3.88 0 0 0 1.89 4.59 4 4 0 0 0 4.93-.85c.37-.4.55-1 1.08-1.2.67-1.71 1.42-1.85 3.68-.67a.82.82 0 0 1 .15.62c-1.13 5.2-7.51 7.4-10.48 5.39-.52-.53-.8-1.44-1.83-1.21a.91.91 0 0 1-.42-.11z"/><path fill="#5f3434" d="M47.92 74.846c-.62 2.6-4 3.59-6 2.54-2.55-1.32-3.22-4-1.62-6.51 2.4.65 4.65 1.74 7.08 2.3.93.2.35 1.15.54 1.67z"/><path fill="#663838" d="M39.02 78.886a.84.84 0 0 1 .28-.05 2.66 2.66 0 0 1 2 1c4.4 1.87 8.83-.57 10.34-5.68l.6-.35c.1 3.47-1.66 5.66-4.67 7.16s-5.38.57-7.81-1a1.29 1.29 0 0 1-.74-1.08z"/><path fill="#e2b9b9" d="M29.08 25.696v-1.15c0-.38.05-.89.67-.91s1.17.06 1.24.77 0 1.64 0 2.46-.36 1.08-1.12 1.08-.84-.51-.83-1.1v-1.15h.04z"/><path fill="#e2baba" d="M84.32 12.066a1.63 1.63 0 0 1-1.38-1.57 1.2 1.2 0 0 1 1.29-1.35c.8 0 1.57.32 1.6 1.26s-.65 1.41-1.51 1.66z"/><path fill="#e1b8b8" d="M20.92 11.886a1.36 1.36 0 0 1-1-1.37 1.32 1.32 0 0 1 1.48-1.39 1.3 1.3 0 0 1 1.38 1.47c-.03.96-.71 1.24-1.86 1.29z"/><path fill="#e2baba" d="M34.64 9.016c.09.1.25.19.3.33a.36.36 0 0 1-.27.49c-.21.06-.28-.11-.29-.28s-.04-.43.26-.54z"/><path fill="#e6c3c3" d="M59.78 9.546c-.14.13-.23.29-.35.31-.32 0-.3-.21-.24-.39a.4.4 0 0 1 .31-.23c.09 0 .17.18.28.31z"/><path fill="#e2b8b8" d="M77.65 9.976c-.09-.08-.23-.14-.29-.26a.33.33 0 0 1 .19-.49c.09 0 .28.1.34.21s0 .38-.24.54z"/><path fill="#c26b6c" d="M71.41 56.326c-3.67 0-6.29-2.29-6.32-5.54a5.64 5.64 0 0 1 5.22-5.93c4-.21 7.09 2.15 7.19 5.25a5.92 5.92 0 0 1-6.09 6.22z"/><path fill="#623636" d="M85.3 23.326h2.45c.46 0 .75.2.73.68s.23.83-.21 1-.68 0-1-.38c-.39-.53-1.32-.3-1.97-1.3z"/><path fill="#b06262" d="M49.13 122.056c-6.88-.2-12.5-2.91-16.47-8.61-1.5-2.16-2.19-4.6-1-7.3a6.17 6.17 0 0 1 4.72-3.47 20.86 20.86 0 0 1 12.37 1.76 23.68 23.68 0 0 1 7.38 4.43c1.76 1.72 3.38 3.52 3.33 6.3s-1.55 4.35-3.71 5.55a12.35 12.35 0 0 1-6.62 1.34z"/><path fill="#f8efef" d="M41.23 79.856a3.48 3.48 0 0 1-2-1c1.38-.95 1.65.14 2 1z"/><path fill="#b06262" d="M71.42 47.146c2.42.19 4 1.6 3.89 3.42a4.06 4.06 0 0 1-4.3 3.69c-2.08-.17-4-2.1-3.89-3.85.17-2.08 1.92-3.45 4.3-3.26z"/></g></svg>