<svg width="108" height="157" xmlns="http://www.w3.org/2000/svg"><title>background</title><path fill="none" d="M-1 -1H109V158H-1z"/><g><title>Layer 1</title><path fill="#bbd5ec" d="M.276 143.901c0-5.67-.09-11.34 0-17 0-1.45.54-2.87 0-4.35a1.92 1.92 0 0 1 .22-1.43c1.29-2.19.69-4.21 0-6.49a8.46 8.46 0 0 1 .34-6.52 3.33 3.33 0 0 0-.2-3.81c-.81-1-.62-2.43.5-2.71 1.59-.4 1.11-1.45.86-2.31a16.55 16.55 0 0 1 0-8.19 18.32 18.32 0 0 0 0-7.19c-.29-1.5-1.09-2.89-.24-4.53.39-.75-.51-1.82-.11-2.71a3.94 3.94 0 0 0 .5-2.5c-.21-1.13.22-2.47-1.41-3-.29-.09-.26-.71-.11-1.08.23-.57.65-.16 1-.13 2.13.19 2.64-.2 3.24-2.17.26-.85.11-1-.78-1a2.54 2.54 0 0 1-2-4c.38-.56.65-1.08.22-1.64-1.2-1.58-.93-3.19-.13-4.78a2.57 2.57 0 0 0-.09-2.5c-1-2-.71-2.82.89-4.25 1-.88 1.43-.46 1.81.48.12.3.11.66.24 1a.81.81 0 0 0 1.12.43c.63-.26.35-.67.09-1.06a2.15 2.15 0 0 1-.37-.72c-.28-1.47-1-2.15-2.53-1.47a2.55 2.55 0 0 1-.88 0c.54-1.8 1.86-3.4.75-5.32-.64-1.12-1.63-2.08-1.5-3.54 0-.52-.67-.31-.8-.7-.51-1.06-.14-2.16-.14-3.24V3.851c0-1.48.18-2.7 1.51-3.53.52-.48 1.16-.28 1.74-.28h101.31c2.42 0 2.78.36 2.78 2.76v151.91c0 2-.35 2.4-2.41 2.4h-19.25c-2.42-1-4.27-2.84-6.34-4.34-3.33-2.41-6.49-5-9.89-7.35a2.82 2.82 0 0 1-.36-.32 8.17 8.17 0 0 1-1.88-4.53c0-.31.34-.66-.1-.94a.78.78 0 0 1-.13-.4c.06-1.49.09-3 .25-4.48a1.84 1.84 0 0 1 .1-.76c.38-1.15 1.35-1.12 2.29-1.16 1.91-.07 3.84.19 5.72-.48 2.89-1 4.24-2.7 4.26-5.73a21.48 21.48 0 0 0-.17-5.23c-.06-1.17-.65-2.32-.19-3.52.55-.64 1.21-.37 1.83-.18a80.55 80.55 0 0 1 10.3 4.06 7.92 7.92 0 0 1 1.75 1.23 10.14 10.14 0 0 0 4.09 2.1c3.11.79 4.2.16 5.2-2.78.85-2.5 1.59-5 2.56-7.49s.74-3.39-1.39-4.8a9.16 9.16 0 0 0-5.87-1.75 2.51 2.51 0 0 0-2.58 1.85c-.8 2.52-1.64 5-2.5 7.52-.35 1-1 1.69-2.11 1.22a71.65 71.65 0 0 0-11.06-3.4 1.06 1.06 0 0 1-.41-.27.77.77 0 0 1 0-.75c.59-.5 1.25-.25 1.9-.19 1.78.18 2 0 2.35-1.69a8.79 8.79 0 0 1 .35-1.44c.16-2.35-.87-4.5-1.13-6.78 0-.22-.09-.43-.12-.65a2 2 0 0 1 1.12-2 9.4 9.4 0 0 0 2.06-1.78 8.46 8.46 0 0 0 2.89-5.61 19.65 19.65 0 0 0-.58-8.82 8.07 8.07 0 0 0-1.16-2.18 3.32 3.32 0 0 0-4.64-1.14c-.56.26-1 .89-1.79.44a1.83 1.83 0 0 1-.06-1.79c.89-.82 2.06-.64 3.12-.84.78-.14 1.6-.16 1.75-1.16a1.77 1.77 0 0 0-1.36-2 16 16 0 0 1-3.07-1.25 2.17 2.17 0 0 1-.84-1.42c-.54-4.12-2.48-7.71-4.27-11.36a28.87 28.87 0 0 0-6.55-6.93 6.91 6.91 0 0 1-2.28-2.11.7.7 0 0 1 .11-.46c.47-.54 1.18-.53 1.78-.76 4-.85 7.92-1.69 11.25-4.15 3.87-2.88 6-6.65 5.71-11.61.49-.51-.26-.77-.25-1.18.48-1.4-.37-2.54-.77-3.76-.22-.68-.56-1.31-.78-2a26.87 26.87 0 0 1-.15-4.26c-.07-2.77-.84-3.68-3.54-4.19a13.75 13.75 0 0 1-1.45-.29 2.31 2.31 0 0 0-3 1.23 2.9 2.9 0 0 1-1.21 1.31c-1.84-.08-3.68.35-5.51 0-1.26-3.1-4.14-2.33-6.53-2.71-.7-.11-1.43 0-2.14-.13-1.42-.22-1.86.78-2.35 1.68-.3.56.12.8.54 1a2 2 0 0 1 1.2 2.1 22.41 22.41 0 0 1-.15 4.42c-2.24 1-3.71 1.14-5.58.34a5.55 5.55 0 0 1 0-2.47 15.11 15.11 0 0 0-2.14-.05 1.83 1.83 0 0 1-1.95-2c-.07-1.66.33-2 2-1.8 2.21.31 3-.06 3.66-1.59.29-.68.13-1.1-.6-1.16-1.66-.12-3.27-.54-4.93-.61-1.5-.07-3.12 2-3.19 4.19-.09 2.86 0 5.72 0 8.58a5.85 5.85 0 0 1-.22 2.28c-.17.25-.52.46-.62.13-.43-1.38-1.26-1-2.14-.58-.39.18-.82.37-1.23 0a14.9 14.9 0 0 1-.05-2c0-1.62.32-3.3-1.09-4.63-.48-.45 0-1 .3-1.48.85-1.4.34-5.36-1.08-5.83a19.48 19.48 0 0 0-7.48-.74c-1.17.08-1.34 1.77-.37 2.56a1.78 1.78 0 0 1 .67 1.58c-.07 2.42 0 4.84 0 7.26a2.33 2.33 0 0 1-1.06 2.26 2.4 2.4 0 0 0-.75.87c-.94 1.53-.71 2 1.08 2.09 2 .13 4 .64 6 .87.91.85 0 1.37-.41 1.91-1.56 1.85-3.5 3.31-5.16 5.08-6.46 6.91-13.09 13.67-19.93 20.21a12.94 12.94 0 0 0-4.37 8c-.05.25-.54 0-.42.28.06.12.44.19.57.44 1 4.12 1.94 8.26 2.8 12.41a9.78 9.78 0 0 1-.32 2.73c-.62 3.68-.54 7.33 1.58 10.59 1.42 2.2 2.83 4.47 5.48 5.49a1.59 1.59 0 0 1 .74.86 76.7 76.7 0 0 1 2.82 10c.4 4.14 1 8.27 1.4 12.41.12 1.12 1 1.36 1.86 1.53a61 61 0 0 1 6.47 1.48 27.8 27.8 0 0 1 3.9 1.09c.81 1.3-.85 1.18-1.08 1.88a20.43 20.43 0 0 0 4.46 4.73c4.1 3.59 7.7 7.68 11.79 11.26a13.91 13.91 0 0 1 1.93 1.83c.3.38.92.8.18 1.35-2.73.11-5.29-.8-7.91-1.32-1.61-.32-3.24-.59-4.83-1a3 3 0 0 0-2.44.27 1.62 1.62 0 0 1-1.45-.62c-4.18-3.82-8.43-7.57-12.52-11.47-3.06-2.92-3-3-7-1.48-4.26 1.65-8.59 3.12-12.85 4.79-1.51.25-2.82 1.42-4.51 1.13z"/><path fill="#1b2b3a" d="M4.816 142.361c5.31-2 10.63-4 15.93-6 .93-.36 1.32.2 1.83.67l15.81 14.34c.3.2.69.22 1 .45 1.33 1 2.34 2.27 3.57 3.34.47.61 1.6.73 1.38 1.85-.77 0-1.54.1-2.31.1H3.086c-.75 0-1.56.18-2.2-.43a4.1 4.1 0 0 1 .13-1.93c.71-2.25.9-4.61 1.44-6.9.24-1 .35-2 1.42-2.62s.28-2.02.94-2.87z"/><path fill="#1a2836" d="M70.266 145.041a2.38 2.38 0 0 1 .76.23q7.72 5.84 15.42 11.71a75.45 75.45 0 0 1-10.14 0c-1.32-1.21-1.69-3-2.62-4.42-.34-.77-.75-1.5-1.09-2.28a1.51 1.51 0 0 0-.95-1.55c-.43-1.26-1.71-2.18-1.38-3.69z"/><path fill="#6591ba" d="M66.606 156.941h-3.67c-.42-.59 0-1.05.28-1.49a8 8 0 0 0 1.22-4.69c0-2.62 0-5.25-.06-7.88a6 6 0 0 1 .24-2.11 1 1 0 0 1 .34-.43 1.07 1.07 0 0 1 1.06.87c1.34 3.93 2.72 7.85 3.79 11.86a.88.88 0 0 1-.07.48c-1.63.61-2.42 2-3.13 3.39z"/><path fill="#bad5ec" d="M42.766 155.311l-3.7-3.28c.41-1.15 1.33-.69 2-.55 4.46.87 8.9 1.89 13.36 2.78a3.33 3.33 0 0 1 1.63.88c.33.56 1 1 .58 1.81-2.11-.18-4.22.55-6.34 0-1.73-.46-3.53-.55-5.27-.95a6.1 6.1 0 0 1-2.26-.69z"/><path fill="#88b1d7" d="M56.676 156.961l-.72-1.58c.69-.64 1.46-.25 2.19-.15 2.69.39 4.22-.83 4.29-3.57.08-3.06 0-6.13 0-9.19a4.05 4.05 0 0 1 .34-2.24 1.57 1.57 0 0 1 2.12.21v11.13c0 2.09-1 3.71-2 5.4l-6.22-.01z"/><path fill="#192834" d="M4.816 142.361c.36.92-.09 1.84 0 2.76 0 .17-.19.5-.31.51-1.9.19-1.31 1.75-1.67 2.84-.75 2.25-.51 4.72-1.64 6.85-.24.46.23 1-.32 1.35-.66-.41-.62-1.09-.62-1.73v-11l4.56-1.58z"/><path fill="#b3cfe9" d="M2.196.221c-.06.37 0 1-.18 1.07-1.68.46-1.12 1.8-1.12 2.83v34.48c-.7-.18-.55-.8-.53-1.23.4-11.75.06-23.5.15-35.25-.02-1.22.18-2.08 1.68-1.9z"/><path fill="#6591ba" d="M73.956 152.351a22.61 22.61 0 0 1 2.35 4.6h-4.36a2.58 2.58 0 0 1-1-1.25 1.26 1.26 0 0 1 0-1.14c1.3-.31 1.75-1.82 3.01-2.21z"/><path fill="#446889" d="M70.916 154.681l.33 1.13c-1.17.27-2.64-.36-3.4 1.13h-1.24c.4-2.63.85-3.13 2.93-3.22a1.22 1.22 0 0 1 1.38.96z"/><path fill="#86afd5" d="M42.766 155.311c2.59.28 5.2.46 7.57 1.69h-6l-1.57-1.69z"/><path fill="#b8d3eb" d="M67.846 156.941c.28-1.61.85-2 2.32-1.5l1.08.37c.27.36.7.63.7 1.15l-4.1-.02z"/><path fill="#b9d3eb" d="M3.366 68.421c-.1.46-.64.57-1.2.58s-.64-.53-.61-1 .07-1.22.82-1.17.93.72.99 1.59z"/><path fill="#dbe8f5" d="M.846 55.121c0 .21 0 .47-.31.47s-.3-.26-.3-.47 0-.47.3-.47.3.26.31.47z"/><path fill="#6591bb" d="M32.736 131.891c-2.51-.54-5-1.07-7.54-1.63-.63-.14-1.3-.23-1.39-1.12-.43-4.18-.89-8.35-1.34-12.53a3.82 3.82 0 0 1 0-.65c.21-.07.46.2.47.18.24-3 1.51-5.74 2.19-8.63.27-1.14 0-1.47-1.09-1.57a14.73 14.73 0 0 0-4.29.14 2.87 2.87 0 0 0-1.33-.89 5 5 0 0 1-1.69-1c-4.18-3.92-5.69-8.81-5.23-14.39.09-1.1 1.09-2 .65-3.26 1.78-.56 3.23-1.87 5.15-2.11 3.14-.4 6-.13 8.26 2.46l3 3a6.6 6.6 0 0 0 2 1.49 4 4 0 0 1 2.64 4c.07 2 0 4 0 5.93s.11 1.9 1.87 1.7c.44-.05.88-.1 1.32-.13a1.75 1.75 0 0 0 1.84-1.85c.26-2.84.46-5.68.62-8.53.07-1.27.42-2.15 1.88-2.15 3.92.15 7.79.84 11.7 1.08a2.06 2.06 0 0 1 1.07.42c.84.95.91 2.2 1.26 3.33a4.12 4.12 0 0 0 2.95 3 31 31 0 0 0 6.6 1.33 3.59 3.59 0 0 1 1.43.79c1.69 1.35 3.66.83 5.56.86a1.2 1.2 0 0 1 .69 1.57c-2.2.82-4.47 1.43-6.71 2.14a63.65 63.65 0 0 0-6.44 2.45c-2.66-.64-4.57-2.51-6.64-4.11-.35-.27-.62-.63-1-.9a1 1 0 0 0-1.46.19c-.56.57-.22 1 .26 1.36 2 1.45 3.72 3.28 6 4.37.41.2.78.42.79 1a2.53 2.53 0 0 1-.48 1.21 11 11 0 0 0-1.6 6.93c.05 1.05.34 1.44 1.48 1.33 2.84-.27 5.55-.77 7.87-2.61a2.68 2.68 0 0 1 2.25-.84 4.92 4.92 0 0 0 3.76 1.66 40.59 40.59 0 0 1 6.84 1c1.29.59 1.7 1.94 2.53 2.93.27.32.42 1 1.07.4a14.55 14.55 0 0 1-.28 8.08c-1.08 2.81-3.63 3.51-6.27 3.84a19.44 19.44 0 0 1-4 0 1.53 1.53 0 0 0-1.75 1c-2.74-1.35-5.75-1.47-8.69-1.83-5.21-.63-10.41-1.39-15.61-2.12a12.15 12.15 0 0 1-10.74-12c-.13-3.3-.72-6.56-1-10.09a27.81 27.81 0 0 0-1.87 12.14 30.16 30.16 0 0 0 2.29 10.27 1.35 1.35 0 0 1 .15 1.36z"/><path fill="#2b435a" d="M25.436 87.211c-3.76-3.2-7.81-3.42-12-.62-.5.33-.87.66-1.27 0l-2.72-12.94a.2.2 0 0 1-.07-.21q0-.11.07-.11c.06-3.48 1.73-6 4.26-8.35 4.9-4.59 9.51-9.49 14.22-14.28q5.45-5.53 10.85-11.15c.38-.39.69-.85 1-1.27a.93.93 0 0 1 .52-.43 4.74 4.74 0 0 0 1.85-1.55c.35-.4.57-1 1.23-.95l.85-.44c2.21-1.13 2.22-1.12 2.72 1.09 1.82 2.42 4.6 1.62 7 2 .91.15 2.18-1.49 2-2.4-.11-.62-.64-.53-1-.55a12.21 12.21 0 0 1-3.45-.33c-.81-.28-1.53-.64-.7-1.63 1.48-.25 2.89-.42 4-1.78a1.58 1.58 0 0 1 2.55.33c.56.79.94.74 1.43 0 .33-.54.7-1.24 1.47-.43.46 1.74.18 3.51.22 5.26 0 1.06.34 1.64 1.53 1.64s1.5-.64 1.49-1.68a25.42 25.42 0 0 1 .07-3.47c.05-.43.12-.94.65-1s.88.39 1.06.84c.53 1.33.83 2.74 1.24 4.11a16.69 16.69 0 0 0 .94 1.46c.16.62-.39.8-.78 1.17a5.66 5.66 0 0 1 2.37-.25c.72 0 1.33.23 1.5 1s-.33 1.26-.93 1.56c-.33.18-.74.17-1 .41 1.2 0 2.8-.75 3.42.86.49 1.28-.87 1.66-1.73 2.07a8.49 8.49 0 0 1 2.19 0 1.32 1.32 0 0 1 1.24 1.14c.1.65-.33 1-.82 1.3a11 11 0 0 1-2 .64 14.27 14.27 0 0 1 3.7-.17c.66 0 1.4 0 1.57.89a1.41 1.41 0 0 1-1 1.57 23.54 23.54 0 0 1-5.25 1.99 2.12 2.12 0 0 0-.92.35c-.45.24-1.15-.05-1.41.63a2.53 2.53 0 0 1-2 .52h-13.89c-1.06 0-2.07.24-3.11.28-4 .15-7.42 2.07-11 3.46-2.11.82-4.2 1.69-6.3 2.55-.64.27-1.19.38-1.13 1.45.07 1.29-1.44 1.26-2.31 1.8.79 0 1.53-.28 2.3-.2s1.48.31 1.64 1.13-.56 1.23-1.25 1.48c-.36.13-.75.17-1.12.27l-.52.2a7.73 7.73 0 0 1 .89-.27c3.28-1.19 6.85-1.3 10.07-2.71a3.53 3.53 0 0 1 1.31-.17 50.86 50.86 0 0 1 8.43.63c.69.09 1.32.27 1.41 1.12s-.45 1.3-1.2 1.54c-1.1.35-2.23.59-3.42.87.69.14 1.35 0 2 .16s1.07.36 1.2 1-.28 1.14-.84 1.46a10.73 10.73 0 0 1-2.07.68c.38.31.87.19 1.26.43a1.47 1.47 0 0 1 .85 1.15 1.26 1.26 0 0 1-.98 1.19 15.65 15.65 0 0 1-3.13.82 13 13 0 0 1 2.32.28 1.26 1.26 0 0 1 .94 1.22 1.16 1.16 0 0 1-.8 1.14 14.19 14.19 0 0 1-2.57.72 2.19 2.19 0 0 0 .79.08c.88.11 1.71.4 1.83 1.37s-.83 1.37-1.59 1.58a7.63 7.63 0 0 1-2.43.55c.77.18 1.55.08 2.3.28a1.18 1.18 0 0 1 1 1 1.52 1.52 0 0 1-1.07 1.47c-1.71.32-3.27.78-3.44 2.92 0 .23-.37.39-.63.51a11.47 11.47 0 0 1-5.38-.19 19.46 19.46 0 0 0-9-.26 4.93 4.93 0 0 1-1.52.17z"/><path fill="#6591bb" d="M29.126 66.111c.52-.18 1-.35 1.56-.55s.95-.47.83-1.06-.61-.69-1.15-.74c-1.23-.11-2.46.55-3.92 0a9.69 9.69 0 0 1 2.59-1.2c.62-.26 1.4-.62.62-1.4s-.1-.7.28-.85c5.14-2 10.1-4.36 15.35-6a26 26 0 0 1 2.73-.55c2.46.18 4.86.76 7.28 1.17 5.92 1.05 11.31 3.52 16.88 5.62a22.63 22.63 0 0 1 4.43 1.83c1.61 3.22 3.4 6.36 4.13 9.95.2 1 .1 2.1.84 3a5 5 0 0 0-4 2.54c-.48.21-1 .46-1.45 0-1.21-2.67-1.61-3-4.32-2.7-3.78.41-7.56.79-11.34 1.24a2.84 2.84 0 0 0-2.43 1.46 26 26 0 0 0-5.16 10 .85.85 0 0 1-.49.61c-1.15.39-2.27 0-3.41-.12-2-.15-3.92-.3-5.86-.6-.58-.09-1.22-.08-1.63-.62.63-.73 1.07-1.47-.14-2.26a15.12 15.12 0 0 1 3.54-1.1c.6-.18 1.43-.25 1.29-1.19s-.85-.69-1.45-.74c-.82-.07-1.63-.19-2.77-.32a17.12 17.12 0 0 1 4-1.3c.53-.16 1.17-.3 1.06-1s-.65-.87-1.24-.89a19.71 19.71 0 0 1-2.81-.17c.91-.91 2.14-.83 3.2-1.23.62-.23 1.62-.1 1.55-1.12s-1-.8-1.67-.88l-2.57-.31c1.28-.86 2.55-.86 3.69-1.23.62-.2 1.45-.19 1.33-1.11s-.88-.87-1.55-.91l-1.71-.09c.1-.83.7-.81 1.2-.93s1.19-.26 1.76-.44 1.26-.36 1.12-1.17-.75-.68-1.31-.73c-.91-.08-1.89.22-2.81-.46a21.56 21.56 0 0 1 4-1.17c.63-.21 1.58-.12 1.57-1.13s-1-.8-1.62-.88c-1.8-.22-3.63-.3-5.42-.64-3-.55-5.45 1.08-8.19 1.51-2 .32-4 .79-6 1.19-.43.11-.47-.04-.41-.33z"/><path fill="#182632" d="M41.436 87.171l11.2 1c1.41-.49 2.82 0 4.21.07s2.63.55 3.76.17.88-2.1 1.38-3.16c1.12-2.39 2.31-4.66 5.15-5.41a5.33 5.33 0 0 1 3.1-.11 5.71 5.71 0 0 1 3.37 2.16c.7.83 1.25.9 2.16.18 2-1.55 4.07-1.29 5.47.49.4.05.56-.29.81-.48a3.68 3.68 0 0 1 5.54.5 10.5 10.5 0 0 1 2.23 5.75 16.81 16.81 0 0 1-1 8.89 5.06 5.06 0 0 1-2.29 2.9 7.23 7.23 0 0 1 0-3.55 15.26 15.26 0 0 0 .64-9.35 8.6 8.6 0 0 0-.47-1.4c-.36-.82-.75-1.74-1.83-1.6s-1.34 1.13-1.31 2.13a4 4 0 0 1 0 .48 2.47 2.47 0 0 1-.41 1.38 3.06 3.06 0 0 1-.3.37c-.45.88-.86 1.22-1.81.36s-2.2-1.27-2.31-2.69c-.82 0-.79.57-.93.94a56.86 56.86 0 0 0-1.58 7.25 11.17 11.17 0 0 1-3.3 6.11 2.63 2.63 0 0 1-1.74.82c-2.65 1-4.88.16-6.89-1.6-1.65-1-2.22-2.73-2.61-4.41a2.62 2.62 0 0 0-2.7-2.29c-1.79-.16-3.65 0-5.34-.85-2.8-.61-5.68-.57-8.5-1-1.47-.22-3-.29-4.43-.43-3.44.47-6.84-.33-10.26-.42a4.34 4.34 0 0 1-2.37-.51l-2.65-2.65a2.44 2.44 0 0 1 1.92-.78c3.16-.37 6.31-.51 9.38.61 1.56.57 3.14.01 4.71.13z"/><path fill="#50799d" d="M32.736 131.891c-3.69-8.25-4-16.54-.18-24.94.17 1.49.29 3 .53 4.46.54 3.34.36 6.77 1.23 10.08a11.8 11.8 0 0 0 9.94 8.4c5.61.66 11.19 1.56 16.8 2.21 2.08.24 4.09.8 6.17 1 .71.07 1.14.34 1.08 1.12v.62c-.27 1.56-.46 3.12-2.15 4a2.89 2.89 0 0 1-2.51.28 4.34 4.34 0 0 0-2.2-.48c-4-.56-7.88-1.59-11.81-2.41-3.72-.78-7.43-1.62-11.13-2.47a2.56 2.56 0 0 1-1.75-.82l-4.02-1.05z"/><path fill="#3c5d7b" d="M58.666 107.081c3.48-2 7.4-2.74 11.11-4.12a8.33 8.33 0 0 1 2.12-.24 3.12 3.12 0 0 1 2.25-.44c1.27 1.07 2 2.59 3 3.84.81 1 1.62 2 3.11 1.79a2.46 2.46 0 0 0 2.48-2.51 3.9 3.9 0 0 1 .3-1.92.33.33 0 0 1 .43-.06c.44 2.52 1.41 5 1.34 7.56a4.22 4.22 0 0 1-1.63.15 3.24 3.24 0 0 0-2.83 1 9.92 9.92 0 0 0-5.92-.41c-1.29.16-2.65.12-3.75 1.19 1.31.05 2.59-.07 3.84.06.51.05 1.44-.24 1.29.88-1.71.67-3.48.25-5.23.33a5.92 5.92 0 0 0-3.7 1.1.66.66 0 0 1-.51.17 8.73 8.73 0 0 0-3.27 1.85c-2.35 1.85-5.22 1.5-7.87 2-.89.17-.88-.56-.94-1.19a12.39 12.39 0 0 1 2.36-9 3.27 3.27 0 0 1 2.02-2.03z"/><path fill="#34526d" d="M68.906 52.761c1.6-1 3.47-1.32 5.13-2.14.44-.22.88-.43 1.31-.66a.79.79 0 0 0 .49-.94c-.12-.5-.54-.48-.93-.49h-4.91a7 7 0 0 1 2.25-1.08c.54-.09 1.32-.27 1.19-1.09s-.74-.81-1.41-.81h-3.28c.53-1 1.65-.43 2.19-1.11.32-.39 1.07-.49.88-1.21s-.8-.68-1.35-.65c-1.08.07-2.16.19-3.49.31a4.53 4.53 0 0 1 2.37-1.39c.55-.19 1-.48.84-1.19s-.6-.57-1.14-.66c-1.22-.2-2.43.6-3.68.11.31-1.06 1.8-.25 1.88-1.42.36-.47.84-.2 1.27-.19a3.59 3.59 0 0 0 1 0c.36-.08.54-.38.73-.65s.16-.24.24-.36c.62-.74 1.07-1.38-.36-1.76-1.1-.29-1.26-1.36-1.59-2.26a18.3 18.3 0 0 0-.61-2.06 2.29 2.29 0 0 1 .57-3 2.71 2.71 0 0 0 .67-2.45c0-.75-.28-1.55.43-2.16 1.84-.11 3.68-.62 5.52 0 .09 1.64-.2 3.27-.19 4.91 0 .66-.45 1-1 1.44-1.22.91-1.21 1.69 0 2.53a2.12 2.12 0 0 1 1 1.79v2.47c0 .65-.36 1.53.87 1.53.93 0 1.77 0 1.88-1.28.08-1 .28-2.07.34-3.11 0-.88.47-1.46 1.43-1.46a1.55 1.55 0 0 1 1.72 1.43 11.9 11.9 0 0 1 .07 2.3 2.05 2.05 0 0 0 1.61 2.18 1.77 1.77 0 0 0 2.42-.68 1.58 1.58 0 0 1 1.15-.86c.67 1 .36 2.1.16 3.12a13.79 13.79 0 0 1-7.24 9.88 28.61 28.61 0 0 1-10.03 3.21q-.26.21-.4-.09z"/><path fill="#88b1d7" d="M53.976 153.341a65.54 65.54 0 0 0-5.79-5.62q-6.58-6.32-13.07-12.64c-.25-.24-1.23-.52-.06-.89 3.48.12 6.8 1.19 10.2 1.81 4.81.87 9.57 2 14.37 3a2.68 2.68 0 0 1 1.89.88 5.61 5.61 0 0 1 .3 2.43c.08 2.63-.12 5.26.22 7.88.46 3.56-1.39 5.15-4.9 4.33-.54-.13-1.07-.25-1.6-.4s-1.16-.29-1.56-.78z"/><path fill="#182632" d="M66.606 115.301c.39-1.53 1.74-1.51 2.86-1.59 2.17-.14 4.35-.08 6.52-.1a2.13 2.13 0 0 1 1.5-.4c1.25-.06 2.39.05 2.48 1.69a45.6 45.6 0 0 1 10.91 3.24c1.45.65 1.85.24 2.24-1.08.73-2.47 1.62-4.9 2.45-7.34.39-.05.6.22.8.48a9 9 0 0 0 8.37 3.68c1.17-.09 1.18 0 1.38.77-1 3.24-2 6.49-3.09 9.72a2.06 2.06 0 0 1-2 1.25 9.2 9.2 0 0 1-7.2-2.29 12.86 12.86 0 0 0-3.5-2.09 59.4 59.4 0 0 0-10.11-3.6c-1 .12-1.91 1.42-3 .22a3.28 3.28 0 0 0-1.93-.84c-2.21-.45-4.46-.71-6.68-1.07a3.08 3.08 0 0 1-2-.65z"/><g fill="#fefefe"><path d="M40.376 38.281h-.57c-2.55.13-5-.85-7.54-.75-1 0-1.5-.52-.9-1.47s.6-2.29 2-2.59c.45-.09.32-.64.33-1 0-2.75 0-5.5.12-8.25 0-.86-.52-.87-1-1-1.1-.24-1.11-.71-.55-1.58 1.41-2.18 1.4-2.26 3.92-1.56a15.37 15.37 0 0 0 4.27.25 1.81 1.81 0 0 1 1.81 1.1 17.6 17.6 0 0 1 1.34 4.46c.2.81-.48 1.15-.89 1.64-.22.26-.82.62-.34.9 2.11 1.21 1.14 3.19 1.34 4.87-.15 1.68-1.55 2.62-2.38 3.89-.27.36-.73.66-.96 1.09zm46.16-1.63c-.09.14-.16.28-.26.42-1.56 2.23-1.54 2.15-4.22 1.3a1.56 1.56 0 0 1-1.29-1.89c.06-.76 0-1.54 0-2.3s-.09-1.41-1.2-1.45-1.1.55-1.11 1.31a15.47 15.47 0 0 1-.12 2.51c-.12.71.43 1.8-.42 2.06a8.9 8.9 0 0 1-3.12.05c-.58 0-.34-.58-.34-.92v-3c0-1 .34-2.08-1.41-2.12-.85 0-.39-1.11-.34-1.66s-.36-1.56.7-1.52 1-.58 1.09-1.34c.08-1.56-.39-3.2.65-4.63.05-.1.1-.2.16-.29 2.35-3.66 1.56-3 5.3-2.32s4.23 1.52 4.24 5.32c0 1.32 0 2.64.07 4a7.16 7.16 0 0 1 .39 2.54 4.63 4.63 0 0 0 .85 3c.28.23.67.45.38.93zm-16.93-13.18c0 .87 0 1.74.09 2.6.07 1.07 0 2.06-1.16 2.58-.65.29-.75.68-.44 1.42a20.77 20.77 0 0 1 .84 3.13c0 1 .14 1.85 1.3 2.27s.51 1.39.33 2.15c-1.26-.52-.35.67-.69.87a2 2 0 0 1-1.27.06c-.7-.63-1.3-1.45-2.43-1.22l-1.69-5.24a13.55 13.55 0 0 0-.42 5c0 1.16-.22 1.78-1.53 1.55a5.2 5.2 0 0 0-1.49 0c-.91.11-1.11-.3-1.09-1.13v-6.43a.51.51 0 0 1 0-.71v-5c0-1-.3-1.57-1.34-1.63-.37 0-.82.05-.94-.46-.2-.85 2.09-3.14 3-3a50.05 50.05 0 0 0 5.91.46c1.59 0 2.53.39 2.74 2a2.76 2.76 0 0 0 .28.73z"/></g><path fill="#567fa6" d="M74.206 102.391a3.49 3.49 0 0 1-2.31.33 1.78 1.78 0 0 0-.72-1.35 10.49 10.49 0 0 0 4.75-7.38 59.41 59.41 0 0 1 1.6-7.37c.18-.54.31-1.22.88-1.26s.85.71.91 1.19a1.69 1.69 0 0 0 1.37 1.47c.69.19.89.76 1.29 1.2.45-.23 0-1.23.89-1 .13.1.29.24.28.39-.23 2.45 1.41 4.2 2.36 6.19a15.65 15.65 0 0 1 1.34 2l-.32 3.31a5.07 5.07 0 0 1-2.16 1.92 1.3 1.3 0 0 0-.87 1.39l-.24-.05a4.37 4.37 0 0 0-2.21-.54c-.53 0-1.23.1-1.44-.52s.63-.68.85-1.27a5.69 5.69 0 0 0-3.33.25 19.15 19.15 0 0 1-2.92 1.1z"/><path fill="#fefefe" d="M50.966 33.271c-.44.63-.35 1 .5 1.05 1.37.09 2.74.24 4.11.32 1 .06 1.49.34.88 1.4a6.4 6.4 0 0 0-.66 1.5c-.25.94-.82 1.16-1.72 1.06-1.59-.17-3.18-.27-4.78-.35-1.44-.08-1.86-1.16-2.32-2.21 0-3.69.1-7.38 0-11.06-.06-2 1.41-3.15 2.2-4.68.24-.46.93-.24 1.41-.18 1.75.2 3.46.6 5.23.67 1.53.06 1.72.51.91 1.8-1.52 2.43-1.51 2.4-4.32 1.89-.43-.08-1.36-.74-1.36.39 0 .88-.7 2.22 1 2.47 1 .14 2.33-.54 2.89.4.43.73.06 1.93 0 2.92-.06.78-.69.56-1.1.56-2.29.04-2.29.02-2.87 2.05zm-33.5-7.89c.29 2.14-.4 4.63-.33 7.16 0 1 .26 1.54 1.39 1.45a9 9 0 0 1 1.45.26c3 .29 3.05.35 1.82 3.19-.31.71-.77 1-1.41.79a16.09 16.09 0 0 0-3.78-.3c-2.22-.07-3.38-1.27-3.45-3.54-.09-2.86.49-5.69.32-8.55-.07-1.19.1-2.39-1.61-2.52-.49 0-.65-.42-.39-.85a8.8 8.8 0 0 1 1.53-2.32c1.3-1.09 2.59.25 3.91.36.85.07.5 1 .53 1.51.05.98.02 1.97.02 3.36zm76.03 2.77c0 1.65.08 3.31 0 5-.09 1.42.55 1.88 1.84 1.86.66 0 1.33.13 2 .07 1.62-.15 1.51.7 1.16 1.8-.48 1.51-1.14 2.53-3.06 2.13-1.17-.24-2.41-.1-3.61-.34a2.76 2.76 0 0 1-2.37-2.81q.07-4.87.09-9.75c0-.87.05-1.77-1.22-1.88a.72.72 0 0 1-.71-.77c0-1.13 2.12-2.87 3.28-2.68 2.66.44 2.66.44 2.66 3.09q-.06 2.13-.06 4.28z"/><path fill="#50799d" d="M76.606 62.381a15.17 15.17 0 0 1-4.59-1.43c-4.2-1.58-8.32-3.44-12.66-4.6-3.48-.93-7.07-1.49-10.61-2.22a3.56 3.56 0 0 1-.72-.33c6.52-.6 13.06-.18 19.6-.32 1.09.92 2.13 1.89 3.27 2.75a32.12 32.12 0 0 1 5.71 6.15z"/><path fill="#fefefe" d="M25.116 30.671c0-1.87-.12-3.75 0-5.61.09-1-.21-1.44-1.08-1.63-1.22-.27-1.69-.79-.72-1.87.56-.63.69-1.88 1.76-1.75a24.71 24.71 0 0 1 4 1c.3.09.25.42.22.71-.49 5-.08 10.1-.21 15.15 0 1-.16 1.81-1.42 1.54-1-.22-2.74.6-2.6-1.64.12-2 0-4 0-5.94l.05.04z"/><path fill="#b7d2eb" d="M61.316 139.831c-6.2-1.14-12.33-2.63-18.52-3.79-2.58-.48-5.31-.66-7.75-1.85l1.66-1.29 23.26 5c.53.12 1.08.16 1.62.23a1.19 1.19 0 0 1 .21 1.51.37.37 0 0 1-.48.19z"/><path fill="#3c5d7b" d="M19.766 106.091c.06-.57.44-.68.93-.67a34 34 0 0 1 4.42.24c.86.14.81.49.66 1.07q-1.28 4.73-2.58 9.46c0 .16 0 .55-.28.43s-.28-.42-.42-.65l-2.73-9.88z"/><path fill="#2b435a" d="M77.536 77.611c.8-2.12 2-2.81 4-2.32 1.15.36 2.28.75 3.44 1.06 1.32.35 1.45 1.33 1.36 2.42s-.7 1.56-1.87 1.53a24.44 24.44 0 0 0-3.26.31c-1.95.62-3.66-.77-3.67-3z"/><path fill="#24394c" d="M106.116 114.661c-.08-.64-.51-.37-.87-.34a10.18 10.18 0 0 1-7.34-1.88 10.44 10.44 0 0 1-2.34-2.71c.39-1.66 1.67-2.1 3.12-2.1a10 10 0 0 1 6.93 2.68c1.51 1.36 1.55 2.15.5 4.35z"/><path fill="#517aa0" d="M77.536 77.611c.63 1.73 1.6 3.05 3.7 3v2c-2.4-1.64-3.79-1.57-5.93.47-.63.6-.87.47-1.36-.13-1-1.18-1.92-2.41-3.58-2.68-.14-.6.39-.66.68-.64a7.28 7.28 0 0 0 5.17-1.63 2.27 2.27 0 0 1 1.32-.39z"/><path fill="#628eb7" d="M72.036 148.701c.73.21.77.79.79 1.4-.71 1.55-2.48 1.94-3.11.52a43 43 0 0 1-3.5-10.78 1.22 1.22 0 0 1 .16-.64c.68-.87 1.18-.69 1.56.26a.69.69 0 0 1 .28.69c.49 1.64.7 3.4 2.08 4.64-.55.43-.19.87 0 1.28a3.81 3.81 0 0 1 .7 1.77c-.04.87.61.71 1.04.86z"/><path fill="#fafbfc" d="M87.876 10.481a3 3 0 0 1-6-.1 2.88 2.88 0 0 1 3-2.87 2.77 2.77 0 0 1 3 2.97zm-63.41.07c0 2-.91 2.75-3.19 2.78a2.73 2.73 0 0 1-2.67-2.46c0-2.18 1.08-3.38 3.12-3.36 1.75.04 2.74 1.15 2.74 3.04z"/><path fill="#719dc7" d="M53.976 153.341c.47.05 1-.13 1.35.33-.38.22-.83.4-.67 1-4.17-.55-8.22-1.72-12.35-2.45-1-.18-2.12-1-3.25-.19a1.1 1.1 0 0 1-.68-.67c.34-.55.6-.93 1.48-.73 4.26.94 8.54 1.75 12.82 2.6a12.76 12.76 0 0 0 1.3.11z"/><path fill="#bad4ec" d="M50.966 33.271c-.47-2.13.15-2.88 2.19-2.56a2.7 2.7 0 0 0 1.86 0c.48-.32.8-1.14 1.59-.22.33.39 1.32.7 1.7 0 .6-1.14 1.08-.51 1.64-.07v.71c-.68 0-.59.69-.89 1a13.06 13.06 0 0 0-.86 1.2c-.67-.12-.79-.72-1.07-1.14-.76-1.16-1.88-1.35-2.48-.2-.87 1.64-2.18 1.56-3.68 1.28z"/><path fill="#fafbfc" d="M77.666 11.701a4.81 4.81 0 0 1-.11.62c-.11.34.29 1-.54.89a.77.77 0 0 1-.78-.86v-3.94c0-.16 0-.44.09-.46a4.91 4.91 0 0 1 3 .05 1.24 1.24 0 0 1 .64 1.9c-.72 1-.73 1.7.22 2.45.26.21.46.58.19.86s-.79.24-1.2 0c-.57-.35-.64-1.27-1.51-1.51z"/><path fill="#f9fbfc" d="M37.416 12.891c-1.71.76-2-.72-2.73-1.24-.43.38-.25.79-.28 1.15s-.35.42-.69.43-.64 0-.63-.5v-4.46c0-.15.07-.43.14-.44a6.55 6.55 0 0 1 3 .19 1.2 1.2 0 0 1 .67 1.78c-1.03 1.22-.51 2.11.52 3.09z"/><path fill="#fbfcfc" d="M62.146 12.901c-1.66 1.16-1.69-.88-2.58-1.18-.38.11-.24.43-.26.67 0 .43-.17.74-.69.72s-.63-.36-.63-.78v-3.29c0-.47-.12-1.14.57-1.16 1 0 2-.41 2.85.34.44.4.84 1.1.36 1.62-1.16 1.22-.52 2.15.38 3.06z"/><path fill="#2c445b" d="M80.236 112.031c.65-1.47 2.21-1.82 4.6-1-.58 1.17.08 3-1.06 3.58s-2.56-.08-3.87-.19a1.93 1.93 0 0 1 .33-2.39z"/><path fill="#f9fbfc" d="M31.076 9.911v1.49c-.09 1.4-.9 1.79-2.23 1.79s-2.27-.42-2.39-1.85a26.2 26.2 0 0 1 0-2.81c0-.35-.12-.88.48-.85a.81.81 0 0 1 .83.85v2.15s0 1.21.93 1.24 1-.64 1-1.29a17.27 17.27 0 0 0 0-1.82c0-.66.24-1.16.9-1.12s.39.67.43 1.07.05.79.05 1.15z"/><path fill="#f5f8fb" d="M48.436 11.441a7.12 7.12 0 0 1 1.57.65.72.72 0 0 1 0 1.25c-.85.57-2.9-.56-2.95-1.6v-1.49c0-2.53 0-2.53 2.52-2.47.31 0 .7-.2.76.32a.59.59 0 0 1-.53.7c-.44.09-1.18-.16-1.17.55s.67.42 1.09.47.55.14.58.46a.63.63 0 0 1-.39.67c-.36.17-.73.25-1.48.49z"/><path fill="#f9fbfc" d="M94.166 10.331v-.49a2.07 2.07 0 0 1 2.93-2.18.47.47 0 0 1 .35.48.59.59 0 0 1-.54.69c-.39.07-1-.13-1 .54s.55.4.89.51.54.22.55.53-.35.54-.67.57-1 0-1 .56c0 .42.54.43.93.46s.88.23.83.81c-.07.81-.67.35-1 .35-2.61-.03-2.24.31-2.27-2.83zm-51.08-1.3c.53.77 1.25.82 1.74 1.2a1.38 1.38 0 0 1 .68 1.54c-.23.69-.61 1.36-1.46 1.36s-1.57.31-2.17-.41a.63.63 0 0 1 0-.77c.25-.39.53-.22.83 0 .49.32 1 .32 1.21-.29s-.35-.72-.8-.8a1.47 1.47 0 0 1-1.29-2c.29-1.11 1.18-1.34 2.21-1.25.47 0 .92.16 1 .71s-.53.54-.95.59c-.3-.05-.48.01-1 .12z"/><path fill="#fafbfc" d="M63.926 10.241v-.49c0-.64-.15-1.78 0-1.84a8.66 8.66 0 0 1 2.55-.2.53.53 0 0 1 .57.63c0 .48-.31.47-.66.5s-1-.19-1 .46.6.48 1 .55a.58.58 0 0 1 .53.7c0 .44-.28.49-.67.47s-.87 0-.8.55c0 .33.47.44.81.38.72-.13.94.38.86.86s-.62.44-1.08.41c-2.11-.1-2.11-.08-2.11-2.98z"/><path fill="#f9fbfc" d="M55.226 8.851c-1.11-.06-1.83.31-1.88 1.43s.44 1.62 1.59 1.58c.52 0 1.4-.33 1.31.69s-.91.54-1.46.61a2.37 2.37 0 0 1-2.65-1.51 2.78 2.78 0 0 1 .34-2.94 2.58 2.58 0 0 1 2.71-1.16c.54.11 1.16.28 1.08 1-.1.92-.73.27-1.04.3z"/><path fill="#f3f7fa" d="M89.536 10.311v-1.81a.84.84 0 0 1 .85-.85c.57-.05.73.39.75.87s0 1 0 1.48c0 .84-.24 1.75 1.1 2 .65.1.8.83.2 1.25a2.64 2.64 0 0 1-2.24.13c-.59-.16-.67-.81-.68-1.38s0-1.1 0-1.65l.02-.04z"/><path fill="#fafbfc" d="M12.756 8.011a.58.58 0 0 1 .73-.17c1.07.8 2.09 1.23 3.17 0 .07-.07.47 0 .59.15s0 .51-.16.71a4.54 4.54 0 0 0-1.29 3.61c.05.54-.25.81-.77.87-.82.09-.51-.55-.53-.9-.14-1.73-.12-1.73-1.74-4.27z"/><path fill="#fbfcfd" d="M69.606 11.041c-.22-.84.51-2.06-1-2.35-.28-.05-.3-.43-.22-.71s.31-.21.53-.21h2.63c.63 0 .91.64.6.77-2.07.88-.84 2.62-1.17 3.94-.08.32.17.86-.51.76-.49-.07-1-.1-.92-.85 0-.47.06-.91.06-1.35z"/><path fill="#b2cfe9" d="M67.936 139.461c-.36-.43-.74-.75-1.3-.3a1.32 1.32 0 0 1-1.7 1.28 5.16 5.16 0 0 1-2-.31l-.19-.17c-.39-.9-.47-1.57.88-1.2a3.53 3.53 0 0 0 4.12-2.56c.16-.45.07-1 .51-1.36a.56.56 0 0 1 .26.69c-.34.82-.83 1.57-.13 2.51.37.51-.46.88-.45 1.42z"/><path fill="#517a9f" d="M77.606 117.941c.43 0 .91.45 1.27-.23s.88-.41 1.34-.06l.34 3.6-.1 1.3c-1.46-1.24-2.1-2.9-3.22-4.19a.41.41 0 0 1 .37-.42z"/><path fill="#527ba1" d="M80.236 112.031l-.34 2.35.07.53a2.05 2.05 0 0 0-2.46-1.28c0-1.23-.21-2.14-1.78-1.87a1.09 1.09 0 0 1-1.16-.45c1.77-.7 3.55-.1 5.32 0 .5-.04.25.46.35.72z"/><path fill="#385672" d="M86.176 35.691a1.43 1.43 0 0 1-1.35-1.79c.14-1.25.08-2.52.11-3.77a12.49 12.49 0 0 1 1.75 4.42c.11.41.46 1.09-.51 1.14z"/><path fill="#f5f8fb" d="M81.916 63.551h.51c.35.95 2.18-.7 2 1s-1.19 2.37-3 2.42c-.26 0-.61.07-.69-.26s.23-.56.55-.66a4 4 0 0 0 1.09-.32c1.23-.83 0-1.38-.46-2.18z"/><path fill="#f7f9fb" d="M5.466 62.311a7.5 7.5 0 0 1 .59-1.19c.65-.88 1.38-.77 1.81.27a6.15 6.15 0 0 1 .32 1.43c.06.4.38.93-.24 1.12-.46.14-.61-.34-.81-.66-.63-.97-.63-.96-1.67-.97z"/><path fill="#f7fafc" d="M14.476 62.671c-.29.48-.28 1.3-1 1.15s-1.67-.41-1.64-1.5a.86.86 0 0 1 1.13-.85c.71.08 1.4.35 1.51 1.2z"/><path fill="#f9fbfc" d="M12.146 53.781c0 .79-.18 1.37-1 1.3-1-.09-.85-1-1-1.61s.15-1.14.83-1.1c.92.06 1.1.8 1.17 1.41z"/><path fill="#eef4f9" d="M40.376 38.281c-.19-.38-.22-.73.18-1s.72-.32.78-.56c.4-1.42 2.06-2 2.36-3.42a4.69 4.69 0 0 1-.3 2.09c-.88 1.09-1.63 2.32-3.02 2.89z"/><path fill="#7ba5cd" d="M72.036 148.701c-.62.22-1.2.48-1.4-.55a16.38 16.38 0 0 0-.79-2.48c-.18-.49-.25-.86.45-.88a.6.6 0 0 1 0 .26l1.74 3.65z"/><path fill="#f3f7fb" d="M6.606 56.141a9.22 9.22 0 0 1 1.35 1.94c.15.4-.51.67-1 .58-1-.2-.86-1.14-1-1.82-.07-.38.28-.54.65-.7z"/><path fill="#f1f6fa" d="M8.376 55.931c.32.76 2 .22 1.55 1.61a.9.9 0 0 1-.41.4 3.6 3.6 0 0 1-1.14-2.01z"/><path fill="#f7f9fb" d="M7.496 53.941c0 .29 0 .7-.32.68-.82 0-.59-.77-.74-1.25s0-.81.33-.74c.66.13.49.92.73 1.31z"/><path fill="#ebf2f9" d="M88.226 71.211c-.46-.07-.52-.49-.62-.83a.49.49 0 0 1 .48-.67c.45 0 .72.17.72.65s-.1.74-.58.85z"/><path fill="#eff5fa" d="M11.166 47.551c.38 0 .67.16.59.59a.7.7 0 0 1-.75.52c-.31 0-.73-.1-.69-.53s.44-.58.85-.58z"/><path fill="#f3f7fa" d="M9.446 73.331a.48.48 0 0 1 0 .32c-.37.16-.69.89-1.16.15a.72.72 0 0 1 0-.9c.66-.56.82.18 1.16.43z"/><path fill="#f7f9fc" d="M14.746 51.421a1.14 1.14 0 0 1 0-1.49c.57.53.58.96 0 1.49z"/><path fill="#e1ecf6" d="M88.516 65.311c-.14.09-.27.25-.36.23a.42.42 0 0 1-.25-.3c0-.23.13-.41.37-.33s.15.23.24.4z"/><path fill="#50799d" d="M68.906 52.761l.4.1-1.7.63c.07-.89.81-.6 1.3-.73z"/><path fill="#f0f5fa" d="M8.746 67.861c.14.18.29.29.3.41s-.15.2-.24.29c-.09-.1-.24-.19-.26-.31s.06-.22.2-.39z"/><path fill="#b2cfe9" d="M68.216 140.151l-.28-.69c.22 0 .49-.3.62.08s-.1.48-.34.61z"/><path fill="#e6eff7" d="M3.426 63.601c0 .24-.11.37-.27.31a.49.49 0 0 1-.25-.36c0-.16.05-.32.24-.26s.21.26.28.31z"/><path fill="#86b0d6" d="M64.936 140.441a2.88 2.88 0 0 0 1.7-1.28 5.7 5.7 0 0 0 .39 2.74c.85 2.49 1.67 5 2.53 7.47.72 2.09 1.67 2.3 3.27.73l1.14 2.25c-.85 1-1.33 2.46-3 2.34l-1.36-1q-2-6.14-4-12.38a1.3 1.3 0 0 0-.67-.87z"/><path fill="#628fb8" d="M54.656 154.671c-.14-.57-.24-1.12.67-1 .76.13 1.52.22 2.27.39 2.85.65 4.32-.46 4-3.38-.43-3.63-.15-7.25-.25-10.87l.25-.05c.69-.75 1-.22 1.36.36v11.23c0 3.5-1.64 4.9-5.06 4.32l-1.95-.3-1.29-.7z"/><path fill="#2b435a" d="M28.086 89.871a98.5 98.5 0 0 1 12.63.93c-1-.06-1.29.35-1.34 1.35-.15 3.29-.44 6.57-.63 9.86 0 .72-.23 1.13-1 1.18s-1.53.19-2.29.27c-2.73.3-2.73.3-2.73-2.51v-5.45c0-2.25-.58-3-2.7-3.71-.95-.32-1.28-1.29-1.94-1.92z"/><path fill="#50799d" d="M21.766 100.731c-.84-1.89-1.65-3.67-2.43-5.46-.59-1.35-1-2.65-3.08-1.85-1.09.43-2-.92-1.52-2.1 1.09-2.78 5.71-3.9 8-1.94a4.68 4.68 0 0 1 .36.35c.91.95 2.36 1.78 2.6 2.88s-1.34 2.1-2.11 3.13a6.68 6.68 0 0 0-.81 2.79 4.54 4.54 0 0 1-1.01 2.2z"/><path fill="#50789d" d="M53.606 92.221c2.42 0 4.8.47 7.2.62.55 0 .74.31.82.81a15.38 15.38 0 0 0 2.63 6.13c-2.94.24-5.61-.75-8.27-1.79-.82-.32-1.07-1.11-1.33-1.81a13 13 0 0 1-1.05-3.96z"/><path fill="#5f8bb4" d="M58.666 107.081l-2 2c-2.73-1.21-4.81-3.33-7.16-5.08-.47-.35-1.18-.82-.41-1.41s1.24-1.85 2.28-.72c1.58 1.73 3.64 2.78 5.42 4.23a13.47 13.47 0 0 0 1.87.98z"/><path fill="#f9fafc" d="M77.606 117.941l-.37.4c-3-.4-5.95-.85-8.93-1.18-1.17-.13-1.8-.61-1.92-1.76a.24.24 0 0 0 .22-.1 91.6 91.6 0 0 1 10 1.41 1.07 1.07 0 0 1 1 1.23z"/><path fill="#5f8cb5" d="M75.236 123.311c0-.65-.1-1.39.92-1.36.78 0 1.69-.28 1.82 1 .11 1.07.43 2.12.56 3.19a1.38 1.38 0 0 1-1.31 1.72c-1 .12-1.27-.48-1.36-1.38a27.72 27.72 0 0 1-.63-3.17z"/><path fill="#f2f6fa" d="M66.166 37.331l.69-.72c.28.92 2 .55 1.74 1.94l-1.34-.21c-.52-.17-1.1-.28-1.09-1.01z"/><path fill="#d8e3eb" d="M13.936 70.671c.14.12.33.2.34.31a.45.45 0 0 1-.21.37c-.21.1-.45 0-.43-.25.02-.14.18-.26.3-.43z"/><path fill="#547ea4" d="M29.126 66.111l.33.31a1 1 0 0 1-1.06.24c.02-.48.43-.46.73-.55z"/><path fill="#50789d" d="M67.196 80.231c-3.34 1.15-4.59 3.93-5.28 7-.33 1.47-.67 2.07-2.42 1.73-2.25-.44-4.59-.39-6.87-.8a1.9 1.9 0 0 1 0-2c1.15-2.25 2.3-4.51 3.4-6.79a2.89 2.89 0 0 1 1.58-1.43c2.29 1.92 5.16.93 7.71 1.52.67.15 1.61-.32 1.88.77z"/><path fill="#2b435a" d="M67.196 80.231a32.4 32.4 0 0 0-7.14-.6 2.12 2.12 0 0 1-2.45-1.69 1.91 1.91 0 0 1 1.89-1.94c4.32-.49 8.64-1 13-1.36 2.78-.23 3.55.55 3.75 3.31a3.6 3.6 0 0 1-4 2c-.6-.07-1.3-.28-1.85.24a4.89 4.89 0 0 0-3.2.04z"/><path fill="#85aed5" d="M74.006 90.421c0 3-.43 5.21-1.83 7.1-1.72 2.33-4.32 2.33-6.09 0-2.49-3.24-2.5-9.53 0-12.76 1.79-2.33 4.29-2.37 6.09 0a9.28 9.28 0 0 1 1.83 5.66z"/><path fill="#fbfcfd" d="M85.236 95.101a21.92 21.92 0 0 0-1.23-2.13 5.93 5.93 0 0 1-1.14-4.78 1 1 0 0 0 .38-1.37.43.43 0 0 1 0-.25c.14-.3.09-.64.21-1a1.25 1.25 0 0 1 1.18-1 1.22 1.22 0 0 1 1.12.84 12.47 12.47 0 0 1 1.06 5.9 11 11 0 0 1-.29 2.6c-.14.7-.17 1.64-1.29 1.19z"/><path fill="#85aed5" d="M85.236 95.101c.75.1.81-.52.87-1 .32-2.62.54-5.25-.47-7.8-.22-.55-.27-1.34-1-1.4s-.81.77-1.12 1.26c-.09.14-.19.27-.28.4a2.2 2.2 0 0 1 1.4-2.93c1.37-.51 2 .71 2.38 1.73a14.75 14.75 0 0 1-.2 11.4c-.9-.15-.96-1.21-1.58-1.66z"/><path fill="#85aed5" d="M83.266 86.851c.34.59.58 1.14-.38 1.37.4-.38.27-.9.38-1.37z"/><path fill="#739fc8" d="M62.926 140.141c-.41-.27-.78-.71-1.36-.36v-1.6a2.33 2.33 0 0 1 2 .58c-1.17-.05-.54.85-.64 1.38z"/><path fill="#2b435a" d="M74.206 102.391a8.12 8.12 0 0 1 5.77-1.93c.53 0 1.25-.16 1.4.52s-.62.63-1 .88l-.93.57h2.79s1 .29 1 1a18 18 0 0 0 0 1.81 2.53 2.53 0 0 1-1.82 2.94c-1.32.43-2.57.55-3.61-.66a22.21 22.21 0 0 1-3.6-5.13z"/><path fill="#f6f8fa" d="M74.606 111.301a15.73 15.73 0 0 0 2.12 0c1.43-.18 1.73.38 1.19 1.6-.11.25-.24.48-.37.72h-1.55c-2.11-.48-4.27 0-6.54-.32a6 6 0 0 1 5.15-2z"/><path fill="#f2f6fa" d="M70.606 37.631c.08-1 .06-1.85-1.27-2.28-.85-.28-.7-1.34-.36-2.15.37 1.1.89 2 2.25 2.08.88 0 .78.55.37 1.09s-.66.84-.99 1.26z"/><path fill="#f2f6fa" d="M69.916 38.501c-1.42-.61.08-1.16 0-1.74.56 0 .18.77.65.87a1.25 1.25 0 0 1-.65.87z"/><path fill="#638fb9" d="M56.656 150.401l-5.43-1c-.52-.1-.79-.28-.64-.89s.46-.83 1.07-.69c1.71.39 3.43.76 5.14 1.16.48.12 1.25 0 1.11.87s-.86.41-1.25.55z"/><path fill="#c0d8ed" d="M37.706 32.041c.31-.44-.44-1.59.54-1.46a2.18 2.18 0 0 1 1.8 2.4c0 .8-.06 1.4-1.12 1.34-1.65-.11-1.04-1.35-1.22-2.28z"/><path fill="#b7d2ea" d="M37.746 25.911c0-.72 0-1.53.83-1.56s.71.82.78 1.34a1.11 1.11 0 0 1-1 1.25c-.8.07-.53-.65-.61-1.03z"/><path fill="#385874" d="M78.546 24.551c1 .15 2 .39 2.17 1.11a9.08 9.08 0 0 1 0 3.57c-.1.58-1 .25-1.48.3s-.71-.36-.69-.85v-.66-3.47z"/><path fill="#456786" d="M65.606 25.381c.78 1.52-.35 2-1.36 2.62a2.16 2.16 0 0 1 0-2c.36-.36.56-1.14 1.36-.62z"/><path fill="#b2cee8" d="M65.606 25.381c-.56 0-.86.48-1.33.65.14-.53-.33-1.31.42-1.55s.71.48.91.9z"/><path fill="#182632" d="M99.886 109.041a5.17 5.17 0 0 1 4.25 1.72c.53.54.86 1 .53 1.71a1.55 1.55 0 0 1-1.71.72 8.39 8.39 0 0 1-3.7-1.33c-.73-.53-1.71-1.12-1.37-2.23s1.43-.36 2-.59z"/><path fill="#b9d4eb" d="M84.686 8.801c1.39.11 1.91.7 1.82 1.75s-.63 1.59-1.58 1.51a1.64 1.64 0 0 1-1.62-1.88c.09-.91.67-1.48 1.38-1.38zm-63.13.03a1.58 1.58 0 0 1 1.67 1.72 1.46 1.46 0 0 1-1.62 1.51 1.39 1.39 0 0 1-1.51-1.51c0-1 .43-1.66 1.46-1.72z"/><path fill="#c6dbef" d="M78.086 8.671c.31.18.69.38.64.83a.65.65 0 0 1-.73.52c-.57 0-.43-.52-.43-.88s.11-.59.52-.47z"/><path fill="#bdd6ec" d="M34.866 8.651c.35.16.71.35.64.81s-.23.65-.64.63-.47-.39-.46-.72-.06-.69.46-.72z"/><path fill="#b5d1ea" d="M60.256 9.471a.56.56 0 0 1-.58.54c-.37 0-.34-.34-.34-.6s.13-.54.45-.54.49.19.47.6z"/><path fill="#deeaf5" d="M65.946 88.861c-.18-.1-.53-.23-.52-.29.36-1.8.88-3.54 2.45-4.69a1.73 1.73 0 0 1 2.49.52 8.81 8.81 0 0 1 1.91 7.82c-.79-3.59-3.67-3.33-6.33-3.36z"/><path fill="#fdfdfd" d="M65.946 88.861a6.58 6.58 0 0 1 5.1.19c1.22.52 1.29 1.92 1.23 3.17v.62a1.45 1.45 0 0 1-1.76 1.46c-1.32-.15-2.75.6-4-.48.22-.8 1-1.26 1.19-2.12.43-1.79.2-2.27-1.76-2.84z"/><path fill="#deeaf5" d="M66.526 93.811h4.58c.77 0 .73-.71 1.14-1a7.39 7.39 0 0 1-1.87 4.46c-1 1.2-1.85 1-2.83.23a6.12 6.12 0 0 1-1.81-2.9c-.31-.73.25-.79.79-.79z"/></g></svg>