<svg width="160" height="111.38" xmlns="http://www.w3.org/2000/svg"><title>background</title><path fill="none" d="M-1 -1H161V112.38H-1z"/><g><title>Layer 1</title><g transform="rotate(90 79.998 55.8)"><path fill="#a56f5a" d="M135.018 55.828v76.28c0 2.11-1.05 3.06-3.17 3.06H27.718a2.58 2.58 0 0 1-2.8-2.89v-58.87-63.11-30.88c0-2.12 1-3 3.18-3h104c2 0 3 1.06 3 3.08v76.32l-.08.01z"/><path fill="#fdfdfd" d="M30.468 55.728v-72.08c0-1.36.35-1.71 1.66-1.71q27.71.06 55.42 0h40c1.59 0 2.08.32 2.08 2q-.07 60.09 0 120.19c0 8-.06 16 0 24 0 1.28-.3 1.64-1.56 1.63q-25.08-.06-50.15 0h-45.22c-1.59 0-2.19-.25-2.18-2.07.07-24 0-47.94 0-71.91l-.05-.05z"/><path fill="#b07c6d" d="M124.748 127.688c-9.43.05-18.87.19-28.3.13-8.88-.06-17.75 0-26.63 0-8.27 0-16.53-.07-24.8 0-3.7 0-7.39-.17-11.09.06-.92.06-1.47-.22-1.46-1.34q.12-15.31.15-30.63c0-7.32-.13-14.63-.13-22 0-9.22.11-18.45.1-27.67 0-8-.13-16-.13-24 0-7.42.14-14.84.15-22.27 0-4.44-.11-8.89-.15-13.33a4 4 0 0 1 .25-1 2 2 0 0 1 1.59-.2.78.78 0 0 1 .45.56c.25 6.74 0 13.49.07 20.23q.07 25.67 0 51.35c0 19.78.07 39.56 0 59.34v6.46c0 1.79.26 2 2.1 2.08 3.12.1 6.23 0 9.35 0h35.7c10.88 0 21.76-.1 32.64 0 2.49 0 5-.24 7.47 0a4.26 4.26 0 0 1 2 .33 1.12 1.12 0 0 1 .47.55c-.38.58.43.88.2 1.35z"/><path fill="#b07c6d" d="M124.398 126.618l-.43-.4c1.71-1.54 1.31-3.63 1.3-5.53-.07-13.37 0-26.74 0-40.11v-45.72-45.38a13.5 13.5 0 0 1 .12-2.54 2.63 2.63 0 0 1 .29-.77 5 5 0 0 0 .82-2.14c1-.2 1.16.44 1.16 1.19 0 10.23-.13 20.47-.15 30.7v110.36a2.76 2.76 0 0 0-1.68.59.8.8 0 0 1-1.43-.25z"/><path fill="#b07d6e" d="M126.098-13.962l-.34.35h-89.93c-.46 0-1 .27-1.29-.42l-.36-.21c-.43-.57.18-.94.28-1.41 2.15-.57 4.35-.2 6.52-.23 5-.08 9.91 0 14.87 0s10-.07 15.07-.08h18.8c6.91 0 13.82.07 20.73.07 5 0 10 0 15-.06.73.48.65 1.26.65 1.99z"/><path fill="#ae7b6a" d="M124.398 126.618a1 1 0 0 0 1.54-.41c.58-1 1-.42 1.52.07.5 1.24 0 1.65-1.22 1.5-.49-.06-1-.07-1.48-.1-.18-.33-.75-.54-.36-1.06z"/><path fill="#a8725f" d="M34.448-15.722c.57.6-.46.88-.28 1.41-.47.41-1 .22-1.46 0a1.09 1.09 0 0 1-.05-1.49c.54-.53 1.2-.28 1.79.08z"/><path fill="#a7715e" d="M126.098-13.962c-.65-.52-.28-1.39-.67-2h1a1.4 1.4 0 0 1-.33 2z"/><path fill="#fefefe" d="M34.538-14.082c6.7 0 13.4-.06 20.1 0s13.61-.2 20.46-.15h37.22c4.14 0 8.27.13 12.41 0a1 1 0 0 1 1.07.66c0 11.64-.05 23.28.07 34.92.11 10.86-.11 21.72-.12 32.57 0 9.22.13 18.45.13 27.67 0 10.25-.09 20.51-.13 30.76 0 3.69-.13 7.38 0 11.06.06 1.53.06 2.65-1.76 2.85-2.1-.65-4.27-.27-6.39-.31-5.71-.1-11.43 0-17.15 0-6.27 0-12.54.07-18.81.07-5.6 0-11.2-.07-16.8-.08s-11.2 0-16.8 0h-12.63c-1.17 0-1.06-1-1.08-1.59-.1-2 0-4 0-6v-11.44c0-3.81-.07-7.61-.09-11.42v-11.91c0-4.41.11-8.81.11-13.22s-.11-8.92-.11-13.38.11-8.81.11-13.22-.11-8.92-.11-13.39.09-8.8.11-13.2 0-8.72 0-13.08v-11.75c.04-2.14-.25-4.3.19-6.42z"/><g fill="#a46e59"><path d="M67.988 55.608c-.1-1.39-.1-1.39-2.78-1.64-.14.35.05.49.33.64 1.32.7 1.37 1.27.19 2.08-.41.28-1 .46-.87 1.09.2.8.9-.17 1.34.35-1 1.5-.51 3.05 0 4.63a5.35 5.35 0 0 1 .05 3.82 1.91 1.91 0 0 1-2.44 1.27c-1.22-.33-1.13-1.29-.84-2.2a6.06 6.06 0 0 0-.38-4.6c-1.1-2.3-2.08-4.64-3.21-6.92a2.31 2.31 0 0 1 .06-2.53 23 23 0 0 1 5.81-6.35 5.82 5.82 0 0 1 3.52-1h25.16a6 6 0 0 0 3.71-.92c.79-.58 1.31-.31 1.85.36a47.69 47.69 0 0 1 3.25 4.76c1 1.56.52 2.66-.75 3.66a10.13 10.13 0 0 1-1.27.85c-2.3 1.32-2.31 1.31-1 3.72.89 1.58 1.73 3.19 2.7 4.72a2.11 2.11 0 0 1-.56 3.09 17.81 17.81 0 0 1-11 4.25c-8.38.5-14-3.57-17.57-10.82l-.46-.91c-1.49-3-1.96-3.15-4.84-1.4zm46.49 25.18c-.9-.76-1.55-1.3-2.18-1.86a5.63 5.63 0 0 0-4.56-1.39c-1.43.15-2.76.84-4.3.48-.75-.18-1.17.47-1 1.35a3.72 3.72 0 0 1-3.34 4.36h-29.23a5.61 5.61 0 0 0-3.84 1 1.56 1.56 0 0 1-2.48-.29c-1.42-1.76-2.87-3.5-4.2-5.33-1.16-1.59-1-2.48.76-3.42a23.4 23.4 0 0 1 10.81-3.14c8.84-.09 17.68 0 26.51 0a28.68 28.68 0 0 0 6.05-.59c5.26-1.11 9.6 1.68 11 6.92a8.9 8.9 0 0 1 0 1.91zm-29.38-43.22c-5.3.35-10.2 1.27-15.16 1.73s-10.04 1.62-14.84-.8c-4.62-2.27-8.2-5.81-11.58-9.59a1.86 1.86 0 0 1-.42-1.44c0-.88.62-1.21 1.23-.75 3.6 2.64 7.68 2 11.66 1.77 6.17-.34 12.32-.86 18.49-1.2a16.26 16.26 0 0 1 9.42 2.43 43.28 43.28 0 0 1 7.28 5.57 17.15 17.15 0 0 1 1.58 1.77 1.39 1.39 0 0 1 .12 1.74c-.44.62-1.1.51-1.7.25a16.74 16.74 0 0 0-6.08-1.48z"/></g><path fill="#a56e59" d="M97.838 24.828a15.6 15.6 0 0 1 4.52 4.75c1.14 2 .81 3.11-1.34 5.13-1.84 1.73-2.65 1.85-4.59.51a22.61 22.61 0 0 1-5.19-5.07 2.37 2.37 0 0 1 .1-3.24 14.45 14.45 0 0 1 2.76-2.48c1.16-.83 2.25-.32 3.36.09.12.13.08.4.38.31zm-41.23 56.32v.17c-.12 2.16-1.65 4.8-2.82 4.86-1 .05-4.48-3.34-4.78-4.56a.77.77 0 0 1 .26-.89c2-1.52 1.92-3.83 2.23-6 .06-.42-.21-1 .33-1.2s.9.33 1.21.7c1.7 2.05 3.5 4.04 3.57 6.92z"/><path fill="#a97460" d="M112.538 55.758h-.68c-2.09 0-2.64-.72-2.12-2.72.08-.29.14-.55.5-.54s.45.22.55.52c.15.47-.36 1.31.53 1.35s.43-.75.56-1.17.24-.5.57-.49.45.26.54.54c.13.44-.12 1.15.66 1.15s.52-.71.57-1.15.14-.8.68-.73.41.42.46.77c.35 2.42.3 2.47-2.82 2.47z"/><path fill="#a7725e" d="M115.538 48.348a9 9 0 0 1-.4 1.06c-.14.28-.3.64-.76.42s-.56-.45-.29-.93.48-1.23-.21-1.44-.84.59-1 1.09a1.52 1.52 0 0 1-2.41 1c-1.09-.61-.93-1.7-.62-2.72a.44.44 0 0 1 .65-.32.56.56 0 0 1 .37.66c-.07.41-.36 1 .26 1.16s.71-.6.88-1c.38-.87.91-1.46 1.93-1.24s1.57.95 1.6 2.26z"/><path fill="#a56f5b" d="M109.918 63.208c-.68-1.58.76-1.76 1.35-2.48-.54-.74-2-.91-1.35-2.49 1.54.91 3 2.24 5 1.85.29-.06.47.25.44.59s-.22.7-.62.62c-1.99-.38-3.24 1.03-4.82 1.91z"/><path fill="#a8725e" d="M113.098 67.388a8 8 0 0 1-3.29-.66c-.27-.11-.53-.25-.44-.6s.42-.45.78-.31a7.85 7.85 0 0 0 5.78 0c.37-.14.69-.15.84.25s-.25.56-.54.67a7.7 7.7 0 0 1-3.13.65z"/><path fill="#a97460" d="M116.788 42.638c-.15.53-.43.7-.89.52a7.74 7.74 0 0 0-5.77 0c-.35.13-.69.11-.83-.3s.17-.49.43-.6a8.3 8.3 0 0 1 6.58 0 2.32 2.32 0 0 1 .48.38z"/><path fill="#f0e7e5" d="M97.838 24.828c-.05.33-.08.7-.49.77a.48.48 0 0 1-.41-.18c-.2-.51.5-.51.54-.9l.36.31z"/><path fill="#fefefe" d="M85.578 54.778h8c.58 0 1.38-.4 1.64.66a1.62 1.62 0 0 1-.79 1.88 20.52 20.52 0 0 1-7.33 2.65c-4 .88-7.33-.51-10.23-3.17-.48-.43-1.19-1-.88-1.67.24-.53 1-.24 1.58-.24h8l.01-.11z"/><path fill="#f4eeec" d="M67.028 49.328c-.25 0-.46-.09-.41-.36a.91.91 0 0 1 .29-.53c.22-.17.41 0 .46.23a.58.58 0 0 1-.34.66z"/><path fill="#eee3e1" d="M65.208 51.378c-.07.06-.17.23-.29.25-.28 0-.4-.2-.41-.42s.07-.46.38-.4.35.25.32.57z"/><path fill="#faf7f6" d="M66.848 78.238c.86-.05 2.37 2.14 2 2.85 0 .1-.11.22-.19.25a.72.72 0 0 1-.92-.51c-.37-.9-2.14-.58-1.79-2a.77.77 0 0 1 .9-.59z"/><path fill="#f2e9e7" d="M96.838 81.218c-.08.07-.21.31-.37.32-.41 0-.32-.34-.31-.57a.36.36 0 0 1 .42-.37c.25.04.29.32.26.62z"/><path fill="#ede1df" d="M63.988 82.078c.08.12.28.28.3.46s-.15.48-.39.42a.7.7 0 0 1-.4-.46c-.06-.22.1-.41.49-.42z"/><path fill="#f9f5f4" d="M98.378 28.758c.44.36 1.59-.24 1.56.92 0 .58 0 1.58-.91 1.52s-1.93-.19-2-1.4c-.03-.74.55-1.05 1.35-1.04z"/></g></g></svg>