<svg width="157.5" height="108.38" xmlns="http://www.w3.org/2000/svg"><title>background</title><path fill="none" d="M-1 -1H158.5V109.38H-1z"/><g><title>Layer 1</title><g transform="rotate(90 78.866 54.42)"><path fill="#a56f5a" d="M39.657 13.302c1.12.13 1.55-.37 1.67-1.49.57-5 1.2-10 1.84-15a1.51 1.51 0 0 0-.14-1.26 1.28 1.28 0 0 1 .11-1.92c.88-1 .58-2.31.8-3.48a39.2 39.2 0 0 0 .52-4.45c.09-1.24.26-2.28 1.88-2.1a2.36 2.36 0 0 1 1.8-.38h73.98c2.38 0 2.54.18 3.12 2.52a10.43 10.43 0 0 1 .52 3.28c0 .65.11 1.5-.58 1.8s-1-.53-1.59-.82c2.43 1.65 2.2 4.1 2.2 6.55v127.12a1.62 1.62 0 0 1-1.78 1.76c-1.78 0-3.56.14-5.34.1-7.57-.15-15.14 0-22.71-.06-1.12 0-2.12.06-2.87-1.16a1.46 1.46 0 0 0-2.51 0c-1.23 1.52-4.58 1.75-5.93.28-.87-.94-1.5-1.28-2.31 0-.52.81-1.39.83-2.23.88-3.9.23-7.8.06-11.69 0h-32.23c-3.4 0-3.79-.29-3.77-3.67.08-14 0-28.06 0-42.09a19.74 19.74 0 0 1 .22-2.33 21.1 21.1 0 0 0 0-6.93 20.37 20.37 0 0 1 0-8.43.78.78 0 0 1 .46-.18c1 .58 1.58.5 1.58-.82 0-.27.12-.54.12-.81 0-.53.27-1.32-.32-1.48-.77-.2-.6.72-.82 1.16a1.55 1.55 0 0 1-.36.54.55.55 0 0 1-.47-.11c-.59-2.48-.9-5 .14-7.4a.64.64 0 0 1 .52.08c1.53 1 2 .79 2.27-1.15.81-6.22 1.56-12.48 2.38-18.75l1.83-14.87a4 4 0 0 0-.16-2.44 1.12 1.12 0 0 0-1.08-.56c-.75.06-1.34-.27-1.27-1.11s.83-.69 1.41-.71a1.77 1.77 0 0 0 .79-.11z"/><path fill="#a46e59" d="M46.987-18.128c-1.08-.49-2-1-1-2.41a2 2 0 0 0 .15-2.34c-.74-1.19-.13-1.31.85-1.27H129.117c2.58 0 3.3.66 3.31 3.21v16.52a8.82 8.82 0 0 0 .11 1c-.69.52-1.24-.05-1.84-.23s-1.32-.41-1.74.36a.88.88 0 0 0 .35 1.16 1.3 1.3 0 0 0 1.92 0c.35-.34.57-1.06 1.3-.59 0 1.89 0 3.78-.11 5.65-.07 1 .68 2.24-.79 2.87a.49.49 0 0 0-.06.45c1.57 1.84.82 4.06.83 6.06q.1 57.82 0 115.63c0 4.69-.26 4.94-4.86 4.94h-43.5c-.89 0-2.16.62-2.45-1.06-.07-.38-.68-.25-1.05-.14s-.88.46-1.34-.09c-.29-.34-.83-.59-1.09 0s.26.73.73.82a2 2 0 0 1 .47.26c-.47.44-1 .26-1.43.26h-49.8a5.32 5.32 0 0 1-1.33-.09c-1.13-.3-1.79-.82-1.08-2.14.58-1.07 1.59-2.15.42-3.48a.63.63 0 0 1 .11-.59c1.45-1.21.87-3 1.32-4.51a1.68 1.68 0 0 0-.34-1.57 1.44 1.44 0 0 1 0-1.86c1.34-1.16 1-2.75 1.31-4.16.32-1.69.34-3.43.6-5.13.12-.77-.11-1.25-.8-1.37s-1 .35-1.12 1.09c-.64 5.29-1.31 10.58-2 15.87 0 .21-.07.42-.15.8a6.53 6.53 0 0 1-.24-2.62v-142.2c0-1 0-2 .07-3a2 2 0 0 1 2-2c5.49-.08 11 0 17 0-2.49 1.65-3.26 3.83-4 6-1.66.71-3.41.29-5.11.31-3.41.05-3.4 0-3.39 3.39v138.52c0 2.2.13 2.27 2.23 2.27 9.19 0 18.38-.22 27.56.06 3.5.11 7-.11 10.54.14 3 .22 6.08-.19 9.13-.18 14 0 28-.11 42.06 0 3.76 0 3.73 0 3.67-3.76-.15-10.3 0-20.6 0-30.9v-21.88-45.1-34.41c0-2.11.22-4.21 0-6.34-.11-1.31-.46-1.93-1.89-1.81s-3.12 0-4.68 0a2.91 2.91 0 0 1-2.9-1.58 1.67 1.67 0 0 0-2.38-.83 4.68 4.68 0 0 1-1.62.4c-.65 0-.79.12-.59.8s-.38.86-.87 1a5.63 5.63 0 0 1-2 .18h-60.62c-.6-.03-1.2-.77-2-.38z"/><path fill="#fdfcfc" d="M46.987-18.128c2-.48 4.12-.12 6.19-.17 4.42-.07 8.85-.07 13.28-.07s8.67.09 13 .1 8.68-.1 12.98-.1 8.76 0 13.14.07c1.92 0 3.85.06 5.77 0 .34 0 1 .08 1.13-.47s-.32-.7-.8-.78-.79-.5-.52-1 .68-.13 1 .09c1 .81 1.9-.09 2.78-.34 2-.59 2.22-.62 2.91 1.41.44 1.29 1.47 1 2.3 1.06 2 .05 4-.09 5.93-.12.93 0 1.19.55 1.19 1.42v27.32c0 10.23-.17 20.46-.12 30.68.05 9.89 0 19.79 0 29.68 0 8.1-.05 16.21 0 24.31q.07 14.74 0 29.48c0 2.31 0 2.41-2.28 2.42h-23.45c-4.84 0-9.7-.32-14.5.09-2.25.19-4.38-.33-6.59-.15s-4.49.07-6.73.08c-.05 0-.13-.05-.16 0a2.93 2.93 0 0 1-3 .14c-1.12-.41-2.51-.09-3.78-.12-.82 0-1.65-.2-2.24.62-.1.14-.48.28-.55.22-2-1.79-4.45-.79-6.65-.82-8.36-.12-16.72 0-25.08 0-1 0-1.28-.39-1.27-1.3q.07-17.64.11-35.27c0-10.65-.07-21.31-.07-32v-30.65-32c0-4.3.16-8.61-.11-12.91 0-.67.25-1.3 1-1.3 2.52 0 5 .05 7.55.1a2.9 2.9 0 0 1 .64.16c-.14.85-.26 1.64 1.06 1.52.94-.08.36.48.28.81-1.93.1-3.87 0-5.8 0-2.15 0-2.17 0-2.16 2.12v64.44a4 4 0 0 1-.29 2.28c-.34 2.45-.06 4.91-.16 7.36.26.54.64 1.08.08 1.66 0 2.65-.46 5.39.07 7.92 1.16 5.48-.59 10.82-.2 16.26s.09 11.05.08 16.59c0 6.14 0 12.28-.08 18.42-.06 3.49-.18 3.59 3.18 3.62 7.85.07 15.71 0 23.56 0h20.08c1 0 2 .17 2.47-1.28a1.33 1.33 0 0 1 2.45 0c.36 1.28 1.17 1.26 2.1 1.28a18.64 18.64 0 0 0 2.3 0c.34 0 1 .2.89-.62-.08-1 .68-1.41 1.5-1.33s2.15.16 2.4 1.34c.14.63.25.6.78.6h29.53c.83 0 1.08-.19 1.08-1.11v-22.17-28.8-28.62c0-11.42.13-22.84 0-34.26-.07-5.7.18-11.39 0-17.09 0-.59 0-.83-.69-1-1.16-.28-1-2.16-2.41-2.23a.81.81 0 0 1 0-.43c.14-.28.52-.45.68-.25.63.73 1.72.67 2.27 1.34.79-2.05-.64-4-.58-6 0-.62-.85-.62-1.35-.6-5.72.17-11.44.05-17.17 0-6.09-.07-12.19.17-18.28.17s-12.14-.06-18.22-.06c-5.5 0-11 .15-16.49.18-2.19 0-4.39-.14-6.58-.21.3-.38.6-.77.9-1.14s.13-.55-.28-.59z"/><path fill="#a46e59" d="M33.057 53.072a71.75 71.75 0 0 1-.14-8.44q-.09-10.17-.08-20.34c0-6.61.08-13.22.1-19.84s0-13.16 0-19.75c0-.3-.46-.87.27-.86 2.7 0 5.44-.63 8.1.37.5.83 1.47 1.6.26 2.63-.15.13-.06.65.06.95a4.76 4.76 0 0 1-.63 4.93 3.42 3.42 0 0 0-.34 3 6.43 6.43 0 0 1-.75 5.91 2.83 2.83 0 0 0-.12 2.55 3.19 3.19 0 0 1-.48 3.53c-.21.23-.5.69-.41.85.89 1.49 0 3.24.76 4.73a2.56 2.56 0 0 1-.58.56c-.43.21-1.42-.56-1.29.5.09.8.79.54 1.45.27s.55.3.43.71a7.86 7.86 0 0 0-1.29 6.63 2.68 2.68 0 0 1-.17 1.8 3.64 3.64 0 0 0 0 2.7c.41 1.57-.62 3-1.09 4.41a26.75 26.75 0 0 0-1.22 10.44 18.31 18.31 0 0 1-1.51 9.58c-.36.73-.37 1.65-1.13 2.17h-.17l-.03.01z"/><path fill="#fbfaf9" d="M132.527-2.718c-.66 0-.75.58-.93 1a1 1 0 0 1-1.61.53c-.91-.49-2.13-1-1.62-2.27s1.73-1 2.8-.51c.44.21.91.37 1.37.55.19 0 .51 0 .45.3s-.31.27-.46.4z"/><g fill="#fefefe"><path d="M83.447 108.532c-5.29 0-10.58.05-15.87 0a6.9 6.9 0 0 0-4.93 1.57c-.56.48-1.13.76-1.64-.09a70.15 70.15 0 0 1-4.28-7.53 2 2 0 0 1 .57-2.66 25.75 25.75 0 0 1 2.84-2.3c1.53-.91 1.67-2 .87-3.43-1.36-2.49-2.65-5-4-7.5-.88-1.61-.74-2.44.83-3.49a12.3 12.3 0 0 1 7-2.27c8 0 15.93 0 23.89.05a13.82 13.82 0 0 0 6.73-1.56 1.88 1.88 0 0 1 2.51.36 27.1 27.1 0 0 1 4.76 6 2.2 2.2 0 0 1-.51 3.11c-2.36 1.93-4.86 3.39-8.12 3.35-8.13-.11-16.26 0-24.39-.06a7.55 7.55 0 0 0-4.57 1.25c-.54.39-1.18.83-1 1.59a2 2 0 0 0 1.55 1.58 9.94 9.94 0 0 0 2.31.22h32.41c1.33 0 1.86.26 1.8 1.72-.12 2.84-.12 5.68 0 8.52.06 1.39-.45 1.64-1.7 1.63-5.7-.09-11.37-.06-17.06-.06zm.11-79.48h-16.2a6.37 6.37 0 0 0-4.48 1.43c-.89.77-1.53.73-2.14-.28a83 83 0 0 1-4.07-7.27 2.12 2.12 0 0 1 .79-2.77 42.16 42.16 0 0 1 3.4-2.68c.84-.57.85-1.1.5-2a84.11 84.11 0 0 0-4.45-8.57 2 2 0 0 1 .59-3 12.07 12.07 0 0 1 7.4-2.61c7.91 0 15.81-.07 23.72 0a13.91 13.91 0 0 0 6.9-1.49 1.88 1.88 0 0 1 2.42.31 24.41 24.41 0 0 1 4.82 6.14 2.19 2.19 0 0 1-.56 3.1c-2.35 1.86-4.79 3.29-8 3.26-8.18-.09-16.37 0-24.55 0a8.23 8.23 0 0 0-4.28 1.15c-.65.38-1.3.83-1.22 1.64a2 2 0 0 0 1.6 1.73 7.2 7.2 0 0 0 1.81.16h32.9c1.43 0 1.77.41 1.72 1.77-.1 2.89-.09 5.79 0 8.68 0 1.14-.37 1.38-1.43 1.38-5.73-.1-11.46-.08-17.19-.08zm-3.42 47.58c-5.94-.13-11-2.62-15.37-6.37a68.19 68.19 0 0 1-7.43-7.18c-1.72-2-1.76-2.38.27-3.92 3.15-2.38 6.22-4.84 9.56-7a3.47 3.47 0 0 1 4.53.3 80.39 80.39 0 0 1 7.36 7c1.45 1.46 2.87 3 4.2 4.52.73.86 1.34.73 2.12.19a30.53 30.53 0 0 0 5.61-5.68c1-1.22 2.05-2.49 3-3.78.54-.72 1-.94 1.72-.21a52.69 52.69 0 0 1 6 6.94c.82 1.16.1 2-.48 2.86a30 30 0 0 1-10.09 9.27 23 23 0 0 1-11 3.06zm3.39-41.82h16.87c1.39 0 2 .28 1.93 1.83-.13 2.83-.11 5.68 0 8.52.06 1.44-.48 1.74-1.82 1.74h-32.57a5.22 5.22 0 0 0-4.12 1.4c-.71.74-1.27.55-1.93-.16a82.63 82.63 0 0 1-5.28-6.51 1.88 1.88 0 0 1 .43-3c3-2.16 6.15-3.79 9.95-3.8l16.54-.02z"/></g><path fill="#fdfdfd" d="M33.227 53.072c-.23-1.88 1.57-3.06 1.61-4.93 0-2.09 1.1-4.33.63-6.24-.83-3.37.2-6.45.54-9.63.13-1.64 1.13-3.21 1.77-4.8.09-.23.47-.43.19-.66-1.29-1.08-.84-2.17-.1-3.29a.47.47 0 0 0 0-.33c-.47-2-.07-4.1-.1-6.15 0-1.51 1.31-1.09 1.86-1.71 1.22-.23 1.09.59 1 1.32-.47 4-.93 8.05-1.43 12.07q-1.46 11.73-3 23.46c-.13 1 .21 2.53-1.78 2.24-.82-.12-1.22-.47-1.19-1.35z"/><path fill="#fefefe" d="M53.667 44.402a8.58 8.58 0 0 1-1.26 4 1.8 1.8 0 0 1-3 .44 19.26 19.26 0 0 1-3.07-3.7c-.54-.82-.77-1.72 0-2.44a6.8 6.8 0 0 0 1.81-5c0-.58-.18-1.39.46-1.64s1.12.34 1.6.7a9.81 9.81 0 0 1 3.46 7.64z"/><path fill="#fcfafa" d="M111.987 58.882h2.36s1.16-.09 1.19.78-.59.76-1.13.76h-3.83c-.39 0-1 .22-1.08-.43a1.23 1.23 0 0 1 .43-1.32c.94-.73 1.8-1.55 3-2.62h-2.52c-.7 0-1-.09-1-.79s.34-.83.93-.83h4c.4 0 1-.22 1.1.41a1.27 1.27 0 0 1-.49 1.45c-.88.7-1.72 1.51-2.96 2.59z"/><path fill="#fbfafa" d="M115.647 48.432c0 2.06-1.16 3.32-3.09 3.34a3.18 3.18 0 0 1-3.33-3.36 3.35 3.35 0 0 1 3.43-3.33 3.17 3.17 0 0 1 2.99 3.35z"/><path fill="#fbf9f8" d="M116.017 9.292c-.28 0-.59 0-.74-.23a.65.65 0 0 1 .27-.87 8.74 8.74 0 0 1 1.36-.59c.52-.2 1.19-.36 1.16-1s0-1.39-.91-1.56c-.43-.08-.82-.3-.62-.76.27-.63.76-.35 1.05 0 .54.62 1 .06 1.51 0 .82-.08 1.37.07 1 1.08a3.36 3.36 0 0 0-.26.61c-.13.73.4 1.55-.33 2.2a13.91 13.91 0 0 1-3.49 1.12z"/><path fill="#faf8f7" d="M123.867-.848c0 .44 0 .87-.45 1s-.7-.26-1-.64c-.5-.73-.69-2.33-2.18-1-.2.18-.69 0-.57-.32.39-.92.37-2.22 1.55-2.54s1.78.28 2 1.43a21 21 0 0 0 .65 2.07z"/><path fill="#faf8f8" d="M112.477 40.432a10.13 10.13 0 0 1 3.94.65c.35.12.83.27.68.77a.74.74 0 0 1-1.08.45 8 8 0 0 0-6.14 0 .64.64 0 0 1-.92-.44c-.15-.43.24-.57.53-.71a8.51 8.51 0 0 1 2.99-.72z"/><path fill="#fbfaf9" d="M112.817 65.312a8.67 8.67 0 0 1-3.46-.79c-.25-.14-.52-.28-.42-.61s.39-.61.76-.47a9.53 9.53 0 0 0 6.68 0 .56.56 0 0 1 .67.37c.21.43-.12.59-.41.74a9.31 9.31 0 0 1-3.82.76z"/><path fill="#fcfafa" d="M33.277 60.412c.26-.9-.31-2.52 1.23-2.4s.56 1.68.75 2.57a3 3 0 0 1-.2 1.13c-.12.56.18 1.41-.55 1.57s-.88-.7-1.24-1.15a2.23 2.23 0 0 1 .01-1.72z"/><path fill="#faf7f6" d="M119.607-9.208c-.08-.61 0-1 .46-1.1a.72.72 0 0 1 .82.42c.26.46.29 1 .92 1.28.34.13 1 .15.87.76a1.08 1.08 0 0 1-1.05.9c-.52 0-1.16.09-1.43-.57s-.44-1.25-.59-1.69z"/><path fill="#f8f3f2" d="M121.237-13.188c-.1.6-.06 1.26-.68 1.05-1.12-.38-1.1-1.52-1.3-2.45-.08-.36.1-.93.55-.8 1.17.32 1.03 1.52 1.43 2.2z"/><path fill="#f1e7e5" d="M55.137 14.242c-.37-.06-.65-.21-.57-.63a.73.73 0 0 1 .8-.66.63.63 0 0 1 .57.68c.05.51-.41.51-.8.61z"/><path fill="#ebdeda" d="M110.837.082c-.06.3-.21.53-.53.53-.5 0-.66-.33-.58-.78 0-.28.18-.55.55-.46a.66.66 0 0 1 .56.71z"/><path fill="#e2ceca" d="M111.057-13.988c.34 0 .65.14.67.54a.53.53 0 0 1-.61.58.56.56 0 0 1-.58-.45c-.07-.39.15-.6.52-.67z"/><path fill="#eee2df" d="M108.137-8.368a.61.61 0 0 1-.64.63.47.47 0 0 1-.54-.5.54.54 0 0 1 .56-.51c.23-.05.51-.01.62.38z"/><path fill="#f9f6f4" d="M117.477.632a.5.5 0 0 1-.66.33c-.31-.1-.36-.36-.29-.65s.27-.45.58-.3a.61.61 0 0 1 .37.62z"/><path fill="#f7f2f1" d="M69.717 119.002a.59.59 0 0 1-.53.51.46.46 0 0 1-.5-.5.46.46 0 0 1 .52-.47c.28.01.54.09.51.46z"/><path fill="#caa59c" d="M33.277 60.412v1.72a1.23 1.23 0 0 1-.3 0c.2-.57-.46-1.09-.08-1.66l.38-.06z"/><path fill="#fbf9f9" d="M27.907 103.272c.27-2.13.53-4.39.86-6.64.05-.38 0-1.07.62-1s.48.71.42 1.19c-.22 1.82-.32 3.66-.7 5.44-.21 1 .84 1.45.6 2.32-.15.54.26 1.45-.5 1.57s-1.12-.78-1.34-1.44a4.44 4.44 0 0 1 .04-1.44z"/><path fill="#f9f6f6" d="M106.647-19.318a5.19 5.19 0 0 0-3-.43c-.25.06-.51-.21-.5-.54a.78.78 0 0 1 .75-.76c1.28-.22 2.44.81 3.78.39.27-.08.55.38.41.75-.22.54-.79.54-1.44.59z"/><path fill="#f7f3f2" d="M130.537-17.948c-.81-.16-.91-.75-.95-1.36 0-.4 0-.81.55-.81.84 0 .88.7 1 1.25s-.16.79-.6.92z"/><path fill="#f8f4f4" d="M124.647-21.028c-.47 0-.84-.1-.81-.62 0-.8.74-.9 1.31-1a.58.58 0 0 1 .75.64c-.03.77-.69.85-1.25.98z"/><path fill="#f4ecea" d="M97.787-19.528c0 .43-.21.68-.5.67s-.54-.36-.5-.73.19-.54.55-.45a.54.54 0 0 1 .45.51z"/><path fill="#f8f3f2" d="M129.777-9.448c.31.05.5.23.45.56a.49.49 0 0 1-.58.44c-.32 0-.52-.19-.45-.53a.52.52 0 0 1 .58-.47z"/><path fill="#f5efed" d="M63.617 130.572c-.32 0-.54-.1-.57-.43a.47.47 0 0 1 .47-.54c.29 0 .56.08.57.43a.49.49 0 0 1-.47.54z"/><path fill="#f7f2f0" d="M78.697 128.312a.5.5 0 0 1-.55-.48.47.47 0 0 1 .44-.57c.34 0 .51.17.54.47a.47.47 0 0 1-.43.58z"/><path fill="#b38474" d="M116.607-18.088c-.85-.22-1.51-.47-2.3.24.05-1.14.58-1.41 1.14-1.52s.91.4 1.16 1.28z"/><path fill="#a56f5a" d="M73.517 68.802c-2.64.18-5-.86-7.43-1.66-1-.34-.9-.86-.16-1.4a68.83 68.83 0 0 1 7.21-4.76 1.49 1.49 0 0 1 1.71.19 14.89 14.89 0 0 1 4.18 4.26c.83 1.31.54 2.12-.94 2.71a11.91 11.91 0 0 1-4.57.66z"/><path fill="#a6705b" d="M112.567 50.152c-1-.07-1.71-.51-1.73-1.61a1.59 1.59 0 0 1 1.73-1.79 1.55 1.55 0 0 1 1.65 1.69c.02 1.09-.61 1.6-1.65 1.71z"/></g></g></svg>