<svg xmlns="http://www.w3.org/2000/svg" width="130mm" height="130mm" viewBox="0 0 130 130"><g transform="matrix(1.0349 0 0 .88777 -21.02 -39.707)"><path d="M20.312 101.893l26.727 26.193s-17.105-7.484-17.105 22.985.535 40.09.535 40.09h106.373s-.535-9.621-.535-40.09-17.105-22.985-17.105-22.985l26.727-26.193-34.745 4.811H55.057z" fill="#000000"/><ellipse ry="30.738" rx="37.153" cy="93.073" cx="83.121" fill="#000000"/><path d="M54.573 91.906l.597 4.725h2.541s1.495 9.26 10.463 8.882c8.968-.378 10.463-9.827 10.463-9.827h4.484zm28.548 3.78h4.484s1.495 9.449 10.463 9.827c8.968.378 10.462-8.882 10.462-8.882h2.541l.598-4.725z" fill="#28ff17" stroke="#28ff17" stroke-width="1.07813549" stroke-linecap="square"/><path d="M77.249 94.334c-13.49-.3-36.223-1.632-41.954-2.46-5.518-.796-9.564-2.919-10.926-5.732-1.655-3.419-.746-5.445 3.426-7.635 3.423-1.798 12.367-3.593 17.905-3.593 1.824 0 2.072-.094 2.227-.85l.787-3.874c2.543-12.565 7.553-21.857 13.155-24.4 3.155-1.433 4.878-.877 9.137 2.95 4.241 3.81 8.604 5.247 14.888 4.908 5.805-.314 8.563-1.671 11.424-5.62 2.58-3.563 4.09-4.046 7.431-2.382 2.606 1.299 5.645 4.668 7.6 8.424 1.997 3.84 4.256 10.663 5.349 16.16l.834 4.198 3.648.24c10.211.668 18.317 3.25 19.916 6.342 1.24 2.396.358 5.327-2.186 7.267-3.011 2.297-6.509 3.189-17.115 4.364-11.725 1.299-31.018 2.016-45.546 1.693z" fill="#000000"/><g transform="matrix(1 0 0 1.3409 -1.336 -54.484)"><path d="M57.463 133.431l16.036 6.415 5.345 12.294-9.621 28.33zm53.988 0l-16.036 6.415-5.345 12.294 9.622 28.33z" fill="#ffffff" fill-opacity="0.95535715"/></g></g></svg>